#N canvas 25 314 1349 696 10;
#N canvas 588 6 1256 747 nebulae 0;
#X obj 34 216 netreceive 3000;
#X obj 118 271 route start size density overlap blend window pitch
speed record file source reset freeze;
#X obj 532 268 route start_alt size_alt density_alt overlap_alt blend_alt
window_alt pitch_alt record_alt file_alt source_alt freeze_alt;
#X obj 248 513 s window;
#X obj 527 452 s start_alt;
#X obj 545 427 s size_alt;
#X obj 560 404 s density_alt;
#X obj 578 379 s overlap_alt;
#X obj 661 458 s blend_alt;
#X obj 687 433 s window_alt;
#X obj 704 412 s pitch_alt;
#X obj 891 459 s freeze_alt;
#X obj 768 459 s record_alt;
#X obj 786 434 s file_alt;
#X obj 804 412 s source_alt;
#X obj 819 93 loadbang;
#X obj 819 115 delay 300;
#X obj 819 137 s initbang;
#X obj 1272 362 r initbang;
#X msg 1272 384 \; pd dsp 1;
#X text 2 191 Receive Controls via TCP;
#X text 261 231 primary controls;
#X text 560 228 secondary controls (accessible when source is held)
;
#X text 841 68 Initialization -- Turn DSP on;
#X obj 93 52 adc~;
#X obj 421 82 dac~;
#X text 127 81 Audio Bypass -- Input to Output;
#X obj 422 33 inlet~;
#X obj 443 61 inlet~;
#X obj 93 140 outlet~;
#X obj 115 117 outlet~;
#X msg 83 556 set \$1;
#X obj 83 577 s start-r;
#X msg 118 505 set \$1;
#X msg 140 455 set \$1;
#X msg 177 399 set \$1;
#X msg 204 332 set \$1;
#X msg 233 532 set \$1;
#X msg 282 395 set \$1;
#X msg 285 332 set \$1;
#X obj 118 526 s size-r;
#X obj 140 476 s density-r;
#X obj 177 420 s overlap-r;
#X obj 204 353 s blend-r;
#X obj 233 553 s window-r;
#X obj 282 416 s pitch-r;
#X obj 285 353 s speed-r;
#X msg 335 458 set \$1;
#X obj 335 479 s record-r;
#X msg 361 392 set \$1;
#X obj 361 413 s file-r;
#X msg 385 331 set \$1;
#X obj 385 352 s source-r;
#X msg 412 501 set \$1;
#X obj 412 522 s reset-r;
#X msg 442 413 set \$1;
#X obj 442 434 s freeze-r;
#X obj 119 603 s start-s;
#X obj 145 553 s size-s;
#X obj 170 498 s density-s;
#X obj 196 441 s overlap-s;
#X obj 222 376 s blend-s;
#X obj 300 375 s speed-s;
#X obj 274 438 s pitch-s;
#X obj 352 433 s file-s;
#X obj 326 500 s record-s;
#X obj 378 371 s source-s;
#X obj 430 455 s freeze-s;
#X obj 404 542 s reset-s;
#X connect 0 0 1 0;
#X connect 1 0 31 0;
#X connect 1 0 57 0;
#X connect 1 1 33 0;
#X connect 1 1 58 0;
#X connect 1 2 34 0;
#X connect 1 2 59 0;
#X connect 1 3 35 0;
#X connect 1 3 60 0;
#X connect 1 4 36 0;
#X connect 1 4 61 0;
#X connect 1 5 3 0;
#X connect 1 5 37 0;
#X connect 1 6 38 0;
#X connect 1 6 63 0;
#X connect 1 7 39 0;
#X connect 1 7 62 0;
#X connect 1 8 47 0;
#X connect 1 8 65 0;
#X connect 1 9 49 0;
#X connect 1 9 64 0;
#X connect 1 10 51 0;
#X connect 1 10 66 0;
#X connect 1 11 53 0;
#X connect 1 11 68 0;
#X connect 1 12 55 0;
#X connect 1 12 67 0;
#X connect 1 13 2 0;
#X connect 2 0 4 0;
#X connect 2 1 5 0;
#X connect 2 2 6 0;
#X connect 2 3 7 0;
#X connect 2 4 8 0;
#X connect 2 5 9 0;
#X connect 2 6 10 0;
#X connect 2 7 12 0;
#X connect 2 8 13 0;
#X connect 2 9 14 0;
#X connect 2 10 11 0;
#X connect 15 0 16 0;
#X connect 16 0 17 0;
#X connect 18 0 19 0;
#X connect 24 0 29 0;
#X connect 24 1 30 0;
#X connect 27 0 25 0;
#X connect 28 0 25 1;
#X connect 31 0 32 0;
#X connect 33 0 40 0;
#X connect 34 0 41 0;
#X connect 35 0 42 0;
#X connect 36 0 43 0;
#X connect 37 0 44 0;
#X connect 38 0 45 0;
#X connect 39 0 46 0;
#X connect 47 0 48 0;
#X connect 49 0 50 0;
#X connect 51 0 52 0;
#X connect 53 0 54 0;
#X connect 55 0 56 0;
#X restore 851 576 pd nebulae;
#X obj 47 26 cnv 15 300 300 empty empty empty 20 12 0 14 #e0e0e0 #404040
0;
#X obj 70 56 hsl 50 40 0 1 0 0 start-s start-r start\ p1\ [28.5] -2
-8 0 10 #000000 #fcfcfc #000000 0 1;
#X obj 70 116 hsl 50 40 0 1 0 0 density-s density-r density\ p2\ [53]
-2 -8 0 10 #000000 #fcfcfc #000000 0 1;
#X obj 90 176 hsl 50 40 0 1 0 0 blend-s blend-r blend -2 -8 0 10 #000000
#fcfcfc #000000 0 1;
#X obj 275 56 hsl 50 40 0 1 0 0 size-s size-r size\ p3\ [51] -2 -8
0 10 #000000 #fcfcfc #000000 0 1;
#X obj 275 116 hsl 50 40 0 1 0 0 overlap-s overlap-r overlap\ p4\ [26.5]
-2 -8 0 10 #000000 #fcfcfc #000000 0 1;
#X obj 255 176 hsl 50 40 0 1 0 0 window-s window-r window -2 -8 0 10
#000000 #fcfcfc #000000 0 1;
#X obj 158 56 hsl 80 50 0 1 0 0 speed-s speed-r speed\ vca\ 83.5 -2
-8 0 10 #000000 #fcfcfc #000000 0 1;
#X obj 158 126 hsl 80 50 0 1 0 0 pitch-s pitch-r pitch\ spread\ [0.8]
-2 -8 0 10 #000000 #fcfcfc #000000 0 1;
#X obj 80 274 tgl 30 0 record-s record-r record 0 -8 0 10 #000000 #fcfcfc
#000000 0 1;
#X obj 130 274 tgl 30 0 next-s next-r next 0 -8 0 10 #000000 #fcfcfc
#000000 0 1;
#X obj 180 274 tgl 30 0 source-s source-r source 0 -8 0 10 #000000
#fcfcfc #000000 0 1;
#X obj 230 274 tgl 30 0 reset-s reset-r reset 0 -8 0 10 #000000 #fcfcfc
#000000 0 1;
#X obj 280 274 tgl 30 0 freeze-s freeze-r freeze 0 -8 0 10 #000000
#fcfcfc #000000 0 1;
#X floatatom 593 95 5 0 0 0 - - - 0;
#X obj 573 142 int;
#X obj 573 74 r start-s;
#X obj 573 240 s start-r;
#X floatatom 529 189 5 0 0 0 - - - 0;
#X obj 138 345 table sawtooth;
#X msg 573 219 label start\\\ p1\\\ [\$1];
#X obj 573 119 * 1000;
#X obj 573 163 / 10;
#X obj 47 402 loadbang;
#X floatatom 764 145 5 0 0 0 - - - 0;
#X obj 714 158 int;
#X obj 714 137 * 1000;
#X obj 714 179 / 10;
#N canvas 706 144 1116 495 supersaw 0;
#X obj 105 18 inlet;
#X obj 358 16 inlet;
#X obj 312 389 outlet~;
#X obj 628 11 inlet;
#X obj 628 48 tgl 15 0 empty empty empty 17 7 0 10 #fcfcfc #000000
#000000 0 1;
#X msg 628 86 \$1 1;
#X obj 628 107 line~;
#X obj 684 9 loadbang;
#X obj 312 368 *~;
#N canvas 0 50 578 533 bl_saw~ 0;
#X obj 73 287 outlet~;
#X obj 109 132 tabosc4~ sawtooth;
#X obj 81 154 tabosc4~ sawtooth2;
#X obj 47 179 tabosc4~ sawtooth3;
#X obj 109 207 *~;
#X obj 80 207 *~;
#X obj 46 206 *~;
#X obj 317 87 moses 1;
#X obj 266 162 - 1;
#X obj 266 183 abs;
#X msg 298 167 0;
#X msg 266 225 \$1 1;
#X obj 266 246 line~;
#X obj 350 161 - 1;
#X obj 350 182 abs;
#X msg 350 224 \$1 1;
#X obj 350 245 line~;
#X obj 356 134 - 1;
#X msg 398 216 \$1 1;
#X obj 398 237 line~;
#X msg 448 169 0;
#X obj 433 138 - 2;
#X obj 356 110 moses 2;
#X msg 395 156 0;
#X obj 55 61 mtof;
#X obj 55 101 line~;
#X msg 55 81 \$1 1;
#X obj 55 41 + 20;
#X obj 55 21 inlet;
#X obj 220 40 - 88;
#X obj 270 64 / 12;
#X obj 350 203 pow 0.5;
#X obj 398 195 pow 0.5;
#X obj 266 204 pow 0.5;
#X connect 1 0 4 0;
#X connect 2 0 5 0;
#X connect 3 0 6 0;
#X connect 4 0 0 0;
#X connect 5 0 0 0;
#X connect 6 0 0 0;
#X connect 7 0 8 0;
#X connect 7 0 14 0;
#X connect 7 0 20 0;
#X connect 7 1 10 0;
#X connect 7 1 22 0;
#X connect 8 0 9 0;
#X connect 9 0 33 0;
#X connect 10 0 9 0;
#X connect 11 0 12 0;
#X connect 12 0 6 1;
#X connect 13 0 14 0;
#X connect 14 0 31 0;
#X connect 15 0 16 0;
#X connect 16 0 5 1;
#X connect 17 0 13 0;
#X connect 18 0 19 0;
#X connect 19 0 4 1;
#X connect 20 0 32 0;
#X connect 22 0 17 0;
#X connect 22 0 20 0;
#X connect 22 0 32 0;
#X connect 22 1 23 0;
#X connect 22 1 21 0;
#X connect 23 0 14 0;
#X connect 24 0 26 0;
#X connect 25 0 1 0;
#X connect 25 0 2 0;
#X connect 25 0 3 0;
#X connect 26 0 25 0;
#X connect 27 0 24 0;
#X connect 27 0 29 0;
#X connect 28 0 27 0;
#X connect 29 0 30 0;
#X connect 30 0 7 0;
#X connect 31 0 15 0;
#X connect 32 0 18 0;
#X connect 33 0 11 0;
#X restore 105 250 pd bl_saw~;
#N canvas 0 50 578 533 bl_saw~ 0;
#X obj 73 407 outlet~;
#X obj 109 252 tabosc4~ sawtooth;
#X obj 81 274 tabosc4~ sawtooth2;
#X obj 47 299 tabosc4~ sawtooth3;
#X obj 109 327 *~;
#X obj 80 327 *~;
#X obj 46 326 *~;
#X obj 317 87 moses 1;
#X obj 266 162 - 1;
#X obj 266 183 abs;
#X msg 298 167 0;
#X msg 266 225 \$1 1;
#X obj 266 246 line~;
#X obj 350 161 - 1;
#X obj 350 182 abs;
#X msg 350 224 \$1 1;
#X obj 350 245 line~;
#X obj 356 134 - 1;
#X msg 418 225 \$1 1;
#X obj 418 246 line~;
#X msg 448 169 0;
#X obj 433 138 - 2;
#X obj 356 110 moses 2;
#X msg 395 156 0;
#X obj 55 61 mtof;
#X obj 55 101 line~;
#X msg 55 81 \$1 1;
#X obj 55 41 + 20;
#X obj 55 21 inlet;
#X obj 220 40 - 88;
#X obj 270 64 / 12;
#X obj 107 160 ftom~;
#X obj 107 181 +~;
#X msg 123 116 \$1 1;
#X obj 123 137 line~;
#X obj 107 202 mtof~;
#X obj 123 95 / 25.1;
#X obj 123 21 inlet;
#X obj 266 204 pow 0.5;
#X obj 350 203 pow 0.5;
#X obj 418 204 pow 0.5;
#X connect 1 0 4 0;
#X connect 2 0 5 0;
#X connect 3 0 6 0;
#X connect 4 0 0 0;
#X connect 5 0 0 0;
#X connect 6 0 0 0;
#X connect 7 0 8 0;
#X connect 7 0 14 0;
#X connect 7 0 20 0;
#X connect 7 1 10 0;
#X connect 7 1 22 0;
#X connect 8 0 9 0;
#X connect 9 0 38 0;
#X connect 10 0 9 0;
#X connect 11 0 12 0;
#X connect 12 0 6 1;
#X connect 13 0 14 0;
#X connect 14 0 39 0;
#X connect 15 0 16 0;
#X connect 16 0 5 1;
#X connect 17 0 13 0;
#X connect 18 0 19 0;
#X connect 19 0 4 1;
#X connect 20 0 40 0;
#X connect 22 0 17 0;
#X connect 22 0 20 0;
#X connect 22 0 40 0;
#X connect 22 1 23 0;
#X connect 22 1 21 0;
#X connect 23 0 14 0;
#X connect 24 0 26 0;
#X connect 25 0 31 0;
#X connect 26 0 25 0;
#X connect 27 0 24 0;
#X connect 27 0 29 0;
#X connect 28 0 27 0;
#X connect 29 0 30 0;
#X connect 30 0 7 0;
#X connect 31 0 32 0;
#X connect 32 0 35 0;
#X connect 33 0 34 0;
#X connect 34 0 32 1;
#X connect 35 0 1 0;
#X connect 35 0 3 0;
#X connect 35 0 2 0;
#X connect 36 0 33 0;
#X connect 37 0 36 0;
#X connect 38 0 11 0;
#X connect 39 0 15 0;
#X connect 40 0 18 0;
#X restore 217 255 pd bl_saw~;
#N canvas 0 50 578 533 bl_saw~ 0;
#X obj 73 407 outlet~;
#X obj 109 252 tabosc4~ sawtooth;
#X obj 81 274 tabosc4~ sawtooth2;
#X obj 47 299 tabosc4~ sawtooth3;
#X obj 109 327 *~;
#X obj 80 327 *~;
#X obj 46 326 *~;
#X obj 317 87 moses 1;
#X obj 266 162 - 1;
#X obj 266 183 abs;
#X msg 298 167 0;
#X msg 266 225 \$1 1;
#X obj 266 246 line~;
#X obj 350 161 - 1;
#X obj 350 182 abs;
#X msg 350 224 \$1 1;
#X obj 350 245 line~;
#X obj 356 134 - 1;
#X msg 398 216 \$1 1;
#X obj 398 237 line~;
#X msg 448 169 0;
#X obj 433 138 - 2;
#X obj 356 110 moses 2;
#X msg 395 156 0;
#X obj 55 61 mtof;
#X obj 55 101 line~;
#X msg 55 81 \$1 1;
#X obj 55 41 + 20;
#X obj 55 21 inlet;
#X obj 220 40 - 88;
#X obj 270 64 / 12;
#X obj 107 160 ftom~;
#X msg 123 116 \$1 1;
#X obj 123 137 line~;
#X obj 107 202 mtof~;
#X obj 123 21 inlet;
#X obj 107 181 +~;
#X obj 123 95 / -24.7;
#X obj 266 204 pow 0.5;
#X obj 350 203 pow 0.5;
#X obj 398 195 pow 0.5;
#X connect 1 0 4 0;
#X connect 2 0 5 0;
#X connect 3 0 6 0;
#X connect 4 0 0 0;
#X connect 5 0 0 0;
#X connect 6 0 0 0;
#X connect 7 0 8 0;
#X connect 7 0 14 0;
#X connect 7 0 20 0;
#X connect 7 1 10 0;
#X connect 7 1 22 0;
#X connect 8 0 9 0;
#X connect 9 0 38 0;
#X connect 10 0 9 0;
#X connect 11 0 12 0;
#X connect 12 0 6 1;
#X connect 13 0 14 0;
#X connect 14 0 39 0;
#X connect 15 0 16 0;
#X connect 16 0 5 1;
#X connect 17 0 13 0;
#X connect 18 0 19 0;
#X connect 19 0 4 1;
#X connect 20 0 40 0;
#X connect 22 0 17 0;
#X connect 22 0 20 0;
#X connect 22 0 40 0;
#X connect 22 1 23 0;
#X connect 22 1 21 0;
#X connect 23 0 14 0;
#X connect 24 0 26 0;
#X connect 25 0 31 0;
#X connect 26 0 25 0;
#X connect 27 0 24 0;
#X connect 27 0 29 0;
#X connect 28 0 27 0;
#X connect 29 0 30 0;
#X connect 30 0 7 0;
#X connect 31 0 36 0;
#X connect 32 0 33 0;
#X connect 33 0 36 1;
#X connect 34 0 1 0;
#X connect 34 0 3 0;
#X connect 34 0 2 0;
#X connect 35 0 37 0;
#X connect 36 0 34 0;
#X connect 37 0 32 0;
#X connect 38 0 11 0;
#X connect 39 0 15 0;
#X connect 40 0 18 0;
#X restore 300 255 pd bl_saw~;
#N canvas 0 50 578 533 bl_saw~ 0;
#X obj 73 407 outlet~;
#X obj 109 252 tabosc4~ sawtooth;
#X obj 81 274 tabosc4~ sawtooth2;
#X obj 47 299 tabosc4~ sawtooth3;
#X obj 109 327 *~;
#X obj 80 327 *~;
#X obj 46 326 *~;
#X obj 317 87 moses 1;
#X obj 266 162 - 1;
#X obj 266 183 abs;
#X msg 298 167 0;
#X msg 266 225 \$1 1;
#X obj 266 246 line~;
#X obj 350 161 - 1;
#X obj 350 182 abs;
#X msg 350 224 \$1 1;
#X obj 350 245 line~;
#X obj 356 134 - 1;
#X msg 398 216 \$1 1;
#X obj 398 237 line~;
#X msg 448 169 0;
#X obj 433 138 - 2;
#X obj 356 110 moses 2;
#X msg 395 156 0;
#X obj 55 61 mtof;
#X obj 55 101 line~;
#X msg 55 81 \$1 1;
#X obj 55 41 + 20;
#X obj 55 21 inlet;
#X obj 220 40 - 88;
#X obj 270 64 / 12;
#X obj 107 160 ftom~;
#X obj 107 181 +~;
#X msg 123 116 \$1 1;
#X obj 123 137 line~;
#X obj 107 202 mtof~;
#X obj 123 21 inlet;
#X obj 123 95 / 15.5;
#X obj 266 204 pow 0.5;
#X obj 350 203 pow 0.5;
#X obj 398 195 pow 0.5;
#X connect 1 0 4 0;
#X connect 2 0 5 0;
#X connect 3 0 6 0;
#X connect 4 0 0 0;
#X connect 5 0 0 0;
#X connect 6 0 0 0;
#X connect 7 0 8 0;
#X connect 7 0 14 0;
#X connect 7 0 20 0;
#X connect 7 1 10 0;
#X connect 7 1 22 0;
#X connect 8 0 9 0;
#X connect 9 0 38 0;
#X connect 10 0 9 0;
#X connect 11 0 12 0;
#X connect 12 0 6 1;
#X connect 13 0 14 0;
#X connect 14 0 39 0;
#X connect 15 0 16 0;
#X connect 16 0 5 1;
#X connect 17 0 13 0;
#X connect 18 0 19 0;
#X connect 19 0 4 1;
#X connect 20 0 40 0;
#X connect 22 0 17 0;
#X connect 22 0 20 0;
#X connect 22 0 40 0;
#X connect 22 1 23 0;
#X connect 22 1 21 0;
#X connect 23 0 14 0;
#X connect 24 0 26 0;
#X connect 25 0 31 0;
#X connect 26 0 25 0;
#X connect 27 0 24 0;
#X connect 27 0 29 0;
#X connect 28 0 27 0;
#X connect 29 0 30 0;
#X connect 30 0 7 0;
#X connect 31 0 32 0;
#X connect 32 0 35 0;
#X connect 33 0 34 0;
#X connect 34 0 32 1;
#X connect 35 0 1 0;
#X connect 35 0 3 0;
#X connect 35 0 2 0;
#X connect 36 0 37 0;
#X connect 37 0 33 0;
#X connect 38 0 11 0;
#X connect 39 0 15 0;
#X connect 40 0 18 0;
#X restore 390 255 pd bl_saw~;
#N canvas 0 50 578 533 bl_saw~ 0;
#X obj 73 407 outlet~;
#X obj 109 252 tabosc4~ sawtooth;
#X obj 81 274 tabosc4~ sawtooth2;
#X obj 47 299 tabosc4~ sawtooth3;
#X obj 109 327 *~;
#X obj 80 327 *~;
#X obj 46 326 *~;
#X obj 317 87 moses 1;
#X obj 266 162 - 1;
#X obj 266 183 abs;
#X msg 298 167 0;
#X obj 266 204 pow 2;
#X msg 266 225 \$1 1;
#X obj 266 246 line~;
#X obj 350 161 - 1;
#X obj 350 182 abs;
#X obj 350 203 pow 2;
#X msg 350 224 \$1 1;
#X obj 350 245 line~;
#X obj 356 134 - 1;
#X obj 398 195 pow 2;
#X msg 398 216 \$1 1;
#X obj 398 237 line~;
#X msg 448 169 0;
#X obj 433 138 - 2;
#X obj 356 110 moses 2;
#X msg 395 156 0;
#X obj 55 61 mtof;
#X obj 55 101 line~;
#X msg 55 81 \$1 1;
#X obj 55 41 + 20;
#X obj 55 21 inlet;
#X obj 220 40 - 88;
#X obj 270 64 / 12;
#X obj 107 160 ftom~;
#X msg 123 116 \$1 1;
#X obj 123 137 line~;
#X obj 107 202 mtof~;
#X obj 123 21 inlet;
#X obj 107 181 +~;
#X obj 123 95 / -15.34;
#X connect 1 0 4 0;
#X connect 2 0 5 0;
#X connect 3 0 6 0;
#X connect 4 0 0 0;
#X connect 5 0 0 0;
#X connect 6 0 0 0;
#X connect 7 0 8 0;
#X connect 7 0 15 0;
#X connect 7 0 23 0;
#X connect 7 1 10 0;
#X connect 7 1 25 0;
#X connect 8 0 9 0;
#X connect 9 0 11 0;
#X connect 10 0 9 0;
#X connect 11 0 12 0;
#X connect 12 0 13 0;
#X connect 13 0 6 1;
#X connect 14 0 15 0;
#X connect 15 0 16 0;
#X connect 16 0 17 0;
#X connect 17 0 18 0;
#X connect 18 0 5 1;
#X connect 19 0 14 0;
#X connect 20 0 21 0;
#X connect 21 0 22 0;
#X connect 22 0 4 1;
#X connect 23 0 20 0;
#X connect 25 0 20 0;
#X connect 25 0 19 0;
#X connect 25 0 23 0;
#X connect 25 1 26 0;
#X connect 25 1 24 0;
#X connect 26 0 15 0;
#X connect 27 0 29 0;
#X connect 28 0 34 0;
#X connect 29 0 28 0;
#X connect 30 0 27 0;
#X connect 30 0 32 0;
#X connect 31 0 30 0;
#X connect 32 0 33 0;
#X connect 33 0 7 0;
#X connect 34 0 39 0;
#X connect 35 0 36 0;
#X connect 36 0 39 1;
#X connect 37 0 1 0;
#X connect 37 0 3 0;
#X connect 37 0 2 0;
#X connect 38 0 40 0;
#X connect 39 0 37 0;
#X connect 40 0 35 0;
#X restore 473 255 pd bl_saw~;
#N canvas 0 50 578 533 bl_saw~ 0;
#X obj 73 407 outlet~;
#X obj 109 252 tabosc4~ sawtooth;
#X obj 81 274 tabosc4~ sawtooth2;
#X obj 47 299 tabosc4~ sawtooth3;
#X obj 109 327 *~;
#X obj 80 327 *~;
#X obj 46 326 *~;
#X obj 317 87 moses 1;
#X obj 266 162 - 1;
#X obj 266 183 abs;
#X msg 298 167 0;
#X msg 266 225 \$1 1;
#X obj 266 246 line~;
#X obj 350 161 - 1;
#X obj 350 182 abs;
#X msg 350 224 \$1 1;
#X obj 350 245 line~;
#X obj 356 134 - 1;
#X msg 398 216 \$1 1;
#X obj 398 237 line~;
#X msg 448 169 0;
#X obj 433 138 - 2;
#X obj 356 110 moses 2;
#X msg 395 156 0;
#X obj 55 61 mtof;
#X obj 55 101 line~;
#X msg 55 81 \$1 1;
#X obj 55 41 + 20;
#X obj 55 21 inlet;
#X obj 220 40 - 88;
#X obj 270 64 / 12;
#X obj 107 160 ftom~;
#X obj 107 181 +~;
#X msg 123 116 \$1 1;
#X obj 123 137 line~;
#X obj 107 202 mtof~;
#X obj 123 21 inlet;
#X obj 123 95 / 9.43;
#X obj 266 204 pow 0.5;
#X obj 350 203 pow 0.5;
#X obj 398 195 pow 0.5;
#X connect 1 0 4 0;
#X connect 2 0 5 0;
#X connect 3 0 6 0;
#X connect 4 0 0 0;
#X connect 5 0 0 0;
#X connect 6 0 0 0;
#X connect 7 0 8 0;
#X connect 7 0 14 0;
#X connect 7 0 20 0;
#X connect 7 1 10 0;
#X connect 7 1 22 0;
#X connect 8 0 9 0;
#X connect 9 0 38 0;
#X connect 10 0 9 0;
#X connect 11 0 12 0;
#X connect 12 0 6 1;
#X connect 13 0 14 0;
#X connect 14 0 39 0;
#X connect 15 0 16 0;
#X connect 16 0 5 1;
#X connect 17 0 13 0;
#X connect 18 0 19 0;
#X connect 19 0 4 1;
#X connect 20 0 40 0;
#X connect 22 0 17 0;
#X connect 22 0 20 0;
#X connect 22 0 40 0;
#X connect 22 1 23 0;
#X connect 22 1 21 0;
#X connect 23 0 14 0;
#X connect 24 0 26 0;
#X connect 25 0 31 0;
#X connect 26 0 25 0;
#X connect 27 0 24 0;
#X connect 27 0 29 0;
#X connect 28 0 27 0;
#X connect 29 0 30 0;
#X connect 30 0 7 0;
#X connect 31 0 32 0;
#X connect 32 0 35 0;
#X connect 33 0 34 0;
#X connect 34 0 32 1;
#X connect 35 0 1 0;
#X connect 35 0 3 0;
#X connect 35 0 2 0;
#X connect 36 0 37 0;
#X connect 37 0 33 0;
#X connect 38 0 11 0;
#X connect 39 0 15 0;
#X connect 40 0 18 0;
#X restore 552 255 pd bl_saw~;
#N canvas 0 50 578 533 bl_saw~ 0;
#X obj 73 407 outlet~;
#X obj 109 252 tabosc4~ sawtooth;
#X obj 81 274 tabosc4~ sawtooth2;
#X obj 47 299 tabosc4~ sawtooth3;
#X obj 109 327 *~;
#X obj 80 327 *~;
#X obj 46 326 *~;
#X obj 317 87 moses 1;
#X obj 266 162 - 1;
#X obj 266 183 abs;
#X msg 298 167 0;
#X msg 266 225 \$1 1;
#X obj 266 246 line~;
#X obj 350 161 - 1;
#X obj 350 182 abs;
#X msg 350 224 \$1 1;
#X obj 350 245 line~;
#X obj 356 134 - 1;
#X msg 398 216 \$1 1;
#X obj 398 237 line~;
#X msg 448 169 0;
#X obj 433 138 - 2;
#X obj 356 110 moses 2;
#X msg 395 156 0;
#X obj 55 61 mtof;
#X obj 55 101 line~;
#X msg 55 81 \$1 1;
#X obj 55 41 + 20;
#X obj 55 21 inlet;
#X obj 220 40 - 88;
#X obj 270 64 / 12;
#X obj 107 160 ftom~;
#X msg 123 116 \$1 1;
#X obj 123 137 line~;
#X obj 107 202 mtof~;
#X obj 123 21 inlet;
#X obj 107 181 +~;
#X obj 123 95 / -9.551;
#X obj 398 195 pow 0.5;
#X obj 350 203 pow 0.5;
#X obj 266 204 pow 0.5;
#X connect 1 0 4 0;
#X connect 2 0 5 0;
#X connect 3 0 6 0;
#X connect 4 0 0 0;
#X connect 5 0 0 0;
#X connect 6 0 0 0;
#X connect 7 0 8 0;
#X connect 7 0 14 0;
#X connect 7 0 20 0;
#X connect 7 1 10 0;
#X connect 7 1 22 0;
#X connect 8 0 9 0;
#X connect 9 0 40 0;
#X connect 10 0 9 0;
#X connect 11 0 12 0;
#X connect 12 0 6 1;
#X connect 13 0 14 0;
#X connect 14 0 39 0;
#X connect 15 0 16 0;
#X connect 16 0 5 1;
#X connect 17 0 13 0;
#X connect 18 0 19 0;
#X connect 19 0 4 1;
#X connect 20 0 38 0;
#X connect 22 0 17 0;
#X connect 22 0 20 0;
#X connect 22 0 38 0;
#X connect 22 1 23 0;
#X connect 22 1 21 0;
#X connect 23 0 14 0;
#X connect 24 0 26 0;
#X connect 25 0 31 0;
#X connect 26 0 25 0;
#X connect 27 0 24 0;
#X connect 27 0 29 0;
#X connect 28 0 27 0;
#X connect 29 0 30 0;
#X connect 30 0 7 0;
#X connect 31 0 36 0;
#X connect 32 0 33 0;
#X connect 33 0 36 1;
#X connect 34 0 1 0;
#X connect 34 0 3 0;
#X connect 34 0 2 0;
#X connect 35 0 37 0;
#X connect 36 0 34 0;
#X connect 37 0 32 0;
#X connect 38 0 18 0;
#X connect 39 0 15 0;
#X connect 40 0 11 0;
#X restore 635 255 pd bl_saw~;
#X msg 684 30 1;
#X connect 0 0 9 0;
#X connect 0 0 10 0;
#X connect 0 0 11 0;
#X connect 0 0 12 0;
#X connect 0 0 15 0;
#X connect 0 0 14 0;
#X connect 0 0 13 0;
#X connect 1 0 10 1;
#X connect 1 0 11 1;
#X connect 1 0 12 1;
#X connect 1 0 15 1;
#X connect 1 0 14 1;
#X connect 1 0 13 1;
#X connect 3 0 4 0;
#X connect 4 0 5 0;
#X connect 5 0 6 0;
#X connect 6 0 8 1;
#X connect 7 0 16 0;
#X connect 8 0 2 0;
#X connect 9 0 8 0;
#X connect 10 0 8 0;
#X connect 11 0 8 0;
#X connect 12 0 8 0;
#X connect 13 0 8 0;
#X connect 14 0 8 0;
#X connect 15 0 8 0;
#X connect 16 0 4 0;
#X restore 618 294 pd supersaw;
#X obj 714 109 pow 4;
#X obj 722 255 / 8.7;
#X floatatom 550 306 5 0 0 0 - - - 0;
#X obj 530 353 int;
#X floatatom 486 400 5 0 0 0 - - - 0;
#X obj 530 330 * 1000;
#X obj 530 374 / 10;
#X obj 530 285 r density-s;
#X msg 530 430 label density\\\ p2\\\ [\$1];
#X obj 530 451 s density-r;
#X obj 714 88 r pitch-s;
#X msg 714 201 label pitch\\\ spread\\\ [\$1];
#X obj 714 222 s pitch-r;
#X floatatom 843 298 5 0 0 0 - - - 0;
#X obj 823 345 int;
#X obj 823 322 * 1000;
#X obj 823 366 / 10;
#X obj 823 277 r speed-s;
#X obj 823 409 s speed-r;
#X msg 823 388 label speed\\\ vca\\\ \$1;
#X obj 851 554 *~;
#X obj 890 468 line~;
#X msg 890 445 \$1 1;
#X floatatom 794 414 5 0 0 0 - - - 0;
#X floatatom 943 93 5 0 0 0 - - - 0;
#X obj 923 140 int;
#X floatatom 879 187 5 0 0 0 - - - 0;
#X obj 923 117 * 1000;
#X obj 923 161 / 10;
#X obj 923 72 r size-s;
#X obj 923 238 s size-r;
#X floatatom 1122 257 5 0 0 0 - - - 0;
#X obj 1102 304 int;
#X floatatom 1058 351 5 0 0 0 - - - 0;
#X obj 1102 281 * 1000;
#X obj 1102 325 / 10;
#X obj 1102 236 r overlap-s;
#X obj 1102 402 s overlap-r;
#X msg 1102 381 label overlap\\\ p4\\\ [\$1];
#X msg 923 217 label size\\\ p3\\\ [\$1];
#X obj 624 142 * 100;
#X obj 762 120 * 100;
#X obj 974 136 * 100;
#X obj 574 351 * 100;
#X obj 1145 316 * 100;
#X obj 873 342 * 100;
#X obj 894 555 *~;
#X obj 708 433 r record-s;
#X obj 1196 404 r freeze-s;
#X floatatom 1231 437 5 0 0 0 - - - 0;
#X obj 890 487 *~ 0.01;
#X obj 138 366 table sawtooth2;
#X text 567 565 1370;
#X text 565 583 2750;
#X text 566 609 5500;
#X obj 138 387 table sawtooth3;
#X text 615 566 88;
#X text 613 583 100;
#X text 615 604 112;
#X floatatom 699 453 5 0 0 0 - - - 0;
#X obj 766 568 env~;
#X floatatom 766 589 5 0 0 0 - - - 0;
#X obj 938 566 env~;
#X floatatom 938 587 5 0 0 0 - - - 0;
#X obj 822 530 /~ 49, f 6;
#X obj 892 535 /~ 49, f 6;
#X msg 47 422 \; sawtooth sinesum 128 0.5 0.25 0.166667 0.125 0.1 0.083333
0.07143 0.0625 0.055556 0.05 0.045455 0.041667 0.0384615 0.035714 0.0333333
0.03125 \; sawtooth2 sinesum 128 0.5 0.25 0.166667 0.125 0.1 0.083333
0.07143 \; sawtooth3 sinesum 128 0.5 0.25 \;;
#N canvas 706 144 1116 495 supersaw 0;
#X obj 105 18 inlet;
#X obj 358 16 inlet;
#X obj 312 389 outlet~;
#X obj 628 11 inlet;
#X obj 628 48 tgl 15 0 empty empty empty 17 7 0 10 #fcfcfc #000000
#000000 0 1;
#X msg 628 86 \$1 1;
#X obj 628 107 line~;
#X obj 684 9 loadbang;
#X obj 312 368 *~;
#N canvas 0 50 578 533 bl_saw~ 0;
#X obj 73 287 outlet~;
#X obj 109 132 tabosc4~ sawtooth;
#X obj 81 154 tabosc4~ sawtooth2;
#X obj 47 179 tabosc4~ sawtooth3;
#X obj 109 207 *~;
#X obj 80 207 *~;
#X obj 46 206 *~;
#X obj 317 87 moses 1;
#X obj 266 162 - 1;
#X obj 266 183 abs;
#X msg 298 167 0;
#X msg 266 225 \$1 1;
#X obj 266 246 line~;
#X obj 350 161 - 1;
#X obj 350 182 abs;
#X msg 350 224 \$1 1;
#X obj 350 245 line~;
#X obj 356 134 - 1;
#X msg 398 216 \$1 1;
#X obj 398 237 line~;
#X msg 448 169 0;
#X obj 433 138 - 2;
#X obj 356 110 moses 2;
#X msg 395 156 0;
#X obj 55 61 mtof;
#X obj 55 101 line~;
#X msg 55 81 \$1 1;
#X obj 55 41 + 20;
#X obj 55 21 inlet;
#X obj 220 40 - 88;
#X obj 270 64 / 12;
#X obj 350 203 pow 0.5;
#X obj 398 195 pow 0.5;
#X obj 266 204 pow 0.5;
#X connect 1 0 4 0;
#X connect 2 0 5 0;
#X connect 3 0 6 0;
#X connect 4 0 0 0;
#X connect 5 0 0 0;
#X connect 6 0 0 0;
#X connect 7 0 8 0;
#X connect 7 0 14 0;
#X connect 7 0 20 0;
#X connect 7 1 10 0;
#X connect 7 1 22 0;
#X connect 8 0 9 0;
#X connect 9 0 33 0;
#X connect 10 0 9 0;
#X connect 11 0 12 0;
#X connect 12 0 6 1;
#X connect 13 0 14 0;
#X connect 14 0 31 0;
#X connect 15 0 16 0;
#X connect 16 0 5 1;
#X connect 17 0 13 0;
#X connect 18 0 19 0;
#X connect 19 0 4 1;
#X connect 20 0 32 0;
#X connect 22 0 17 0;
#X connect 22 0 20 0;
#X connect 22 0 32 0;
#X connect 22 1 23 0;
#X connect 22 1 21 0;
#X connect 23 0 14 0;
#X connect 24 0 26 0;
#X connect 25 0 1 0;
#X connect 25 0 2 0;
#X connect 25 0 3 0;
#X connect 26 0 25 0;
#X connect 27 0 24 0;
#X connect 27 0 29 0;
#X connect 28 0 27 0;
#X connect 29 0 30 0;
#X connect 30 0 7 0;
#X connect 31 0 15 0;
#X connect 32 0 18 0;
#X connect 33 0 11 0;
#X restore 105 250 pd bl_saw~;
#N canvas 0 50 578 533 bl_saw~ 0;
#X obj 73 407 outlet~;
#X obj 109 252 tabosc4~ sawtooth;
#X obj 81 274 tabosc4~ sawtooth2;
#X obj 47 299 tabosc4~ sawtooth3;
#X obj 109 327 *~;
#X obj 80 327 *~;
#X obj 46 326 *~;
#X obj 317 87 moses 1;
#X obj 266 162 - 1;
#X obj 266 183 abs;
#X msg 298 167 0;
#X msg 266 225 \$1 1;
#X obj 266 246 line~;
#X obj 350 161 - 1;
#X obj 350 182 abs;
#X msg 350 224 \$1 1;
#X obj 350 245 line~;
#X obj 356 134 - 1;
#X msg 418 225 \$1 1;
#X obj 418 246 line~;
#X msg 448 169 0;
#X obj 433 138 - 2;
#X obj 356 110 moses 2;
#X msg 395 156 0;
#X obj 55 61 mtof;
#X obj 55 101 line~;
#X msg 55 81 \$1 1;
#X obj 55 41 + 20;
#X obj 55 21 inlet;
#X obj 220 40 - 88;
#X obj 270 64 / 12;
#X obj 107 160 ftom~;
#X obj 107 181 +~;
#X msg 123 116 \$1 1;
#X obj 123 137 line~;
#X obj 107 202 mtof~;
#X obj 123 95 / 25.1;
#X obj 123 21 inlet;
#X obj 266 204 pow 0.5;
#X obj 350 203 pow 0.5;
#X obj 418 204 pow 0.5;
#X connect 1 0 4 0;
#X connect 2 0 5 0;
#X connect 3 0 6 0;
#X connect 4 0 0 0;
#X connect 5 0 0 0;
#X connect 6 0 0 0;
#X connect 7 0 8 0;
#X connect 7 0 14 0;
#X connect 7 0 20 0;
#X connect 7 1 10 0;
#X connect 7 1 22 0;
#X connect 8 0 9 0;
#X connect 9 0 38 0;
#X connect 10 0 9 0;
#X connect 11 0 12 0;
#X connect 12 0 6 1;
#X connect 13 0 14 0;
#X connect 14 0 39 0;
#X connect 15 0 16 0;
#X connect 16 0 5 1;
#X connect 17 0 13 0;
#X connect 18 0 19 0;
#X connect 19 0 4 1;
#X connect 20 0 40 0;
#X connect 22 0 17 0;
#X connect 22 0 20 0;
#X connect 22 0 40 0;
#X connect 22 1 23 0;
#X connect 22 1 21 0;
#X connect 23 0 14 0;
#X connect 24 0 26 0;
#X connect 25 0 31 0;
#X connect 26 0 25 0;
#X connect 27 0 24 0;
#X connect 27 0 29 0;
#X connect 28 0 27 0;
#X connect 29 0 30 0;
#X connect 30 0 7 0;
#X connect 31 0 32 0;
#X connect 32 0 35 0;
#X connect 33 0 34 0;
#X connect 34 0 32 1;
#X connect 35 0 1 0;
#X connect 35 0 3 0;
#X connect 35 0 2 0;
#X connect 36 0 33 0;
#X connect 37 0 36 0;
#X connect 38 0 11 0;
#X connect 39 0 15 0;
#X connect 40 0 18 0;
#X restore 217 255 pd bl_saw~;
#N canvas 0 50 578 533 bl_saw~ 0;
#X obj 73 407 outlet~;
#X obj 109 252 tabosc4~ sawtooth;
#X obj 81 274 tabosc4~ sawtooth2;
#X obj 47 299 tabosc4~ sawtooth3;
#X obj 109 327 *~;
#X obj 80 327 *~;
#X obj 46 326 *~;
#X obj 317 87 moses 1;
#X obj 266 162 - 1;
#X obj 266 183 abs;
#X msg 298 167 0;
#X msg 266 225 \$1 1;
#X obj 266 246 line~;
#X obj 350 161 - 1;
#X obj 350 182 abs;
#X msg 350 224 \$1 1;
#X obj 350 245 line~;
#X obj 356 134 - 1;
#X msg 398 216 \$1 1;
#X obj 398 237 line~;
#X msg 448 169 0;
#X obj 433 138 - 2;
#X obj 356 110 moses 2;
#X msg 395 156 0;
#X obj 55 61 mtof;
#X obj 55 101 line~;
#X msg 55 81 \$1 1;
#X obj 55 41 + 20;
#X obj 55 21 inlet;
#X obj 220 40 - 88;
#X obj 270 64 / 12;
#X obj 107 160 ftom~;
#X msg 123 116 \$1 1;
#X obj 123 137 line~;
#X obj 107 202 mtof~;
#X obj 123 21 inlet;
#X obj 107 181 +~;
#X obj 123 95 / -24.7;
#X obj 266 204 pow 0.5;
#X obj 350 203 pow 0.5;
#X obj 398 195 pow 0.5;
#X connect 1 0 4 0;
#X connect 2 0 5 0;
#X connect 3 0 6 0;
#X connect 4 0 0 0;
#X connect 5 0 0 0;
#X connect 6 0 0 0;
#X connect 7 0 8 0;
#X connect 7 0 14 0;
#X connect 7 0 20 0;
#X connect 7 1 10 0;
#X connect 7 1 22 0;
#X connect 8 0 9 0;
#X connect 9 0 38 0;
#X connect 10 0 9 0;
#X connect 11 0 12 0;
#X connect 12 0 6 1;
#X connect 13 0 14 0;
#X connect 14 0 39 0;
#X connect 15 0 16 0;
#X connect 16 0 5 1;
#X connect 17 0 13 0;
#X connect 18 0 19 0;
#X connect 19 0 4 1;
#X connect 20 0 40 0;
#X connect 22 0 17 0;
#X connect 22 0 20 0;
#X connect 22 0 40 0;
#X connect 22 1 23 0;
#X connect 22 1 21 0;
#X connect 23 0 14 0;
#X connect 24 0 26 0;
#X connect 25 0 31 0;
#X connect 26 0 25 0;
#X connect 27 0 24 0;
#X connect 27 0 29 0;
#X connect 28 0 27 0;
#X connect 29 0 30 0;
#X connect 30 0 7 0;
#X connect 31 0 36 0;
#X connect 32 0 33 0;
#X connect 33 0 36 1;
#X connect 34 0 1 0;
#X connect 34 0 3 0;
#X connect 34 0 2 0;
#X connect 35 0 37 0;
#X connect 36 0 34 0;
#X connect 37 0 32 0;
#X connect 38 0 11 0;
#X connect 39 0 15 0;
#X connect 40 0 18 0;
#X restore 300 255 pd bl_saw~;
#N canvas 0 50 578 533 bl_saw~ 0;
#X obj 73 407 outlet~;
#X obj 109 252 tabosc4~ sawtooth;
#X obj 81 274 tabosc4~ sawtooth2;
#X obj 47 299 tabosc4~ sawtooth3;
#X obj 109 327 *~;
#X obj 80 327 *~;
#X obj 46 326 *~;
#X obj 317 87 moses 1;
#X obj 266 162 - 1;
#X obj 266 183 abs;
#X msg 298 167 0;
#X msg 266 225 \$1 1;
#X obj 266 246 line~;
#X obj 350 161 - 1;
#X obj 350 182 abs;
#X msg 350 224 \$1 1;
#X obj 350 245 line~;
#X obj 356 134 - 1;
#X msg 398 216 \$1 1;
#X obj 398 237 line~;
#X msg 448 169 0;
#X obj 433 138 - 2;
#X obj 356 110 moses 2;
#X msg 395 156 0;
#X obj 55 61 mtof;
#X obj 55 101 line~;
#X msg 55 81 \$1 1;
#X obj 55 41 + 20;
#X obj 55 21 inlet;
#X obj 220 40 - 88;
#X obj 270 64 / 12;
#X obj 107 160 ftom~;
#X obj 107 181 +~;
#X msg 123 116 \$1 1;
#X obj 123 137 line~;
#X obj 107 202 mtof~;
#X obj 123 21 inlet;
#X obj 123 95 / 15.5;
#X obj 266 204 pow 0.5;
#X obj 350 203 pow 0.5;
#X obj 398 195 pow 0.5;
#X connect 1 0 4 0;
#X connect 2 0 5 0;
#X connect 3 0 6 0;
#X connect 4 0 0 0;
#X connect 5 0 0 0;
#X connect 6 0 0 0;
#X connect 7 0 8 0;
#X connect 7 0 14 0;
#X connect 7 0 20 0;
#X connect 7 1 10 0;
#X connect 7 1 22 0;
#X connect 8 0 9 0;
#X connect 9 0 38 0;
#X connect 10 0 9 0;
#X connect 11 0 12 0;
#X connect 12 0 6 1;
#X connect 13 0 14 0;
#X connect 14 0 39 0;
#X connect 15 0 16 0;
#X connect 16 0 5 1;
#X connect 17 0 13 0;
#X connect 18 0 19 0;
#X connect 19 0 4 1;
#X connect 20 0 40 0;
#X connect 22 0 17 0;
#X connect 22 0 20 0;
#X connect 22 0 40 0;
#X connect 22 1 23 0;
#X connect 22 1 21 0;
#X connect 23 0 14 0;
#X connect 24 0 26 0;
#X connect 25 0 31 0;
#X connect 26 0 25 0;
#X connect 27 0 24 0;
#X connect 27 0 29 0;
#X connect 28 0 27 0;
#X connect 29 0 30 0;
#X connect 30 0 7 0;
#X connect 31 0 32 0;
#X connect 32 0 35 0;
#X connect 33 0 34 0;
#X connect 34 0 32 1;
#X connect 35 0 1 0;
#X connect 35 0 3 0;
#X connect 35 0 2 0;
#X connect 36 0 37 0;
#X connect 37 0 33 0;
#X connect 38 0 11 0;
#X connect 39 0 15 0;
#X connect 40 0 18 0;
#X restore 390 255 pd bl_saw~;
#N canvas 0 50 578 533 bl_saw~ 0;
#X obj 73 407 outlet~;
#X obj 109 252 tabosc4~ sawtooth;
#X obj 81 274 tabosc4~ sawtooth2;
#X obj 47 299 tabosc4~ sawtooth3;
#X obj 109 327 *~;
#X obj 80 327 *~;
#X obj 46 326 *~;
#X obj 317 87 moses 1;
#X obj 266 162 - 1;
#X obj 266 183 abs;
#X msg 298 167 0;
#X obj 266 204 pow 2;
#X msg 266 225 \$1 1;
#X obj 266 246 line~;
#X obj 350 161 - 1;
#X obj 350 182 abs;
#X obj 350 203 pow 2;
#X msg 350 224 \$1 1;
#X obj 350 245 line~;
#X obj 356 134 - 1;
#X obj 398 195 pow 2;
#X msg 398 216 \$1 1;
#X obj 398 237 line~;
#X msg 448 169 0;
#X obj 433 138 - 2;
#X obj 356 110 moses 2;
#X msg 395 156 0;
#X obj 55 61 mtof;
#X obj 55 101 line~;
#X msg 55 81 \$1 1;
#X obj 55 41 + 20;
#X obj 55 21 inlet;
#X obj 220 40 - 88;
#X obj 270 64 / 12;
#X obj 107 160 ftom~;
#X msg 123 116 \$1 1;
#X obj 123 137 line~;
#X obj 107 202 mtof~;
#X obj 123 21 inlet;
#X obj 107 181 +~;
#X obj 123 95 / -15.34;
#X connect 1 0 4 0;
#X connect 2 0 5 0;
#X connect 3 0 6 0;
#X connect 4 0 0 0;
#X connect 5 0 0 0;
#X connect 6 0 0 0;
#X connect 7 0 8 0;
#X connect 7 0 15 0;
#X connect 7 0 23 0;
#X connect 7 1 10 0;
#X connect 7 1 25 0;
#X connect 8 0 9 0;
#X connect 9 0 11 0;
#X connect 10 0 9 0;
#X connect 11 0 12 0;
#X connect 12 0 13 0;
#X connect 13 0 6 1;
#X connect 14 0 15 0;
#X connect 15 0 16 0;
#X connect 16 0 17 0;
#X connect 17 0 18 0;
#X connect 18 0 5 1;
#X connect 19 0 14 0;
#X connect 20 0 21 0;
#X connect 21 0 22 0;
#X connect 22 0 4 1;
#X connect 23 0 20 0;
#X connect 25 0 20 0;
#X connect 25 0 19 0;
#X connect 25 0 23 0;
#X connect 25 1 26 0;
#X connect 25 1 24 0;
#X connect 26 0 15 0;
#X connect 27 0 29 0;
#X connect 28 0 34 0;
#X connect 29 0 28 0;
#X connect 30 0 27 0;
#X connect 30 0 32 0;
#X connect 31 0 30 0;
#X connect 32 0 33 0;
#X connect 33 0 7 0;
#X connect 34 0 39 0;
#X connect 35 0 36 0;
#X connect 36 0 39 1;
#X connect 37 0 1 0;
#X connect 37 0 3 0;
#X connect 37 0 2 0;
#X connect 38 0 40 0;
#X connect 39 0 37 0;
#X connect 40 0 35 0;
#X restore 473 255 pd bl_saw~;
#N canvas 0 50 578 533 bl_saw~ 0;
#X obj 73 407 outlet~;
#X obj 109 252 tabosc4~ sawtooth;
#X obj 81 274 tabosc4~ sawtooth2;
#X obj 47 299 tabosc4~ sawtooth3;
#X obj 109 327 *~;
#X obj 80 327 *~;
#X obj 46 326 *~;
#X obj 317 87 moses 1;
#X obj 266 162 - 1;
#X obj 266 183 abs;
#X msg 298 167 0;
#X msg 266 225 \$1 1;
#X obj 266 246 line~;
#X obj 350 161 - 1;
#X obj 350 182 abs;
#X msg 350 224 \$1 1;
#X obj 350 245 line~;
#X obj 356 134 - 1;
#X msg 398 216 \$1 1;
#X obj 398 237 line~;
#X msg 448 169 0;
#X obj 433 138 - 2;
#X obj 356 110 moses 2;
#X msg 395 156 0;
#X obj 55 61 mtof;
#X obj 55 101 line~;
#X msg 55 81 \$1 1;
#X obj 55 41 + 20;
#X obj 55 21 inlet;
#X obj 220 40 - 88;
#X obj 270 64 / 12;
#X obj 107 160 ftom~;
#X obj 107 181 +~;
#X msg 123 116 \$1 1;
#X obj 123 137 line~;
#X obj 107 202 mtof~;
#X obj 123 21 inlet;
#X obj 123 95 / 9.43;
#X obj 266 204 pow 0.5;
#X obj 350 203 pow 0.5;
#X obj 398 195 pow 0.5;
#X connect 1 0 4 0;
#X connect 2 0 5 0;
#X connect 3 0 6 0;
#X connect 4 0 0 0;
#X connect 5 0 0 0;
#X connect 6 0 0 0;
#X connect 7 0 8 0;
#X connect 7 0 14 0;
#X connect 7 0 20 0;
#X connect 7 1 10 0;
#X connect 7 1 22 0;
#X connect 8 0 9 0;
#X connect 9 0 38 0;
#X connect 10 0 9 0;
#X connect 11 0 12 0;
#X connect 12 0 6 1;
#X connect 13 0 14 0;
#X connect 14 0 39 0;
#X connect 15 0 16 0;
#X connect 16 0 5 1;
#X connect 17 0 13 0;
#X connect 18 0 19 0;
#X connect 19 0 4 1;
#X connect 20 0 40 0;
#X connect 22 0 17 0;
#X connect 22 0 20 0;
#X connect 22 0 40 0;
#X connect 22 1 23 0;
#X connect 22 1 21 0;
#X connect 23 0 14 0;
#X connect 24 0 26 0;
#X connect 25 0 31 0;
#X connect 26 0 25 0;
#X connect 27 0 24 0;
#X connect 27 0 29 0;
#X connect 28 0 27 0;
#X connect 29 0 30 0;
#X connect 30 0 7 0;
#X connect 31 0 32 0;
#X connect 32 0 35 0;
#X connect 33 0 34 0;
#X connect 34 0 32 1;
#X connect 35 0 1 0;
#X connect 35 0 3 0;
#X connect 35 0 2 0;
#X connect 36 0 37 0;
#X connect 37 0 33 0;
#X connect 38 0 11 0;
#X connect 39 0 15 0;
#X connect 40 0 18 0;
#X restore 552 255 pd bl_saw~;
#N canvas 0 50 578 533 bl_saw~ 0;
#X obj 73 407 outlet~;
#X obj 109 252 tabosc4~ sawtooth;
#X obj 81 274 tabosc4~ sawtooth2;
#X obj 47 299 tabosc4~ sawtooth3;
#X obj 109 327 *~;
#X obj 80 327 *~;
#X obj 46 326 *~;
#X obj 317 87 moses 1;
#X obj 266 162 - 1;
#X obj 266 183 abs;
#X msg 298 167 0;
#X msg 266 225 \$1 1;
#X obj 266 246 line~;
#X obj 350 161 - 1;
#X obj 350 182 abs;
#X msg 350 224 \$1 1;
#X obj 350 245 line~;
#X obj 356 134 - 1;
#X msg 398 216 \$1 1;
#X obj 398 237 line~;
#X msg 448 169 0;
#X obj 433 138 - 2;
#X obj 356 110 moses 2;
#X msg 395 156 0;
#X obj 55 61 mtof;
#X obj 55 101 line~;
#X msg 55 81 \$1 1;
#X obj 55 41 + 20;
#X obj 55 21 inlet;
#X obj 220 40 - 88;
#X obj 270 64 / 12;
#X obj 107 160 ftom~;
#X msg 123 116 \$1 1;
#X obj 123 137 line~;
#X obj 107 202 mtof~;
#X obj 123 21 inlet;
#X obj 107 181 +~;
#X obj 123 95 / -9.551;
#X obj 398 195 pow 0.5;
#X obj 350 203 pow 0.5;
#X obj 266 204 pow 0.5;
#X connect 1 0 4 0;
#X connect 2 0 5 0;
#X connect 3 0 6 0;
#X connect 4 0 0 0;
#X connect 5 0 0 0;
#X connect 6 0 0 0;
#X connect 7 0 8 0;
#X connect 7 0 14 0;
#X connect 7 0 20 0;
#X connect 7 1 10 0;
#X connect 7 1 22 0;
#X connect 8 0 9 0;
#X connect 9 0 40 0;
#X connect 10 0 9 0;
#X connect 11 0 12 0;
#X connect 12 0 6 1;
#X connect 13 0 14 0;
#X connect 14 0 39 0;
#X connect 15 0 16 0;
#X connect 16 0 5 1;
#X connect 17 0 13 0;
#X connect 18 0 19 0;
#X connect 19 0 4 1;
#X connect 20 0 38 0;
#X connect 22 0 17 0;
#X connect 22 0 20 0;
#X connect 22 0 38 0;
#X connect 22 1 23 0;
#X connect 22 1 21 0;
#X connect 23 0 14 0;
#X connect 24 0 26 0;
#X connect 25 0 31 0;
#X connect 26 0 25 0;
#X connect 27 0 24 0;
#X connect 27 0 29 0;
#X connect 28 0 27 0;
#X connect 29 0 30 0;
#X connect 30 0 7 0;
#X connect 31 0 36 0;
#X connect 32 0 33 0;
#X connect 33 0 36 1;
#X connect 34 0 1 0;
#X connect 34 0 3 0;
#X connect 34 0 2 0;
#X connect 35 0 37 0;
#X connect 36 0 34 0;
#X connect 37 0 32 0;
#X connect 38 0 18 0;
#X connect 39 0 15 0;
#X connect 40 0 11 0;
#X restore 635 255 pd bl_saw~;
#X connect 0 0 9 0;
#X connect 0 0 10 0;
#X connect 0 0 11 0;
#X connect 0 0 12 0;
#X connect 0 0 15 0;
#X connect 0 0 14 0;
#X connect 0 0 13 0;
#X connect 1 0 10 1;
#X connect 1 0 11 1;
#X connect 1 0 12 1;
#X connect 1 0 15 1;
#X connect 1 0 14 1;
#X connect 1 0 13 1;
#X connect 3 0 4 0;
#X connect 4 0 5 0;
#X connect 5 0 6 0;
#X connect 6 0 8 1;
#X connect 7 0 4 0;
#X connect 8 0 2 0;
#X connect 9 0 8 0;
#X connect 10 0 8 0;
#X connect 11 0 8 0;
#X connect 12 0 8 0;
#X connect 13 0 8 0;
#X connect 14 0 8 0;
#X connect 15 0 8 0;
#X restore 965 353 pd supersaw;
#N canvas 706 144 1116 495 supersaw 0;
#X obj 105 18 inlet;
#X obj 358 16 inlet;
#X obj 312 389 outlet~;
#X obj 628 11 inlet;
#X obj 628 48 tgl 15 0 empty empty empty 17 7 0 10 #fcfcfc #000000
#000000 0 1;
#X msg 628 86 \$1 1;
#X obj 628 107 line~;
#X obj 684 9 loadbang;
#X obj 312 368 *~;
#N canvas 0 50 578 533 bl_saw~ 0;
#X obj 73 287 outlet~;
#X obj 109 132 tabosc4~ sawtooth;
#X obj 81 154 tabosc4~ sawtooth2;
#X obj 47 179 tabosc4~ sawtooth3;
#X obj 109 207 *~;
#X obj 80 207 *~;
#X obj 46 206 *~;
#X obj 317 87 moses 1;
#X obj 266 162 - 1;
#X obj 266 183 abs;
#X msg 298 167 0;
#X msg 266 225 \$1 1;
#X obj 266 246 line~;
#X obj 350 161 - 1;
#X obj 350 182 abs;
#X msg 350 224 \$1 1;
#X obj 350 245 line~;
#X obj 356 134 - 1;
#X msg 398 216 \$1 1;
#X obj 398 237 line~;
#X msg 448 169 0;
#X obj 433 138 - 2;
#X obj 356 110 moses 2;
#X msg 395 156 0;
#X obj 55 61 mtof;
#X obj 55 101 line~;
#X msg 55 81 \$1 1;
#X obj 55 41 + 20;
#X obj 55 21 inlet;
#X obj 220 40 - 88;
#X obj 270 64 / 12;
#X obj 350 203 pow 0.5;
#X obj 398 195 pow 0.5;
#X obj 266 204 pow 0.5;
#X connect 1 0 4 0;
#X connect 2 0 5 0;
#X connect 3 0 6 0;
#X connect 4 0 0 0;
#X connect 5 0 0 0;
#X connect 6 0 0 0;
#X connect 7 0 8 0;
#X connect 7 0 14 0;
#X connect 7 0 20 0;
#X connect 7 1 10 0;
#X connect 7 1 22 0;
#X connect 8 0 9 0;
#X connect 9 0 33 0;
#X connect 10 0 9 0;
#X connect 11 0 12 0;
#X connect 12 0 6 1;
#X connect 13 0 14 0;
#X connect 14 0 31 0;
#X connect 15 0 16 0;
#X connect 16 0 5 1;
#X connect 17 0 13 0;
#X connect 18 0 19 0;
#X connect 19 0 4 1;
#X connect 20 0 32 0;
#X connect 22 0 17 0;
#X connect 22 0 20 0;
#X connect 22 0 32 0;
#X connect 22 1 23 0;
#X connect 22 1 21 0;
#X connect 23 0 14 0;
#X connect 24 0 26 0;
#X connect 25 0 1 0;
#X connect 25 0 2 0;
#X connect 25 0 3 0;
#X connect 26 0 25 0;
#X connect 27 0 24 0;
#X connect 27 0 29 0;
#X connect 28 0 27 0;
#X connect 29 0 30 0;
#X connect 30 0 7 0;
#X connect 31 0 15 0;
#X connect 32 0 18 0;
#X connect 33 0 11 0;
#X restore 105 250 pd bl_saw~;
#N canvas 0 50 578 533 bl_saw~ 0;
#X obj 73 407 outlet~;
#X obj 109 252 tabosc4~ sawtooth;
#X obj 81 274 tabosc4~ sawtooth2;
#X obj 47 299 tabosc4~ sawtooth3;
#X obj 109 327 *~;
#X obj 80 327 *~;
#X obj 46 326 *~;
#X obj 317 87 moses 1;
#X obj 266 162 - 1;
#X obj 266 183 abs;
#X msg 298 167 0;
#X msg 266 225 \$1 1;
#X obj 266 246 line~;
#X obj 350 161 - 1;
#X obj 350 182 abs;
#X msg 350 224 \$1 1;
#X obj 350 245 line~;
#X obj 356 134 - 1;
#X msg 418 225 \$1 1;
#X obj 418 246 line~;
#X msg 448 169 0;
#X obj 433 138 - 2;
#X obj 356 110 moses 2;
#X msg 395 156 0;
#X obj 55 61 mtof;
#X obj 55 101 line~;
#X msg 55 81 \$1 1;
#X obj 55 41 + 20;
#X obj 55 21 inlet;
#X obj 220 40 - 88;
#X obj 270 64 / 12;
#X obj 107 160 ftom~;
#X obj 107 181 +~;
#X msg 123 116 \$1 1;
#X obj 123 137 line~;
#X obj 107 202 mtof~;
#X obj 123 95 / 25.1;
#X obj 123 21 inlet;
#X obj 266 204 pow 0.5;
#X obj 350 203 pow 0.5;
#X obj 418 204 pow 0.5;
#X connect 1 0 4 0;
#X connect 2 0 5 0;
#X connect 3 0 6 0;
#X connect 4 0 0 0;
#X connect 5 0 0 0;
#X connect 6 0 0 0;
#X connect 7 0 8 0;
#X connect 7 0 14 0;
#X connect 7 0 20 0;
#X connect 7 1 10 0;
#X connect 7 1 22 0;
#X connect 8 0 9 0;
#X connect 9 0 38 0;
#X connect 10 0 9 0;
#X connect 11 0 12 0;
#X connect 12 0 6 1;
#X connect 13 0 14 0;
#X connect 14 0 39 0;
#X connect 15 0 16 0;
#X connect 16 0 5 1;
#X connect 17 0 13 0;
#X connect 18 0 19 0;
#X connect 19 0 4 1;
#X connect 20 0 40 0;
#X connect 22 0 17 0;
#X connect 22 0 20 0;
#X connect 22 0 40 0;
#X connect 22 1 23 0;
#X connect 22 1 21 0;
#X connect 23 0 14 0;
#X connect 24 0 26 0;
#X connect 25 0 31 0;
#X connect 26 0 25 0;
#X connect 27 0 24 0;
#X connect 27 0 29 0;
#X connect 28 0 27 0;
#X connect 29 0 30 0;
#X connect 30 0 7 0;
#X connect 31 0 32 0;
#X connect 32 0 35 0;
#X connect 33 0 34 0;
#X connect 34 0 32 1;
#X connect 35 0 1 0;
#X connect 35 0 3 0;
#X connect 35 0 2 0;
#X connect 36 0 33 0;
#X connect 37 0 36 0;
#X connect 38 0 11 0;
#X connect 39 0 15 0;
#X connect 40 0 18 0;
#X restore 217 255 pd bl_saw~;
#N canvas 0 50 578 533 bl_saw~ 0;
#X obj 73 407 outlet~;
#X obj 109 252 tabosc4~ sawtooth;
#X obj 81 274 tabosc4~ sawtooth2;
#X obj 47 299 tabosc4~ sawtooth3;
#X obj 109 327 *~;
#X obj 80 327 *~;
#X obj 46 326 *~;
#X obj 317 87 moses 1;
#X obj 266 162 - 1;
#X obj 266 183 abs;
#X msg 298 167 0;
#X msg 266 225 \$1 1;
#X obj 266 246 line~;
#X obj 350 161 - 1;
#X obj 350 182 abs;
#X msg 350 224 \$1 1;
#X obj 350 245 line~;
#X obj 356 134 - 1;
#X msg 398 216 \$1 1;
#X obj 398 237 line~;
#X msg 448 169 0;
#X obj 433 138 - 2;
#X obj 356 110 moses 2;
#X msg 395 156 0;
#X obj 55 61 mtof;
#X obj 55 101 line~;
#X msg 55 81 \$1 1;
#X obj 55 41 + 20;
#X obj 55 21 inlet;
#X obj 220 40 - 88;
#X obj 270 64 / 12;
#X obj 107 160 ftom~;
#X msg 123 116 \$1 1;
#X obj 123 137 line~;
#X obj 107 202 mtof~;
#X obj 123 21 inlet;
#X obj 107 181 +~;
#X obj 123 95 / -24.7;
#X obj 266 204 pow 0.5;
#X obj 350 203 pow 0.5;
#X obj 398 195 pow 0.5;
#X connect 1 0 4 0;
#X connect 2 0 5 0;
#X connect 3 0 6 0;
#X connect 4 0 0 0;
#X connect 5 0 0 0;
#X connect 6 0 0 0;
#X connect 7 0 8 0;
#X connect 7 0 14 0;
#X connect 7 0 20 0;
#X connect 7 1 10 0;
#X connect 7 1 22 0;
#X connect 8 0 9 0;
#X connect 9 0 38 0;
#X connect 10 0 9 0;
#X connect 11 0 12 0;
#X connect 12 0 6 1;
#X connect 13 0 14 0;
#X connect 14 0 39 0;
#X connect 15 0 16 0;
#X connect 16 0 5 1;
#X connect 17 0 13 0;
#X connect 18 0 19 0;
#X connect 19 0 4 1;
#X connect 20 0 40 0;
#X connect 22 0 17 0;
#X connect 22 0 20 0;
#X connect 22 0 40 0;
#X connect 22 1 23 0;
#X connect 22 1 21 0;
#X connect 23 0 14 0;
#X connect 24 0 26 0;
#X connect 25 0 31 0;
#X connect 26 0 25 0;
#X connect 27 0 24 0;
#X connect 27 0 29 0;
#X connect 28 0 27 0;
#X connect 29 0 30 0;
#X connect 30 0 7 0;
#X connect 31 0 36 0;
#X connect 32 0 33 0;
#X connect 33 0 36 1;
#X connect 34 0 1 0;
#X connect 34 0 3 0;
#X connect 34 0 2 0;
#X connect 35 0 37 0;
#X connect 36 0 34 0;
#X connect 37 0 32 0;
#X connect 38 0 11 0;
#X connect 39 0 15 0;
#X connect 40 0 18 0;
#X restore 300 255 pd bl_saw~;
#N canvas 0 50 578 533 bl_saw~ 0;
#X obj 73 407 outlet~;
#X obj 109 252 tabosc4~ sawtooth;
#X obj 81 274 tabosc4~ sawtooth2;
#X obj 47 299 tabosc4~ sawtooth3;
#X obj 109 327 *~;
#X obj 80 327 *~;
#X obj 46 326 *~;
#X obj 317 87 moses 1;
#X obj 266 162 - 1;
#X obj 266 183 abs;
#X msg 298 167 0;
#X msg 266 225 \$1 1;
#X obj 266 246 line~;
#X obj 350 161 - 1;
#X obj 350 182 abs;
#X msg 350 224 \$1 1;
#X obj 350 245 line~;
#X obj 356 134 - 1;
#X msg 398 216 \$1 1;
#X obj 398 237 line~;
#X msg 448 169 0;
#X obj 433 138 - 2;
#X obj 356 110 moses 2;
#X msg 395 156 0;
#X obj 55 61 mtof;
#X obj 55 101 line~;
#X msg 55 81 \$1 1;
#X obj 55 41 + 20;
#X obj 55 21 inlet;
#X obj 220 40 - 88;
#X obj 270 64 / 12;
#X obj 107 160 ftom~;
#X obj 107 181 +~;
#X msg 123 116 \$1 1;
#X obj 123 137 line~;
#X obj 107 202 mtof~;
#X obj 123 21 inlet;
#X obj 123 95 / 15.5;
#X obj 266 204 pow 0.5;
#X obj 350 203 pow 0.5;
#X obj 398 195 pow 0.5;
#X connect 1 0 4 0;
#X connect 2 0 5 0;
#X connect 3 0 6 0;
#X connect 4 0 0 0;
#X connect 5 0 0 0;
#X connect 6 0 0 0;
#X connect 7 0 8 0;
#X connect 7 0 14 0;
#X connect 7 0 20 0;
#X connect 7 1 10 0;
#X connect 7 1 22 0;
#X connect 8 0 9 0;
#X connect 9 0 38 0;
#X connect 10 0 9 0;
#X connect 11 0 12 0;
#X connect 12 0 6 1;
#X connect 13 0 14 0;
#X connect 14 0 39 0;
#X connect 15 0 16 0;
#X connect 16 0 5 1;
#X connect 17 0 13 0;
#X connect 18 0 19 0;
#X connect 19 0 4 1;
#X connect 20 0 40 0;
#X connect 22 0 17 0;
#X connect 22 0 20 0;
#X connect 22 0 40 0;
#X connect 22 1 23 0;
#X connect 22 1 21 0;
#X connect 23 0 14 0;
#X connect 24 0 26 0;
#X connect 25 0 31 0;
#X connect 26 0 25 0;
#X connect 27 0 24 0;
#X connect 27 0 29 0;
#X connect 28 0 27 0;
#X connect 29 0 30 0;
#X connect 30 0 7 0;
#X connect 31 0 32 0;
#X connect 32 0 35 0;
#X connect 33 0 34 0;
#X connect 34 0 32 1;
#X connect 35 0 1 0;
#X connect 35 0 3 0;
#X connect 35 0 2 0;
#X connect 36 0 37 0;
#X connect 37 0 33 0;
#X connect 38 0 11 0;
#X connect 39 0 15 0;
#X connect 40 0 18 0;
#X restore 390 255 pd bl_saw~;
#N canvas 0 50 578 533 bl_saw~ 0;
#X obj 73 407 outlet~;
#X obj 109 252 tabosc4~ sawtooth;
#X obj 81 274 tabosc4~ sawtooth2;
#X obj 47 299 tabosc4~ sawtooth3;
#X obj 109 327 *~;
#X obj 80 327 *~;
#X obj 46 326 *~;
#X obj 317 87 moses 1;
#X obj 266 162 - 1;
#X obj 266 183 abs;
#X msg 298 167 0;
#X obj 266 204 pow 2;
#X msg 266 225 \$1 1;
#X obj 266 246 line~;
#X obj 350 161 - 1;
#X obj 350 182 abs;
#X obj 350 203 pow 2;
#X msg 350 224 \$1 1;
#X obj 350 245 line~;
#X obj 356 134 - 1;
#X obj 398 195 pow 2;
#X msg 398 216 \$1 1;
#X obj 398 237 line~;
#X msg 448 169 0;
#X obj 433 138 - 2;
#X obj 356 110 moses 2;
#X msg 395 156 0;
#X obj 55 61 mtof;
#X obj 55 101 line~;
#X msg 55 81 \$1 1;
#X obj 55 41 + 20;
#X obj 55 21 inlet;
#X obj 220 40 - 88;
#X obj 270 64 / 12;
#X obj 107 160 ftom~;
#X msg 123 116 \$1 1;
#X obj 123 137 line~;
#X obj 107 202 mtof~;
#X obj 123 21 inlet;
#X obj 107 181 +~;
#X obj 123 95 / -15.34;
#X connect 1 0 4 0;
#X connect 2 0 5 0;
#X connect 3 0 6 0;
#X connect 4 0 0 0;
#X connect 5 0 0 0;
#X connect 6 0 0 0;
#X connect 7 0 8 0;
#X connect 7 0 15 0;
#X connect 7 0 23 0;
#X connect 7 1 10 0;
#X connect 7 1 25 0;
#X connect 8 0 9 0;
#X connect 9 0 11 0;
#X connect 10 0 9 0;
#X connect 11 0 12 0;
#X connect 12 0 13 0;
#X connect 13 0 6 1;
#X connect 14 0 15 0;
#X connect 15 0 16 0;
#X connect 16 0 17 0;
#X connect 17 0 18 0;
#X connect 18 0 5 1;
#X connect 19 0 14 0;
#X connect 20 0 21 0;
#X connect 21 0 22 0;
#X connect 22 0 4 1;
#X connect 23 0 20 0;
#X connect 25 0 20 0;
#X connect 25 0 19 0;
#X connect 25 0 23 0;
#X connect 25 1 26 0;
#X connect 25 1 24 0;
#X connect 26 0 15 0;
#X connect 27 0 29 0;
#X connect 28 0 34 0;
#X connect 29 0 28 0;
#X connect 30 0 27 0;
#X connect 30 0 32 0;
#X connect 31 0 30 0;
#X connect 32 0 33 0;
#X connect 33 0 7 0;
#X connect 34 0 39 0;
#X connect 35 0 36 0;
#X connect 36 0 39 1;
#X connect 37 0 1 0;
#X connect 37 0 3 0;
#X connect 37 0 2 0;
#X connect 38 0 40 0;
#X connect 39 0 37 0;
#X connect 40 0 35 0;
#X restore 473 255 pd bl_saw~;
#N canvas 0 50 578 533 bl_saw~ 0;
#X obj 73 407 outlet~;
#X obj 109 252 tabosc4~ sawtooth;
#X obj 81 274 tabosc4~ sawtooth2;
#X obj 47 299 tabosc4~ sawtooth3;
#X obj 109 327 *~;
#X obj 80 327 *~;
#X obj 46 326 *~;
#X obj 317 87 moses 1;
#X obj 266 162 - 1;
#X obj 266 183 abs;
#X msg 298 167 0;
#X msg 266 225 \$1 1;
#X obj 266 246 line~;
#X obj 350 161 - 1;
#X obj 350 182 abs;
#X msg 350 224 \$1 1;
#X obj 350 245 line~;
#X obj 356 134 - 1;
#X msg 398 216 \$1 1;
#X obj 398 237 line~;
#X msg 448 169 0;
#X obj 433 138 - 2;
#X obj 356 110 moses 2;
#X msg 395 156 0;
#X obj 55 61 mtof;
#X obj 55 101 line~;
#X msg 55 81 \$1 1;
#X obj 55 41 + 20;
#X obj 55 21 inlet;
#X obj 220 40 - 88;
#X obj 270 64 / 12;
#X obj 107 160 ftom~;
#X obj 107 181 +~;
#X msg 123 116 \$1 1;
#X obj 123 137 line~;
#X obj 107 202 mtof~;
#X obj 123 21 inlet;
#X obj 123 95 / 9.43;
#X obj 266 204 pow 0.5;
#X obj 350 203 pow 0.5;
#X obj 398 195 pow 0.5;
#X connect 1 0 4 0;
#X connect 2 0 5 0;
#X connect 3 0 6 0;
#X connect 4 0 0 0;
#X connect 5 0 0 0;
#X connect 6 0 0 0;
#X connect 7 0 8 0;
#X connect 7 0 14 0;
#X connect 7 0 20 0;
#X connect 7 1 10 0;
#X connect 7 1 22 0;
#X connect 8 0 9 0;
#X connect 9 0 38 0;
#X connect 10 0 9 0;
#X connect 11 0 12 0;
#X connect 12 0 6 1;
#X connect 13 0 14 0;
#X connect 14 0 39 0;
#X connect 15 0 16 0;
#X connect 16 0 5 1;
#X connect 17 0 13 0;
#X connect 18 0 19 0;
#X connect 19 0 4 1;
#X connect 20 0 40 0;
#X connect 22 0 17 0;
#X connect 22 0 20 0;
#X connect 22 0 40 0;
#X connect 22 1 23 0;
#X connect 22 1 21 0;
#X connect 23 0 14 0;
#X connect 24 0 26 0;
#X connect 25 0 31 0;
#X connect 26 0 25 0;
#X connect 27 0 24 0;
#X connect 27 0 29 0;
#X connect 28 0 27 0;
#X connect 29 0 30 0;
#X connect 30 0 7 0;
#X connect 31 0 32 0;
#X connect 32 0 35 0;
#X connect 33 0 34 0;
#X connect 34 0 32 1;
#X connect 35 0 1 0;
#X connect 35 0 3 0;
#X connect 35 0 2 0;
#X connect 36 0 37 0;
#X connect 37 0 33 0;
#X connect 38 0 11 0;
#X connect 39 0 15 0;
#X connect 40 0 18 0;
#X restore 552 255 pd bl_saw~;
#N canvas 0 50 578 533 bl_saw~ 0;
#X obj 73 407 outlet~;
#X obj 109 252 tabosc4~ sawtooth;
#X obj 81 274 tabosc4~ sawtooth2;
#X obj 47 299 tabosc4~ sawtooth3;
#X obj 109 327 *~;
#X obj 80 327 *~;
#X obj 46 326 *~;
#X obj 317 87 moses 1;
#X obj 266 162 - 1;
#X obj 266 183 abs;
#X msg 298 167 0;
#X msg 266 225 \$1 1;
#X obj 266 246 line~;
#X obj 350 161 - 1;
#X obj 350 182 abs;
#X msg 350 224 \$1 1;
#X obj 350 245 line~;
#X obj 356 134 - 1;
#X msg 398 216 \$1 1;
#X obj 398 237 line~;
#X msg 448 169 0;
#X obj 433 138 - 2;
#X obj 356 110 moses 2;
#X msg 395 156 0;
#X obj 55 61 mtof;
#X obj 55 101 line~;
#X msg 55 81 \$1 1;
#X obj 55 41 + 20;
#X obj 55 21 inlet;
#X obj 220 40 - 88;
#X obj 270 64 / 12;
#X obj 107 160 ftom~;
#X msg 123 116 \$1 1;
#X obj 123 137 line~;
#X obj 107 202 mtof~;
#X obj 123 21 inlet;
#X obj 107 181 +~;
#X obj 123 95 / -9.551;
#X obj 398 195 pow 0.5;
#X obj 350 203 pow 0.5;
#X obj 266 204 pow 0.5;
#X connect 1 0 4 0;
#X connect 2 0 5 0;
#X connect 3 0 6 0;
#X connect 4 0 0 0;
#X connect 5 0 0 0;
#X connect 6 0 0 0;
#X connect 7 0 8 0;
#X connect 7 0 14 0;
#X connect 7 0 20 0;
#X connect 7 1 10 0;
#X connect 7 1 22 0;
#X connect 8 0 9 0;
#X connect 9 0 40 0;
#X connect 10 0 9 0;
#X connect 11 0 12 0;
#X connect 12 0 6 1;
#X connect 13 0 14 0;
#X connect 14 0 39 0;
#X connect 15 0 16 0;
#X connect 16 0 5 1;
#X connect 17 0 13 0;
#X connect 18 0 19 0;
#X connect 19 0 4 1;
#X connect 20 0 38 0;
#X connect 22 0 17 0;
#X connect 22 0 20 0;
#X connect 22 0 38 0;
#X connect 22 1 23 0;
#X connect 22 1 21 0;
#X connect 23 0 14 0;
#X connect 24 0 26 0;
#X connect 25 0 31 0;
#X connect 26 0 25 0;
#X connect 27 0 24 0;
#X connect 27 0 29 0;
#X connect 28 0 27 0;
#X connect 29 0 30 0;
#X connect 30 0 7 0;
#X connect 31 0 36 0;
#X connect 32 0 33 0;
#X connect 33 0 36 1;
#X connect 34 0 1 0;
#X connect 34 0 3 0;
#X connect 34 0 2 0;
#X connect 35 0 37 0;
#X connect 36 0 34 0;
#X connect 37 0 32 0;
#X connect 38 0 18 0;
#X connect 39 0 15 0;
#X connect 40 0 11 0;
#X restore 635 255 pd bl_saw~;
#X connect 0 0 9 0;
#X connect 0 0 10 0;
#X connect 0 0 11 0;
#X connect 0 0 12 0;
#X connect 0 0 15 0;
#X connect 0 0 14 0;
#X connect 0 0 13 0;
#X connect 1 0 10 1;
#X connect 1 0 11 1;
#X connect 1 0 12 1;
#X connect 1 0 15 1;
#X connect 1 0 14 1;
#X connect 1 0 13 1;
#X connect 3 0 4 0;
#X connect 4 0 5 0;
#X connect 5 0 6 0;
#X connect 6 0 8 1;
#X connect 7 0 4 0;
#X connect 8 0 2 0;
#X connect 9 0 8 0;
#X connect 10 0 8 0;
#X connect 11 0 8 0;
#X connect 12 0 8 0;
#X connect 13 0 8 0;
#X connect 14 0 8 0;
#X connect 15 0 8 0;
#X restore 1140 481 pd supersaw;
#N canvas 706 144 1116 495 supersaw 0;
#X obj 105 18 inlet;
#X obj 358 16 inlet;
#X obj 312 389 outlet~;
#X obj 628 11 inlet;
#X obj 628 48 tgl 15 0 empty empty empty 17 7 0 10 #fcfcfc #000000
#000000 0 1;
#X msg 628 86 \$1 1;
#X obj 628 107 line~;
#X obj 684 9 loadbang;
#X obj 312 368 *~;
#N canvas 0 50 578 533 bl_saw~ 0;
#X obj 73 287 outlet~;
#X obj 109 132 tabosc4~ sawtooth;
#X obj 81 154 tabosc4~ sawtooth2;
#X obj 47 179 tabosc4~ sawtooth3;
#X obj 109 207 *~;
#X obj 80 207 *~;
#X obj 46 206 *~;
#X obj 317 87 moses 1;
#X obj 266 162 - 1;
#X obj 266 183 abs;
#X msg 298 167 0;
#X msg 266 225 \$1 1;
#X obj 266 246 line~;
#X obj 350 161 - 1;
#X obj 350 182 abs;
#X msg 350 224 \$1 1;
#X obj 350 245 line~;
#X obj 356 134 - 1;
#X msg 398 216 \$1 1;
#X obj 398 237 line~;
#X msg 448 169 0;
#X obj 433 138 - 2;
#X obj 356 110 moses 2;
#X msg 395 156 0;
#X obj 55 61 mtof;
#X obj 55 101 line~;
#X msg 55 81 \$1 1;
#X obj 55 41 + 20;
#X obj 55 21 inlet;
#X obj 220 40 - 88;
#X obj 270 64 / 12;
#X obj 350 203 pow 0.5;
#X obj 398 195 pow 0.5;
#X obj 266 204 pow 0.5;
#X connect 1 0 4 0;
#X connect 2 0 5 0;
#X connect 3 0 6 0;
#X connect 4 0 0 0;
#X connect 5 0 0 0;
#X connect 6 0 0 0;
#X connect 7 0 8 0;
#X connect 7 0 14 0;
#X connect 7 0 20 0;
#X connect 7 1 10 0;
#X connect 7 1 22 0;
#X connect 8 0 9 0;
#X connect 9 0 33 0;
#X connect 10 0 9 0;
#X connect 11 0 12 0;
#X connect 12 0 6 1;
#X connect 13 0 14 0;
#X connect 14 0 31 0;
#X connect 15 0 16 0;
#X connect 16 0 5 1;
#X connect 17 0 13 0;
#X connect 18 0 19 0;
#X connect 19 0 4 1;
#X connect 20 0 32 0;
#X connect 22 0 17 0;
#X connect 22 0 20 0;
#X connect 22 0 32 0;
#X connect 22 1 23 0;
#X connect 22 1 21 0;
#X connect 23 0 14 0;
#X connect 24 0 26 0;
#X connect 25 0 1 0;
#X connect 25 0 2 0;
#X connect 25 0 3 0;
#X connect 26 0 25 0;
#X connect 27 0 24 0;
#X connect 27 0 29 0;
#X connect 28 0 27 0;
#X connect 29 0 30 0;
#X connect 30 0 7 0;
#X connect 31 0 15 0;
#X connect 32 0 18 0;
#X connect 33 0 11 0;
#X restore 105 250 pd bl_saw~;
#N canvas 0 50 578 533 bl_saw~ 0;
#X obj 73 407 outlet~;
#X obj 109 252 tabosc4~ sawtooth;
#X obj 81 274 tabosc4~ sawtooth2;
#X obj 47 299 tabosc4~ sawtooth3;
#X obj 109 327 *~;
#X obj 80 327 *~;
#X obj 46 326 *~;
#X obj 317 87 moses 1;
#X obj 266 162 - 1;
#X obj 266 183 abs;
#X msg 298 167 0;
#X msg 266 225 \$1 1;
#X obj 266 246 line~;
#X obj 350 161 - 1;
#X obj 350 182 abs;
#X msg 350 224 \$1 1;
#X obj 350 245 line~;
#X obj 356 134 - 1;
#X msg 418 225 \$1 1;
#X obj 418 246 line~;
#X msg 448 169 0;
#X obj 433 138 - 2;
#X obj 356 110 moses 2;
#X msg 395 156 0;
#X obj 55 61 mtof;
#X obj 55 101 line~;
#X msg 55 81 \$1 1;
#X obj 55 41 + 20;
#X obj 55 21 inlet;
#X obj 220 40 - 88;
#X obj 270 64 / 12;
#X obj 107 160 ftom~;
#X obj 107 181 +~;
#X msg 123 116 \$1 1;
#X obj 123 137 line~;
#X obj 107 202 mtof~;
#X obj 123 95 / 25.1;
#X obj 123 21 inlet;
#X obj 266 204 pow 0.5;
#X obj 350 203 pow 0.5;
#X obj 418 204 pow 0.5;
#X connect 1 0 4 0;
#X connect 2 0 5 0;
#X connect 3 0 6 0;
#X connect 4 0 0 0;
#X connect 5 0 0 0;
#X connect 6 0 0 0;
#X connect 7 0 8 0;
#X connect 7 0 14 0;
#X connect 7 0 20 0;
#X connect 7 1 10 0;
#X connect 7 1 22 0;
#X connect 8 0 9 0;
#X connect 9 0 38 0;
#X connect 10 0 9 0;
#X connect 11 0 12 0;
#X connect 12 0 6 1;
#X connect 13 0 14 0;
#X connect 14 0 39 0;
#X connect 15 0 16 0;
#X connect 16 0 5 1;
#X connect 17 0 13 0;
#X connect 18 0 19 0;
#X connect 19 0 4 1;
#X connect 20 0 40 0;
#X connect 22 0 17 0;
#X connect 22 0 20 0;
#X connect 22 0 40 0;
#X connect 22 1 23 0;
#X connect 22 1 21 0;
#X connect 23 0 14 0;
#X connect 24 0 26 0;
#X connect 25 0 31 0;
#X connect 26 0 25 0;
#X connect 27 0 24 0;
#X connect 27 0 29 0;
#X connect 28 0 27 0;
#X connect 29 0 30 0;
#X connect 30 0 7 0;
#X connect 31 0 32 0;
#X connect 32 0 35 0;
#X connect 33 0 34 0;
#X connect 34 0 32 1;
#X connect 35 0 1 0;
#X connect 35 0 3 0;
#X connect 35 0 2 0;
#X connect 36 0 33 0;
#X connect 37 0 36 0;
#X connect 38 0 11 0;
#X connect 39 0 15 0;
#X connect 40 0 18 0;
#X restore 217 255 pd bl_saw~;
#N canvas 0 50 578 533 bl_saw~ 0;
#X obj 73 407 outlet~;
#X obj 109 252 tabosc4~ sawtooth;
#X obj 81 274 tabosc4~ sawtooth2;
#X obj 47 299 tabosc4~ sawtooth3;
#X obj 109 327 *~;
#X obj 80 327 *~;
#X obj 46 326 *~;
#X obj 317 87 moses 1;
#X obj 266 162 - 1;
#X obj 266 183 abs;
#X msg 298 167 0;
#X msg 266 225 \$1 1;
#X obj 266 246 line~;
#X obj 350 161 - 1;
#X obj 350 182 abs;
#X msg 350 224 \$1 1;
#X obj 350 245 line~;
#X obj 356 134 - 1;
#X msg 398 216 \$1 1;
#X obj 398 237 line~;
#X msg 448 169 0;
#X obj 433 138 - 2;
#X obj 356 110 moses 2;
#X msg 395 156 0;
#X obj 55 61 mtof;
#X obj 55 101 line~;
#X msg 55 81 \$1 1;
#X obj 55 41 + 20;
#X obj 55 21 inlet;
#X obj 220 40 - 88;
#X obj 270 64 / 12;
#X obj 107 160 ftom~;
#X msg 123 116 \$1 1;
#X obj 123 137 line~;
#X obj 107 202 mtof~;
#X obj 123 21 inlet;
#X obj 107 181 +~;
#X obj 123 95 / -24.7;
#X obj 266 204 pow 0.5;
#X obj 350 203 pow 0.5;
#X obj 398 195 pow 0.5;
#X connect 1 0 4 0;
#X connect 2 0 5 0;
#X connect 3 0 6 0;
#X connect 4 0 0 0;
#X connect 5 0 0 0;
#X connect 6 0 0 0;
#X connect 7 0 8 0;
#X connect 7 0 14 0;
#X connect 7 0 20 0;
#X connect 7 1 10 0;
#X connect 7 1 22 0;
#X connect 8 0 9 0;
#X connect 9 0 38 0;
#X connect 10 0 9 0;
#X connect 11 0 12 0;
#X connect 12 0 6 1;
#X connect 13 0 14 0;
#X connect 14 0 39 0;
#X connect 15 0 16 0;
#X connect 16 0 5 1;
#X connect 17 0 13 0;
#X connect 18 0 19 0;
#X connect 19 0 4 1;
#X connect 20 0 40 0;
#X connect 22 0 17 0;
#X connect 22 0 20 0;
#X connect 22 0 40 0;
#X connect 22 1 23 0;
#X connect 22 1 21 0;
#X connect 23 0 14 0;
#X connect 24 0 26 0;
#X connect 25 0 31 0;
#X connect 26 0 25 0;
#X connect 27 0 24 0;
#X connect 27 0 29 0;
#X connect 28 0 27 0;
#X connect 29 0 30 0;
#X connect 30 0 7 0;
#X connect 31 0 36 0;
#X connect 32 0 33 0;
#X connect 33 0 36 1;
#X connect 34 0 1 0;
#X connect 34 0 3 0;
#X connect 34 0 2 0;
#X connect 35 0 37 0;
#X connect 36 0 34 0;
#X connect 37 0 32 0;
#X connect 38 0 11 0;
#X connect 39 0 15 0;
#X connect 40 0 18 0;
#X restore 300 255 pd bl_saw~;
#N canvas 0 50 578 533 bl_saw~ 0;
#X obj 73 407 outlet~;
#X obj 109 252 tabosc4~ sawtooth;
#X obj 81 274 tabosc4~ sawtooth2;
#X obj 47 299 tabosc4~ sawtooth3;
#X obj 109 327 *~;
#X obj 80 327 *~;
#X obj 46 326 *~;
#X obj 317 87 moses 1;
#X obj 266 162 - 1;
#X obj 266 183 abs;
#X msg 298 167 0;
#X msg 266 225 \$1 1;
#X obj 266 246 line~;
#X obj 350 161 - 1;
#X obj 350 182 abs;
#X msg 350 224 \$1 1;
#X obj 350 245 line~;
#X obj 356 134 - 1;
#X msg 398 216 \$1 1;
#X obj 398 237 line~;
#X msg 448 169 0;
#X obj 433 138 - 2;
#X obj 356 110 moses 2;
#X msg 395 156 0;
#X obj 55 61 mtof;
#X obj 55 101 line~;
#X msg 55 81 \$1 1;
#X obj 55 41 + 20;
#X obj 55 21 inlet;
#X obj 220 40 - 88;
#X obj 270 64 / 12;
#X obj 107 160 ftom~;
#X obj 107 181 +~;
#X msg 123 116 \$1 1;
#X obj 123 137 line~;
#X obj 107 202 mtof~;
#X obj 123 21 inlet;
#X obj 123 95 / 15.5;
#X obj 266 204 pow 0.5;
#X obj 350 203 pow 0.5;
#X obj 398 195 pow 0.5;
#X connect 1 0 4 0;
#X connect 2 0 5 0;
#X connect 3 0 6 0;
#X connect 4 0 0 0;
#X connect 5 0 0 0;
#X connect 6 0 0 0;
#X connect 7 0 8 0;
#X connect 7 0 14 0;
#X connect 7 0 20 0;
#X connect 7 1 10 0;
#X connect 7 1 22 0;
#X connect 8 0 9 0;
#X connect 9 0 38 0;
#X connect 10 0 9 0;
#X connect 11 0 12 0;
#X connect 12 0 6 1;
#X connect 13 0 14 0;
#X connect 14 0 39 0;
#X connect 15 0 16 0;
#X connect 16 0 5 1;
#X connect 17 0 13 0;
#X connect 18 0 19 0;
#X connect 19 0 4 1;
#X connect 20 0 40 0;
#X connect 22 0 17 0;
#X connect 22 0 20 0;
#X connect 22 0 40 0;
#X connect 22 1 23 0;
#X connect 22 1 21 0;
#X connect 23 0 14 0;
#X connect 24 0 26 0;
#X connect 25 0 31 0;
#X connect 26 0 25 0;
#X connect 27 0 24 0;
#X connect 27 0 29 0;
#X connect 28 0 27 0;
#X connect 29 0 30 0;
#X connect 30 0 7 0;
#X connect 31 0 32 0;
#X connect 32 0 35 0;
#X connect 33 0 34 0;
#X connect 34 0 32 1;
#X connect 35 0 1 0;
#X connect 35 0 3 0;
#X connect 35 0 2 0;
#X connect 36 0 37 0;
#X connect 37 0 33 0;
#X connect 38 0 11 0;
#X connect 39 0 15 0;
#X connect 40 0 18 0;
#X restore 390 255 pd bl_saw~;
#N canvas 0 50 578 533 bl_saw~ 0;
#X obj 73 407 outlet~;
#X obj 109 252 tabosc4~ sawtooth;
#X obj 81 274 tabosc4~ sawtooth2;
#X obj 47 299 tabosc4~ sawtooth3;
#X obj 109 327 *~;
#X obj 80 327 *~;
#X obj 46 326 *~;
#X obj 317 87 moses 1;
#X obj 266 162 - 1;
#X obj 266 183 abs;
#X msg 298 167 0;
#X obj 266 204 pow 2;
#X msg 266 225 \$1 1;
#X obj 266 246 line~;
#X obj 350 161 - 1;
#X obj 350 182 abs;
#X obj 350 203 pow 2;
#X msg 350 224 \$1 1;
#X obj 350 245 line~;
#X obj 356 134 - 1;
#X obj 398 195 pow 2;
#X msg 398 216 \$1 1;
#X obj 398 237 line~;
#X msg 448 169 0;
#X obj 433 138 - 2;
#X obj 356 110 moses 2;
#X msg 395 156 0;
#X obj 55 61 mtof;
#X obj 55 101 line~;
#X msg 55 81 \$1 1;
#X obj 55 41 + 20;
#X obj 55 21 inlet;
#X obj 220 40 - 88;
#X obj 270 64 / 12;
#X obj 107 160 ftom~;
#X msg 123 116 \$1 1;
#X obj 123 137 line~;
#X obj 107 202 mtof~;
#X obj 123 21 inlet;
#X obj 107 181 +~;
#X obj 123 95 / -15.34;
#X connect 1 0 4 0;
#X connect 2 0 5 0;
#X connect 3 0 6 0;
#X connect 4 0 0 0;
#X connect 5 0 0 0;
#X connect 6 0 0 0;
#X connect 7 0 8 0;
#X connect 7 0 15 0;
#X connect 7 0 23 0;
#X connect 7 1 10 0;
#X connect 7 1 25 0;
#X connect 8 0 9 0;
#X connect 9 0 11 0;
#X connect 10 0 9 0;
#X connect 11 0 12 0;
#X connect 12 0 13 0;
#X connect 13 0 6 1;
#X connect 14 0 15 0;
#X connect 15 0 16 0;
#X connect 16 0 17 0;
#X connect 17 0 18 0;
#X connect 18 0 5 1;
#X connect 19 0 14 0;
#X connect 20 0 21 0;
#X connect 21 0 22 0;
#X connect 22 0 4 1;
#X connect 23 0 20 0;
#X connect 25 0 20 0;
#X connect 25 0 19 0;
#X connect 25 0 23 0;
#X connect 25 1 26 0;
#X connect 25 1 24 0;
#X connect 26 0 15 0;
#X connect 27 0 29 0;
#X connect 28 0 34 0;
#X connect 29 0 28 0;
#X connect 30 0 27 0;
#X connect 30 0 32 0;
#X connect 31 0 30 0;
#X connect 32 0 33 0;
#X connect 33 0 7 0;
#X connect 34 0 39 0;
#X connect 35 0 36 0;
#X connect 36 0 39 1;
#X connect 37 0 1 0;
#X connect 37 0 3 0;
#X connect 37 0 2 0;
#X connect 38 0 40 0;
#X connect 39 0 37 0;
#X connect 40 0 35 0;
#X restore 473 255 pd bl_saw~;
#N canvas 0 50 578 533 bl_saw~ 0;
#X obj 73 407 outlet~;
#X obj 109 252 tabosc4~ sawtooth;
#X obj 81 274 tabosc4~ sawtooth2;
#X obj 47 299 tabosc4~ sawtooth3;
#X obj 109 327 *~;
#X obj 80 327 *~;
#X obj 46 326 *~;
#X obj 317 87 moses 1;
#X obj 266 162 - 1;
#X obj 266 183 abs;
#X msg 298 167 0;
#X msg 266 225 \$1 1;
#X obj 266 246 line~;
#X obj 350 161 - 1;
#X obj 350 182 abs;
#X msg 350 224 \$1 1;
#X obj 350 245 line~;
#X obj 356 134 - 1;
#X msg 398 216 \$1 1;
#X obj 398 237 line~;
#X msg 448 169 0;
#X obj 433 138 - 2;
#X obj 356 110 moses 2;
#X msg 395 156 0;
#X obj 55 61 mtof;
#X obj 55 101 line~;
#X msg 55 81 \$1 1;
#X obj 55 41 + 20;
#X obj 55 21 inlet;
#X obj 220 40 - 88;
#X obj 270 64 / 12;
#X obj 107 160 ftom~;
#X obj 107 181 +~;
#X msg 123 116 \$1 1;
#X obj 123 137 line~;
#X obj 107 202 mtof~;
#X obj 123 21 inlet;
#X obj 123 95 / 9.43;
#X obj 266 204 pow 0.5;
#X obj 350 203 pow 0.5;
#X obj 398 195 pow 0.5;
#X connect 1 0 4 0;
#X connect 2 0 5 0;
#X connect 3 0 6 0;
#X connect 4 0 0 0;
#X connect 5 0 0 0;
#X connect 6 0 0 0;
#X connect 7 0 8 0;
#X connect 7 0 14 0;
#X connect 7 0 20 0;
#X connect 7 1 10 0;
#X connect 7 1 22 0;
#X connect 8 0 9 0;
#X connect 9 0 38 0;
#X connect 10 0 9 0;
#X connect 11 0 12 0;
#X connect 12 0 6 1;
#X connect 13 0 14 0;
#X connect 14 0 39 0;
#X connect 15 0 16 0;
#X connect 16 0 5 1;
#X connect 17 0 13 0;
#X connect 18 0 19 0;
#X connect 19 0 4 1;
#X connect 20 0 40 0;
#X connect 22 0 17 0;
#X connect 22 0 20 0;
#X connect 22 0 40 0;
#X connect 22 1 23 0;
#X connect 22 1 21 0;
#X connect 23 0 14 0;
#X connect 24 0 26 0;
#X connect 25 0 31 0;
#X connect 26 0 25 0;
#X connect 27 0 24 0;
#X connect 27 0 29 0;
#X connect 28 0 27 0;
#X connect 29 0 30 0;
#X connect 30 0 7 0;
#X connect 31 0 32 0;
#X connect 32 0 35 0;
#X connect 33 0 34 0;
#X connect 34 0 32 1;
#X connect 35 0 1 0;
#X connect 35 0 3 0;
#X connect 35 0 2 0;
#X connect 36 0 37 0;
#X connect 37 0 33 0;
#X connect 38 0 11 0;
#X connect 39 0 15 0;
#X connect 40 0 18 0;
#X restore 552 255 pd bl_saw~;
#N canvas 0 50 578 533 bl_saw~ 0;
#X obj 73 407 outlet~;
#X obj 109 252 tabosc4~ sawtooth;
#X obj 81 274 tabosc4~ sawtooth2;
#X obj 47 299 tabosc4~ sawtooth3;
#X obj 109 327 *~;
#X obj 80 327 *~;
#X obj 46 326 *~;
#X obj 317 87 moses 1;
#X obj 266 162 - 1;
#X obj 266 183 abs;
#X msg 298 167 0;
#X msg 266 225 \$1 1;
#X obj 266 246 line~;
#X obj 350 161 - 1;
#X obj 350 182 abs;
#X msg 350 224 \$1 1;
#X obj 350 245 line~;
#X obj 356 134 - 1;
#X msg 398 216 \$1 1;
#X obj 398 237 line~;
#X msg 448 169 0;
#X obj 433 138 - 2;
#X obj 356 110 moses 2;
#X msg 395 156 0;
#X obj 55 61 mtof;
#X obj 55 101 line~;
#X msg 55 81 \$1 1;
#X obj 55 41 + 20;
#X obj 55 21 inlet;
#X obj 220 40 - 88;
#X obj 270 64 / 12;
#X obj 107 160 ftom~;
#X msg 123 116 \$1 1;
#X obj 123 137 line~;
#X obj 107 202 mtof~;
#X obj 123 21 inlet;
#X obj 107 181 +~;
#X obj 123 95 / -9.551;
#X obj 398 195 pow 0.5;
#X obj 350 203 pow 0.5;
#X obj 266 204 pow 0.5;
#X connect 1 0 4 0;
#X connect 2 0 5 0;
#X connect 3 0 6 0;
#X connect 4 0 0 0;
#X connect 5 0 0 0;
#X connect 6 0 0 0;
#X connect 7 0 8 0;
#X connect 7 0 14 0;
#X connect 7 0 20 0;
#X connect 7 1 10 0;
#X connect 7 1 22 0;
#X connect 8 0 9 0;
#X connect 9 0 40 0;
#X connect 10 0 9 0;
#X connect 11 0 12 0;
#X connect 12 0 6 1;
#X connect 13 0 14 0;
#X connect 14 0 39 0;
#X connect 15 0 16 0;
#X connect 16 0 5 1;
#X connect 17 0 13 0;
#X connect 18 0 19 0;
#X connect 19 0 4 1;
#X connect 20 0 38 0;
#X connect 22 0 17 0;
#X connect 22 0 20 0;
#X connect 22 0 38 0;
#X connect 22 1 23 0;
#X connect 22 1 21 0;
#X connect 23 0 14 0;
#X connect 24 0 26 0;
#X connect 25 0 31 0;
#X connect 26 0 25 0;
#X connect 27 0 24 0;
#X connect 27 0 29 0;
#X connect 28 0 27 0;
#X connect 29 0 30 0;
#X connect 30 0 7 0;
#X connect 31 0 36 0;
#X connect 32 0 33 0;
#X connect 33 0 36 1;
#X connect 34 0 1 0;
#X connect 34 0 3 0;
#X connect 34 0 2 0;
#X connect 35 0 37 0;
#X connect 36 0 34 0;
#X connect 37 0 32 0;
#X connect 38 0 18 0;
#X connect 39 0 15 0;
#X connect 40 0 11 0;
#X restore 635 255 pd bl_saw~;
#X connect 0 0 9 0;
#X connect 0 0 10 0;
#X connect 0 0 11 0;
#X connect 0 0 12 0;
#X connect 0 0 15 0;
#X connect 0 0 14 0;
#X connect 0 0 13 0;
#X connect 1 0 10 1;
#X connect 1 0 11 1;
#X connect 1 0 12 1;
#X connect 1 0 15 1;
#X connect 1 0 14 1;
#X connect 1 0 13 1;
#X connect 3 0 4 0;
#X connect 4 0 5 0;
#X connect 5 0 6 0;
#X connect 6 0 8 1;
#X connect 7 0 4 0;
#X connect 8 0 2 0;
#X connect 9 0 8 0;
#X connect 10 0 8 0;
#X connect 11 0 8 0;
#X connect 12 0 8 0;
#X connect 13 0 8 0;
#X connect 14 0 8 0;
#X connect 15 0 8 0;
#X restore 653 508 pd supersaw;
#X obj 981 262 r source-s;
#X connect 16 0 19 0;
#X connect 16 0 23 0;
#X connect 17 0 15 0;
#X connect 17 0 22 0;
#X connect 17 0 70 0;
#X connect 21 0 18 0;
#X connect 22 0 16 0;
#X connect 23 0 21 0;
#X connect 24 0 96 0;
#X connect 26 0 28 0;
#X connect 27 0 26 0;
#X connect 28 0 41 0;
#X connect 29 0 94 0;
#X connect 30 0 27 0;
#X connect 30 0 71 0;
#X connect 31 0 29 1;
#X connect 31 0 99 1;
#X connect 31 0 98 1;
#X connect 31 0 97 1;
#X connect 33 0 34 0;
#X connect 33 0 36 0;
#X connect 35 0 33 0;
#X connect 36 0 38 0;
#X connect 37 0 32 0;
#X connect 37 0 35 0;
#X connect 37 0 73 0;
#X connect 38 0 39 0;
#X connect 40 0 25 0;
#X connect 40 0 30 0;
#X connect 41 0 42 0;
#X connect 44 0 46 0;
#X connect 45 0 44 0;
#X connect 46 0 49 0;
#X connect 46 0 53 0;
#X connect 47 0 43 0;
#X connect 47 0 45 0;
#X connect 47 0 75 0;
#X connect 49 0 48 0;
#X connect 50 0 0 0;
#X connect 50 0 90 0;
#X connect 51 0 80 0;
#X connect 52 0 51 0;
#X connect 55 0 56 0;
#X connect 55 0 58 0;
#X connect 57 0 55 0;
#X connect 58 0 69 0;
#X connect 59 0 54 0;
#X connect 59 0 57 0;
#X connect 59 0 72 0;
#X connect 62 0 63 0;
#X connect 62 0 65 0;
#X connect 64 0 62 0;
#X connect 65 0 68 0;
#X connect 66 0 61 0;
#X connect 66 0 64 0;
#X connect 66 0 74 0;
#X connect 68 0 67 0;
#X connect 69 0 60 0;
#X connect 70 0 29 0;
#X connect 71 0 31 0;
#X connect 72 0 97 0;
#X connect 73 0 99 0;
#X connect 74 0 98 0;
#X connect 75 0 52 0;
#X connect 76 0 0 1;
#X connect 76 0 92 0;
#X connect 77 0 89 0;
#X connect 77 0 99 2;
#X connect 78 0 79 0;
#X connect 78 0 98 2;
#X connect 80 0 50 1;
#X connect 80 0 76 1;
#X connect 90 0 91 0;
#X connect 92 0 93 0;
#X connect 94 0 50 0;
#X connect 95 0 76 0;
#X connect 97 0 95 0;
#X connect 98 0 95 0;
#X connect 99 0 94 0;
#X connect 100 0 97 2;
