#N canvas -17 54 1222 891 10;
#N canvas 181 248 1256 747 nebulae 0;
#X obj 34 216 netreceive 3000;
#X obj 118 271 route start size density overlap blend window pitch
speed record file source reset freeze;
#X obj 532 268 route start_alt size_alt density_alt overlap_alt blend_alt
window_alt pitch_alt record_alt file_alt source_alt freeze_alt;
#X obj 248 513 s window;
#X obj 527 452 s start_alt;
#X obj 545 427 s size_alt;
#X obj 560 404 s density_alt;
#X obj 578 379 s overlap_alt;
#X obj 661 458 s blend_alt;
#X obj 687 433 s window_alt;
#X obj 704 412 s pitch_alt;
#X obj 891 459 s freeze_alt;
#X obj 768 459 s record_alt;
#X obj 786 434 s file_alt;
#X obj 804 412 s source_alt;
#X obj 819 93 loadbang;
#X obj 819 115 delay 300;
#X obj 819 137 s initbang;
#X obj 1272 362 r initbang;
#X msg 1272 384 \; pd dsp 1;
#X text 2 191 Receive Controls via TCP;
#X text 261 231 primary controls;
#X text 560 228 secondary controls (accessible when source is held)
;
#X text 841 68 Initialization -- Turn DSP on;
#X obj 93 52 adc~;
#X obj 421 82 dac~;
#X text 127 81 Audio Bypass -- Input to Output;
#X obj 422 33 inlet~;
#X obj 443 61 inlet~;
#X obj 93 140 outlet~;
#X obj 115 117 outlet~;
#X msg 83 556 set \$1;
#X obj 83 577 s start-r;
#X msg 118 505 set \$1;
#X msg 140 455 set \$1;
#X msg 177 399 set \$1;
#X msg 204 332 set \$1;
#X msg 233 532 set \$1;
#X msg 282 395 set \$1;
#X msg 285 332 set \$1;
#X obj 118 526 s size-r;
#X obj 140 476 s density-r;
#X obj 177 420 s overlap-r;
#X obj 204 353 s blend-r;
#X obj 233 553 s window-r;
#X obj 282 416 s pitch-r;
#X obj 285 353 s speed-r;
#X msg 335 458 set \$1;
#X obj 335 479 s record-r;
#X msg 361 392 set \$1;
#X obj 361 413 s file-r;
#X msg 385 331 set \$1;
#X obj 385 352 s source-r;
#X msg 412 501 set \$1;
#X obj 412 522 s reset-r;
#X msg 442 413 set \$1;
#X obj 442 434 s freeze-r;
#X obj 119 603 s start-s;
#X obj 145 553 s size-s;
#X obj 170 498 s density-s;
#X obj 196 441 s overlap-s;
#X obj 222 376 s blend-s;
#X obj 300 375 s speed-s;
#X obj 274 438 s pitch-s;
#X obj 352 433 s file-s;
#X obj 326 500 s record-s;
#X obj 378 371 s source-s;
#X obj 430 455 s freeze-s;
#X obj 404 542 s reset-s;
#X connect 0 0 1 0;
#X connect 1 0 57 0;
#X connect 1 0 31 0;
#X connect 1 1 33 0;
#X connect 1 1 58 0;
#X connect 1 2 34 0;
#X connect 1 2 59 0;
#X connect 1 3 35 0;
#X connect 1 3 60 0;
#X connect 1 4 36 0;
#X connect 1 4 61 0;
#X connect 1 5 3 0;
#X connect 1 5 37 0;
#X connect 1 6 38 0;
#X connect 1 6 63 0;
#X connect 1 7 39 0;
#X connect 1 7 62 0;
#X connect 1 8 47 0;
#X connect 1 8 65 0;
#X connect 1 9 49 0;
#X connect 1 9 64 0;
#X connect 1 10 51 0;
#X connect 1 10 66 0;
#X connect 1 11 53 0;
#X connect 1 11 68 0;
#X connect 1 12 55 0;
#X connect 1 12 67 0;
#X connect 1 13 2 0;
#X connect 2 0 4 0;
#X connect 2 1 5 0;
#X connect 2 2 6 0;
#X connect 2 3 7 0;
#X connect 2 4 8 0;
#X connect 2 5 9 0;
#X connect 2 6 10 0;
#X connect 2 7 12 0;
#X connect 2 8 13 0;
#X connect 2 9 14 0;
#X connect 2 10 11 0;
#X connect 15 0 16 0;
#X connect 16 0 17 0;
#X connect 18 0 19 0;
#X connect 24 0 29 0;
#X connect 24 1 30 0;
#X connect 27 0 25 0;
#X connect 28 0 25 1;
#X connect 31 0 32 0;
#X connect 33 0 40 0;
#X connect 34 0 41 0;
#X connect 35 0 42 0;
#X connect 36 0 43 0;
#X connect 37 0 44 0;
#X connect 38 0 45 0;
#X connect 39 0 46 0;
#X connect 47 0 48 0;
#X connect 49 0 50 0;
#X connect 51 0 52 0;
#X connect 53 0 54 0;
#X connect 55 0 56 0;
#X restore 617 835 pd nebulae;
#X obj 47 26 cnv 15 300 300 empty empty empty 20 12 0 14 #e0e0e0 #404040
0;
#X obj 60 126 hsl 61 40 0 1 0 0 density-s density-r density -2 -8 0
10 #000000 #fcfcfc #000000 0 1;
#X obj 80 196 hsl 61 40 0 1 0 0 blend-s blend-r blend -2 -8 0 10 #000000
#fcfcfc #000000 0 1;
#X obj 275 56 hsl 61 40 0 1 0 0 size-s size-r size\ [oct\ 1] -2 -8
0 10 #000000 #fcfcfc #000000 0 1;
#X obj 275 126 hsl 61 40 0 1 0 0 overlap-s overlap-r overlap -2 -8
0 10 #000000 #fcfcfc #000000 0 1;
#X obj 255 196 hsl 61 40 0 1 0 0 window-s window-r window -2 -8 0 10
#000000 #fcfcfc #000000 0 1;
#X obj 158 56 hsl 80 50 0 1 0 0 speed-s speed-r speed\ [key\ Gb] -2
-8 0 10 #000000 #fcfcfc #000000 0 1;
#X obj 158 126 hsl 80 50 0 1 0 0 pitch-s pitch-r pitch\ [I\ Fs/Gb]
-2 -8 0 10 #000000 #fcfcfc #000000 0 1;
#X obj 80 274 tgl 30 0 record-s record-r record 0 -8 0 10 #000000 #fcfcfc
#000000 0 1;
#X obj 130 274 tgl 30 0 next-s next-r next 0 -8 0 10 #000000 #fcfcfc
#000000 0 1;
#X obj 180 274 tgl 30 0 source-s source-r source 0 -8 0 10 #000000
#fcfcfc #000000 0 1;
#X obj 230 274 tgl 30 0 reset-s reset-r reset 0 -8 0 10 #000000 #fcfcfc
#000000 0 1;
#X obj 280 274 tgl 30 0 freeze-s freeze-r freeze 0 -8 0 10 #000000
#fcfcfc #000000 0 1;
#X obj 652 420 r pitch-s;
#X obj 652 486 int;
#X obj 750 832 s pitch-r;
#N canvas 1154 39 450 533 lettername 0;
#X obj 28 9 inlet;
#X floatatom 262 117 5 0 0 0 - - - 0;
#X msg 28 122 C;
#X msg 59 122 D;
#X msg 91 122 E;
#X msg 101 144 F;
#X msg 132 144 G;
#X msg 164 144 A;
#X msg 195 144 B;
#X obj 28 97 sel 0 1 2 3 4 5 6 7 8 9 10 11;
#X obj 262 93 div 12;
#X obj 28 63 mod 12;
#X obj 43 367 outlet;
#X obj 43 229 symbol;
#X msg 64 277 set \$1;
#X obj 64 301 makefilename;
#X obj 28 33 t f f;
#X obj 64 253 makefilename %s%%i;
#X msg 43 337 \$1;
#X msg 38 144 Cs/Db;
#X msg 69 144 Ds/Eb;
#X msg 122 122 Fs/Gb;
#X msg 154 122 Gs/Ab;
#X msg 185 122 As/Bb;
#X connect 0 0 16 0;
#X connect 2 0 13 0;
#X connect 3 0 13 0;
#X connect 4 0 13 0;
#X connect 5 0 13 0;
#X connect 6 0 13 0;
#X connect 7 0 13 0;
#X connect 8 0 13 0;
#X connect 9 0 2 0;
#X connect 9 1 19 0;
#X connect 9 2 3 0;
#X connect 9 3 20 0;
#X connect 9 4 4 0;
#X connect 9 5 5 0;
#X connect 9 6 21 0;
#X connect 9 7 6 0;
#X connect 9 8 22 0;
#X connect 9 9 7 0;
#X connect 9 10 23 0;
#X connect 9 11 8 0;
#X connect 10 0 1 0;
#X connect 11 0 9 0;
#X connect 13 0 17 0;
#X connect 13 0 18 0;
#X connect 14 0 15 0;
#X connect 16 0 10 0;
#X connect 16 1 11 0;
#X connect 17 0 14 0;
#X connect 18 0 12 0;
#X connect 19 0 13 0;
#X connect 20 0 13 0;
#X connect 21 0 13 0;
#X connect 22 0 13 0;
#X connect 23 0 13 0;
#X restore 750 768 pd lettername;
#X obj 652 400 s speed-r;
#N canvas 1154 39 450 533 lettername 0;
#X obj 28 9 inlet;
#X msg 43 337 label \$1;
#X obj 43 367 outlet;
#X obj 43 229 symbol;
#X msg 64 277 set \$1;
#X obj 64 301 makefilename;
#X obj 28 33 t f f;
#X obj 64 253 makefilename %s%%i;
#X msg 217 152 Cm;
#X msg 248 152 Dm;
#X msg 258 174 Ebm;
#X msg 280 152 Em;
#X msg 290 174 Fm;
#X msg 321 174 Gm;
#X msg 353 174 Am;
#X msg 374 152 Bbm;
#X msg 384 174 Bm;
#X msg 227 174 Dbm;
#X msg 311 152 Gbm;
#X msg 343 152 Abm;
#X obj 28 97 sel 0 1 2 3 4 5 6 7 8 9 10 11 12 13 14 15 16 17 18 19
20 21 22 23;
#X floatatom 122 58 5 0 0 0 - - - 0;
#X obj 28 63 mod 24;
#X msg 28 152 C;
#X msg 38 174 Db;
#X msg 59 152 D;
#X msg 69 174 Eb;
#X msg 91 152 E;
#X msg 101 174 F;
#X msg 122 152 Gb;
#X msg 132 174 G;
#X msg 154 152 Ab;
#X msg 164 174 A;
#X msg 185 152 Bb;
#X msg 195 174 B;
#X connect 0 0 6 0;
#X connect 1 0 2 0;
#X connect 3 0 7 0;
#X connect 3 0 1 0;
#X connect 4 0 5 0;
#X connect 6 1 22 0;
#X connect 7 0 4 0;
#X connect 8 0 3 0;
#X connect 9 0 3 0;
#X connect 10 0 3 0;
#X connect 11 0 3 0;
#X connect 12 0 3 0;
#X connect 13 0 3 0;
#X connect 14 0 3 0;
#X connect 15 0 3 0;
#X connect 16 0 3 0;
#X connect 17 0 3 0;
#X connect 18 0 3 0;
#X connect 19 0 3 0;
#X connect 20 0 23 0;
#X connect 20 1 24 0;
#X connect 20 2 25 0;
#X connect 20 3 26 0;
#X connect 20 4 27 0;
#X connect 20 5 28 0;
#X connect 20 6 29 0;
#X connect 20 7 30 0;
#X connect 20 8 31 0;
#X connect 20 9 32 0;
#X connect 20 10 33 0;
#X connect 20 11 34 0;
#X connect 20 12 8 0;
#X connect 20 13 17 0;
#X connect 20 14 9 0;
#X connect 20 15 10 0;
#X connect 20 16 11 0;
#X connect 20 17 12 0;
#X connect 20 18 18 0;
#X connect 20 19 13 0;
#X connect 20 20 19 0;
#X connect 20 21 14 0;
#X connect 20 22 15 0;
#X connect 20 23 16 0;
#X connect 22 0 20 0;
#X connect 22 0 21 0;
#X connect 23 0 3 0;
#X connect 24 0 3 0;
#X connect 25 0 3 0;
#X connect 26 0 3 0;
#X connect 27 0 3 0;
#X connect 28 0 3 0;
#X connect 29 0 3 0;
#X connect 30 0 3 0;
#X connect 31 0 3 0;
#X connect 32 0 3 0;
#X connect 33 0 3 0;
#X connect 34 0 3 0;
#X restore 652 357 pd lettername;
#X floatatom 692 297 5 0 0 0 - - - 0;
#X obj 652 318 * 11;
#X obj 652 338 int;
#X obj 652 251 r speed-s;
#X msg 652 378 label speed\\\ [key\\\ \$1];
#X obj 971 183 array set \$0-scale;
#X text 1067 141 major;
#X obj 1017 98 sel 0 1;
#X obj 971 120 loadbang;
#X obj 1017 47 r source-s;
#X floatatom 504 222 5 0 0 0 - - - 0;
#N canvas 1154 39 450 533 lettername 0;
#X obj 28 9 inlet;
#X msg 28 122 C;
#X msg 38 144 Db;
#X msg 59 122 D;
#X msg 69 144 Eb;
#X msg 91 122 E;
#X msg 101 144 F;
#X msg 132 144 G;
#X msg 164 144 A;
#X msg 185 122 Bb;
#X msg 195 144 B;
#X obj 28 97 sel 0 1 2 3 4 5 6 7 8 9 10 11;
#X obj 28 63 mod 12;
#X obj 43 387 outlet;
#X obj 43 229 symbol;
#X msg 64 277 set \$1;
#X obj 64 301 makefilename;
#X obj 28 33 t f f;
#X obj 64 253 makefilename %s%%i;
#X msg 122 122 Gb;
#X msg 154 122 Ab;
#X obj 43 332 pack s f;
#X msg 43 357 label \$1\$2;
#X obj 200 288 outlet;
#X obj 229 18 inlet;
#X connect 0 0 17 0;
#X connect 1 0 14 0;
#X connect 2 0 14 0;
#X connect 3 0 14 0;
#X connect 4 0 14 0;
#X connect 5 0 14 0;
#X connect 6 0 14 0;
#X connect 7 0 14 0;
#X connect 8 0 14 0;
#X connect 9 0 14 0;
#X connect 10 0 14 0;
#X connect 11 0 1 0;
#X connect 11 1 2 0;
#X connect 11 2 3 0;
#X connect 11 3 4 0;
#X connect 11 4 5 0;
#X connect 11 5 6 0;
#X connect 11 6 19 0;
#X connect 11 7 7 0;
#X connect 11 8 20 0;
#X connect 11 9 8 0;
#X connect 11 10 9 0;
#X connect 11 11 10 0;
#X connect 12 0 11 0;
#X connect 12 0 23 0;
#X connect 14 0 18 0;
#X connect 14 0 21 0;
#X connect 15 0 16 0;
#X connect 17 1 12 0;
#X connect 18 0 15 0;
#X connect 19 0 14 0;
#X connect 20 0 14 0;
#X connect 21 0 22 0;
#X connect 22 0 13 0;
#X connect 24 0 21 1;
#X restore 385 470 pd lettername;
#X obj 454 191 r start-s;
#X obj 385 512 s start-r;
#X msg 385 491 label start\\\ [low\\\ \$1];
#X obj 60 56 hsl 61 40 0 1 0 0 start-s start-r start\ [low\ Bb2] -2
-8 0 10 #000000 #fcfcfc #000000 0 1;
#N canvas 0 50 450 300 chord 0;
#X text 136 77 triad;
#X text 136 96 seventh;
#X text 135 117 ninth;
#X msg 39 77 1 0 1 0 1 0 0;
#X msg 39 97 1 0 1 0 1 0 1;
#X msg 39 117 1 1 1 0 1 0 1;
#X restore 797 129 pd chord patterns;
#X obj 829 378 t b f;
#X obj 829 459 +;
#X obj 829 399 array get \$0-scale;
#X obj 829 480 mod 12;
#X floatatom 829 501 5 0 0 0 - - - 0;
#X obj 955 459 +;
#X obj 955 480 mod 12;
#X floatatom 955 501 5 0 0 0 - - - 0;
#X obj 871 459 +;
#X obj 871 480 mod 12;
#X floatatom 871 501 5 0 0 0 - - - 0;
#X obj 913 459 +;
#X obj 913 480 mod 12;
#X floatatom 913 501 5 0 0 0 - - - 0;
#X obj 837 519 +;
#X obj 837 540 mod 12;
#X floatatom 837 561 5 0 0 0 - - - 0;
#X obj 879 519 +;
#X obj 879 540 mod 12;
#X floatatom 879 561 5 0 0 0 - - - 0;
#X obj 921 519 +;
#X obj 921 540 mod 12;
#X floatatom 921 561 5 0 0 0 - - - 0;
#X obj 829 420 unpack f f f f f f f;
#X obj 828 581 pack f f f f f f f;
#X obj 866 65 table \$0-transp 7;
#X obj 866 44 table \$0-scale 7;
#X obj 828 602 array set \$0-transp;
#X obj 749 695 select 0 1 2 3 4 5 6, f 32;
#X obj 652 507 t f f;
#X obj 750 789 pack s s;
#X msg 729 716 symbol I;
#X msg 745 734 symbol ii;
#X msg 785 715 symbol iii;
#X msg 819 734 symbol IV;
#X msg 855 714 symbol V;
#X msg 912 734 symbol vi;
#X msg 929 713 symbol viio;
#X msg 750 811 label pitch\\\ [\$2\\\ \$1];
#X obj 652 441 change;
#X obj 454 233 * 35;
#X obj 454 254 int;
#X obj 454 275 change;
#X obj 454 336 mod 7;
#X obj 454 375 tabread \$0-transp;
#X obj 490 254 t b f;
#X floatatom 729 322 5 0 0 0 - - - 0;
#X obj 613 317 * 6;
#X obj 454 317 -;
#X obj 613 338 + 0.5;
#X obj 613 359 int;
#X obj 454 297 t f f;
#X obj 503 317 + 14;
#X text 373 531 lowest note;
#X text 750 850 chord root;
#X text 717 400 key signature;
#X msg 971 141 0 2 4 5 7 9 11;
#X obj 1017 68 t b f;
#X text 47 384 speed [key];
#X text 47 394 pitch [chord root];
#X text 47 404 start [lowest note];
#X text 47 414 size [closed/open/range];
#X text 47 424 density [amplitude];
#X text 47 434 overlap [number of notes];
#X text 47 444 blend [waveshape];
#X text 47 454 window [wave modulation];
#X text 47 464 file [classical/jazz];
#X text 47 474 pitch [chord root];
#X text 47 484 source [major/minor];
#X obj 122 555 r size-s;
#X obj 122 637 int;
#X obj 122 576 change;
#X obj 122 659 + 1;
#X obj 131 708 s size-r;
#X msg 131 687 label size\\\ [oct\\\ \$1];
#X obj 168 749 * 7;
#X obj 168 770 + 0.5;
#X obj 168 791 int;
#X obj 632 709 catch~ sound;
#X obj 184 554 loadbang;
#X msg 184 575 1;
#X obj 585 186 hradio 15 1 0 7 empty empty empty 0 -8 0 10 #fcfcfc
#000000 #000000 0;
#X obj 585 206 / 6;
#X floatatom 585 227 5 0 0 0 - - - 0;
#X obj 652 275 t f f;
#X floatatom 610 391 5 0 0 0 - - - 0;
#X obj 802 356 t b b f;
#X obj 614 297 f;
#X obj 503 338 div 7;
#X obj 503 356 - 1;
#X obj 582 150 hsl 128 15 0 6 0 0 empty empty empty -2 -8 0 10 #fcfcfc
#000000 #000000 0 1;
#X obj 324 461 +;
#X obj 339 442 * 12;
#X floatatom 338 560 5 0 0 0 - - - 0;
#X text 262 561 lowest chrom;
#X obj 486 541 pack f f f;
#X obj 312 606 r overlap-s;
#X obj 312 627 change;
#X obj 492 513 t b f;
#X obj 312 690 int;
#X obj 312 711 change;
#X obj 312 732 s numnotes;
#X obj 698 628 tabread \$0-transp;
#X floatatom 415 304 5 0 0 0 - - - 0;
#X text 358 269 transposition;
#X floatatom 416 356 5 0 0 0 - - - 0;
#X text 406 282 steps;
#X text 366 336 note transpo;
#X floatatom 531 357 5 0 0 0 - - - 0;
#X text 544 339 octave;
#X floatatom 454 409 5 0 0 0 - - - 0;
#X text 494 409 chromatic note;
#X text 502 422 transposition;
#X obj 64 758 s notespread;
#N canvas 858 775 450 300 root 0;
#X obj 60 26 inlet;
#X floatatom 70 96 5 0 0 0 - - - 0;
#X text 107 97 root;
#N canvas 104 104 450 300 transpo 0;
#X obj 49 26 inlet;
#X obj 186 28 inlet;
#X obj 321 29 inlet;
#X obj 48 61 tabread \$0-transp;
#X obj 186 101 t b f;
#X obj 48 171 outlet;
#X floatatom 129 182 5 0 0 0 - - - 0;
#X obj 48 150 expr if($f1<$f2 \, $f1+12+(12*$f3) \, $f1 + (12*$f3))
;
#X connect 0 0 3 0;
#X connect 1 0 4 0;
#X connect 2 0 7 2;
#X connect 3 0 7 0;
#X connect 4 0 7 0;
#X connect 4 1 7 1;
#X connect 7 0 5 0;
#X connect 7 0 6 0;
#X restore 60 76 pd transpo;
#X obj 60 264 throw~ sound;
#X obj 60 162 + 36;
#X obj 60 183 mtof;
#X obj 60 47 unpack f f f;
#X msg 60 204 \$1 1;
#X obj 60 225 line~;
#X floatatom 197 99 5 0 0 0 - - - 0;
#N canvas 801 245 1083 844 waves 0;
#X obj 301 82 *~ 2;
#X obj 287 110 -~ 1;
#X obj 222 191 abs~;
#X obj 222 215 *~ -2;
#X obj 222 239 +~ 1;
#X obj 130 253 sin~;
#X obj 130 229 +~ 0.75;
#X obj 301 33 phasor~ 800;
#X obj 313 201 expr~ $v1 > 0.5;
#X obj 313 225 *~ 2;
#X obj 313 249 -~ 1;
#X obj 387 32 pow 2;
#X obj 387 56 * 19.8;
#X obj 387 80 + 0.2;
#X obj 387 8 inlet modulation;
#X obj 508 8 inlet shape;
#X obj 620 243 - 0.5;
#X obj 663 329 - 0.75;
#X obj 576 148 - 0.25;
#X obj 510 111 expr if ($f1<0.25 \, if ($f1>0 \, 1-($f1*4) \, if ($f1>-0.25
\, 1 + ($f1* 4) \, 0)) \, 0);
#X obj 576 170 expr if ($f1<0.25 \, if ($f1>0 \, 1-($f1*4) \, if ($f1>-0.25
\, 1 + ($f1* 4) \, 0)) \, 0);
#X obj 620 265 expr if ($f1<0.25 \, if ($f1>0 \, 1-($f1*4) \, if ($f1>-0.25
\, 1 + ($f1* 4) \, 0)) \, 0);
#X obj 186 384 *~;
#X obj 216 384 *~;
#X obj 246 384 *~;
#X obj 276 384 *~;
#X msg 510 149 \$1 2;
#X obj 510 173 line~;
#X msg 576 208 \$1 2;
#X obj 576 232 line~;
#X msg 620 302 \$1 2;
#X obj 620 326 line~;
#X msg 663 387 \$1 2;
#X obj 663 411 line~;
#X obj 225 455 outlet~;
#X obj 301 9 inlet~;
#X obj 301 57 pow~;
#X msg 387 101 \$1 2;
#X obj 387 122 line~;
#X obj 663 351 expr if ($f1<0.25 \, if ($f1>0 \, 1 \, if ($f1>-0.25
\, 1 + ($f1* 4) \, 0)) \, 1);
#X connect 0 0 1 0;
#X connect 1 0 2 0;
#X connect 1 0 25 0;
#X connect 2 0 3 0;
#X connect 3 0 4 0;
#X connect 4 0 23 0;
#X connect 5 0 22 0;
#X connect 6 0 5 0;
#X connect 7 0 36 0;
#X connect 8 0 9 0;
#X connect 9 0 10 0;
#X connect 10 0 24 0;
#X connect 11 0 12 0;
#X connect 12 0 13 0;
#X connect 13 0 37 0;
#X connect 14 0 11 0;
#X connect 15 0 19 0;
#X connect 15 0 17 0;
#X connect 15 0 16 0;
#X connect 15 0 18 0;
#X connect 16 0 21 0;
#X connect 17 0 39 0;
#X connect 18 0 20 0;
#X connect 19 0 26 0;
#X connect 20 0 28 0;
#X connect 21 0 30 0;
#X connect 22 0 34 0;
#X connect 23 0 34 0;
#X connect 24 0 34 0;
#X connect 25 0 34 0;
#X connect 26 0 27 0;
#X connect 27 0 22 1;
#X connect 28 0 29 0;
#X connect 29 0 23 1;
#X connect 30 0 31 0;
#X connect 31 0 24 1;
#X connect 32 0 33 0;
#X connect 33 0 25 1;
#X connect 35 0 7 0;
#X connect 36 0 0 0;
#X connect 36 0 8 0;
#X connect 36 0 6 0;
#X connect 37 0 38 0;
#X connect 38 0 36 1;
#X connect 39 0 32 0;
#X restore 60 245 pd waves;
#X obj 108 180 r window-s;
#X obj 131 200 r blend-s;
#X obj 236 197 env~;
#X floatatom 236 218 5 0 0 0 - - - 0;
#X floatatom 168 234 5 0 0 0 - - - 0;
#X floatatom 132 240 5 0 0 0 - - - 0;
#X connect 0 0 7 0;
#X connect 3 0 1 0;
#X connect 3 0 5 0;
#X connect 5 0 6 0;
#X connect 6 0 8 0;
#X connect 7 0 3 0;
#X connect 7 0 10 0;
#X connect 7 1 3 1;
#X connect 7 2 3 2;
#X connect 8 0 9 0;
#X connect 9 0 11 0;
#X connect 11 0 4 0;
#X connect 11 0 14 0;
#X connect 12 0 11 1;
#X connect 12 0 17 0;
#X connect 13 0 11 2;
#X connect 13 0 16 0;
#X connect 14 0 15 0;
#X restore 496 567 pd root;
#N canvas 1071 283 618 439 third 0;
#X obj 60 26 inlet;
#N canvas 0 50 450 300 transpo 0;
#X obj 49 26 inlet;
#X obj 186 28 inlet;
#X obj 321 29 inlet;
#X obj 48 61 tabread \$0-transp;
#X obj 186 101 t b f;
#X obj 48 171 outlet;
#X floatatom 129 182 5 0 0 0 - - - 0;
#X obj 48 150 expr if($f1<$f2 \, $f1+12+(12*$f3) \, $f1 + (12*$f3))
;
#X connect 0 0 3 0;
#X connect 1 0 4 0;
#X connect 2 0 7 2;
#X connect 3 0 7 0;
#X connect 4 0 7 0;
#X connect 4 1 7 1;
#X connect 7 0 5 0;
#X connect 7 0 6 0;
#X restore 60 116 pd transpo;
#X obj 60 324 throw~ sound;
#X obj 60 47 unpack f f f;
#X obj 60 90 mod 7;
#X obj 242 89 r numnotes;
#X obj 242 110 > 1;
#X obj 60 304 *~;
#X msg 242 131 \$1 2;
#X obj 242 152 line~;
#X floatatom 112 144 5 0 0 0 - - - 0;
#X obj 60 69 + 2;
#X obj 160 28 r notespread;
#X obj 160 49 t b f;
#X obj 187 68 * 12;
#X obj 187 89 + 36;
#X obj 60 172 + 36;
#X obj 60 193 mtof;
#X msg 60 214 \$1 1;
#X obj 60 235 line~;
#N canvas 156 156 1083 844 waves 0;
#X obj 301 82 *~ 2;
#X obj 301 106 -~ 1;
#X obj 222 191 abs~;
#X obj 222 215 *~ -2;
#X obj 222 239 +~ 1;
#X obj 130 253 sin~;
#X obj 130 229 +~ 0.75;
#X obj 301 33 phasor~ 800;
#X obj 313 201 expr~ $v1 > 0.5;
#X obj 313 225 *~ 2;
#X obj 313 249 -~ 1;
#X obj 387 32 pow 2;
#X obj 387 56 * 19.8;
#X obj 387 80 + 0.2;
#X obj 387 8 inlet modulation;
#X obj 508 8 inlet shape;
#X obj 620 243 - 0.5;
#X obj 663 329 - 0.75;
#X obj 576 148 - 0.25;
#X obj 510 111 expr if ($f1<0.25 \, if ($f1>0 \, 1-($f1*4) \, if ($f1>-0.25
\, 1 + ($f1* 4) \, 0)) \, 0);
#X obj 576 170 expr if ($f1<0.25 \, if ($f1>0 \, 1-($f1*4) \, if ($f1>-0.25
\, 1 + ($f1* 4) \, 0)) \, 0);
#X obj 620 265 expr if ($f1<0.25 \, if ($f1>0 \, 1-($f1*4) \, if ($f1>-0.25
\, 1 + ($f1* 4) \, 0)) \, 0);
#X obj 186 384 *~;
#X obj 216 384 *~;
#X obj 246 384 *~;
#X obj 276 384 *~;
#X msg 510 149 \$1 2;
#X obj 510 173 line~;
#X msg 576 208 \$1 2;
#X obj 576 232 line~;
#X msg 620 302 \$1 2;
#X obj 620 326 line~;
#X msg 663 387 \$1 2;
#X obj 663 411 line~;
#X obj 225 455 outlet~;
#X obj 301 9 inlet~;
#X obj 301 57 pow~;
#X msg 387 101 \$1 2;
#X obj 387 122 line~;
#X obj 663 351 expr if ($f1<0.25 \, if ($f1>0 \, 1 \, if ($f1>-0.25
\, 1 + ($f1* 4) \, 0)) \, 1);
#X connect 0 0 1 0;
#X connect 1 0 2 0;
#X connect 1 0 25 0;
#X connect 2 0 3 0;
#X connect 3 0 4 0;
#X connect 4 0 23 0;
#X connect 5 0 22 0;
#X connect 6 0 5 0;
#X connect 7 0 36 0;
#X connect 8 0 9 0;
#X connect 9 0 10 0;
#X connect 10 0 24 0;
#X connect 11 0 12 0;
#X connect 12 0 13 0;
#X connect 13 0 37 0;
#X connect 14 0 11 0;
#X connect 15 0 19 0;
#X connect 15 0 17 0;
#X connect 15 0 16 0;
#X connect 15 0 18 0;
#X connect 16 0 21 0;
#X connect 17 0 39 0;
#X connect 18 0 20 0;
#X connect 19 0 26 0;
#X connect 20 0 28 0;
#X connect 21 0 30 0;
#X connect 22 0 34 0;
#X connect 23 0 34 0;
#X connect 24 0 34 0;
#X connect 25 0 34 0;
#X connect 26 0 27 0;
#X connect 27 0 22 1;
#X connect 28 0 29 0;
#X connect 29 0 23 1;
#X connect 30 0 31 0;
#X connect 31 0 24 1;
#X connect 32 0 33 0;
#X connect 33 0 25 1;
#X connect 35 0 7 0;
#X connect 36 0 0 0;
#X connect 36 0 8 0;
#X connect 36 0 6 0;
#X connect 37 0 38 0;
#X connect 38 0 36 1;
#X connect 39 0 32 0;
#X restore 60 255 pd waves;
#X obj 108 190 r window-s;
#X obj 131 210 r blend-s;
#X connect 0 0 3 0;
#X connect 1 0 10 0;
#X connect 1 0 16 0;
#X connect 3 0 11 0;
#X connect 3 1 1 1;
#X connect 3 2 1 2;
#X connect 4 0 1 0;
#X connect 5 0 6 0;
#X connect 6 0 8 0;
#X connect 7 0 2 0;
#X connect 8 0 9 0;
#X connect 9 0 7 1;
#X connect 11 0 4 0;
#X connect 12 0 13 0;
#X connect 13 0 16 0;
#X connect 13 1 14 0;
#X connect 14 0 15 0;
#X connect 16 0 17 0;
#X connect 17 0 18 0;
#X connect 18 0 19 0;
#X connect 19 0 20 0;
#X connect 20 0 7 0;
#X connect 21 0 20 1;
#X connect 22 0 20 2;
#X restore 476 589 pd third;
#N canvas 1034 166 471 454 fifth 0;
#X obj 60 6 inlet;
#N canvas 0 50 450 300 transpo 0;
#X obj 49 26 inlet;
#X obj 186 28 inlet;
#X obj 321 29 inlet;
#X obj 48 61 tabread \$0-transp;
#X obj 186 101 t b f;
#X obj 48 171 outlet;
#X floatatom 129 182 5 0 0 0 - - - 0;
#X obj 48 150 expr if($f1<$f2 \, $f1+12+(12*$f3) \, $f1 + (12*$f3))
;
#X connect 0 0 3 0;
#X connect 1 0 4 0;
#X connect 2 0 7 2;
#X connect 3 0 7 0;
#X connect 4 0 7 0;
#X connect 4 1 7 1;
#X connect 7 0 5 0;
#X connect 7 0 6 0;
#X restore 60 116 pd transpo;
#X obj 60 334 throw~ sound;
#X obj 60 162 + 36;
#X obj 60 27 unpack f f f;
#X obj 60 90 mod 7;
#X obj 60 69 + 4;
#X obj 254 28 r jazz;
#X obj 272 109 r numnotes;
#X obj 60 314 *~;
#X msg 272 151 \$1 2;
#X obj 272 172 line~;
#X obj 272 130 > 2;
#X floatatom 85 142 5 0 0 0 - - - 0;
#X obj 153 75 sel 4;
#X msg 179 93 36;
#X obj 153 118 f;
#X obj 153 139 + 36;
#X obj 60 48 t f f;
#X obj 60 193 mtof;
#X msg 60 214 \$1 1;
#X obj 60 235 line~;
#N canvas 156 156 1083 844 waves 0;
#X obj 301 82 *~ 2;
#X obj 301 106 -~ 1;
#X obj 222 191 abs~;
#X obj 222 215 *~ -2;
#X obj 222 239 +~ 1;
#X obj 130 253 sin~;
#X obj 130 229 +~ 0.75;
#X obj 301 33 phasor~ 800;
#X obj 313 201 expr~ $v1 > 0.5;
#X obj 313 225 *~ 2;
#X obj 313 249 -~ 1;
#X obj 387 32 pow 2;
#X obj 387 56 * 19.8;
#X obj 387 80 + 0.2;
#X obj 387 8 inlet modulation;
#X obj 508 8 inlet shape;
#X obj 620 243 - 0.5;
#X obj 663 329 - 0.75;
#X obj 576 148 - 0.25;
#X obj 510 111 expr if ($f1<0.25 \, if ($f1>0 \, 1-($f1*4) \, if ($f1>-0.25
\, 1 + ($f1* 4) \, 0)) \, 0);
#X obj 576 170 expr if ($f1<0.25 \, if ($f1>0 \, 1-($f1*4) \, if ($f1>-0.25
\, 1 + ($f1* 4) \, 0)) \, 0);
#X obj 620 265 expr if ($f1<0.25 \, if ($f1>0 \, 1-($f1*4) \, if ($f1>-0.25
\, 1 + ($f1* 4) \, 0)) \, 0);
#X obj 186 384 *~;
#X obj 216 384 *~;
#X obj 246 384 *~;
#X obj 276 384 *~;
#X msg 510 149 \$1 2;
#X obj 510 173 line~;
#X msg 576 208 \$1 2;
#X obj 576 232 line~;
#X msg 620 302 \$1 2;
#X obj 620 326 line~;
#X msg 663 387 \$1 2;
#X obj 663 411 line~;
#X obj 225 455 outlet~;
#X obj 301 9 inlet~;
#X obj 301 57 pow~;
#X msg 387 101 \$1 2;
#X obj 387 122 line~;
#X obj 663 351 expr if ($f1<0.25 \, if ($f1>0 \, 1 \, if ($f1>-0.25
\, 1 + ($f1* 4) \, 0)) \, 1);
#X connect 0 0 1 0;
#X connect 1 0 2 0;
#X connect 1 0 25 0;
#X connect 2 0 3 0;
#X connect 3 0 4 0;
#X connect 4 0 23 0;
#X connect 5 0 22 0;
#X connect 6 0 5 0;
#X connect 7 0 36 0;
#X connect 8 0 9 0;
#X connect 9 0 10 0;
#X connect 10 0 24 0;
#X connect 11 0 12 0;
#X connect 12 0 13 0;
#X connect 13 0 37 0;
#X connect 14 0 11 0;
#X connect 15 0 19 0;
#X connect 15 0 17 0;
#X connect 15 0 16 0;
#X connect 15 0 18 0;
#X connect 16 0 21 0;
#X connect 17 0 39 0;
#X connect 18 0 20 0;
#X connect 19 0 26 0;
#X connect 20 0 28 0;
#X connect 21 0 30 0;
#X connect 22 0 34 0;
#X connect 23 0 34 0;
#X connect 24 0 34 0;
#X connect 25 0 34 0;
#X connect 26 0 27 0;
#X connect 27 0 22 1;
#X connect 28 0 29 0;
#X connect 29 0 23 1;
#X connect 30 0 31 0;
#X connect 31 0 24 1;
#X connect 32 0 33 0;
#X connect 33 0 25 1;
#X connect 35 0 7 0;
#X connect 36 0 0 0;
#X connect 36 0 8 0;
#X connect 36 0 6 0;
#X connect 37 0 38 0;
#X connect 38 0 36 1;
#X connect 39 0 32 0;
#X restore 60 255 pd waves;
#X obj 108 190 r window-s;
#X obj 131 210 r blend-s;
#X connect 0 0 4 0;
#X connect 1 0 3 0;
#X connect 1 0 13 0;
#X connect 3 0 19 0;
#X connect 4 0 18 0;
#X connect 4 1 1 1;
#X connect 4 2 1 2;
#X connect 5 0 1 0;
#X connect 6 0 5 0;
#X connect 7 0 16 1;
#X connect 8 0 12 0;
#X connect 9 0 2 0;
#X connect 10 0 11 0;
#X connect 11 0 9 1;
#X connect 12 0 10 0;
#X connect 14 0 16 0;
#X connect 14 1 15 0;
#X connect 15 0 3 1;
#X connect 16 0 17 0;
#X connect 17 0 3 1;
#X connect 18 0 6 0;
#X connect 18 1 14 0;
#X connect 19 0 20 0;
#X connect 20 0 21 0;
#X connect 21 0 22 0;
#X connect 22 0 9 0;
#X connect 23 0 22 1;
#X connect 24 0 22 2;
#X restore 498 610 pd fifth;
#N canvas 774 451 450 369 seventh 0;
#X obj 60 26 inlet;
#N canvas 0 50 450 300 transpo 0;
#X obj 49 26 inlet;
#X obj 186 28 inlet;
#X obj 321 29 inlet;
#X obj 48 61 tabread \$0-transp;
#X obj 186 101 t b f;
#X obj 48 171 outlet;
#X floatatom 129 182 5 0 0 0 - - - 0;
#X obj 48 150 expr if($f1<$f2 \, $f1+12+(12*$f3) \, $f1 + (12*$f3))
;
#X connect 0 0 3 0;
#X connect 1 0 4 0;
#X connect 2 0 7 2;
#X connect 3 0 7 0;
#X connect 4 0 7 0;
#X connect 4 1 7 1;
#X connect 7 0 5 0;
#X connect 7 0 6 0;
#X restore 60 116 pd transpo;
#X obj 60 294 throw~ sound;
#X obj 60 162 + 36;
#X obj 60 47 unpack f f f;
#X obj 60 90 mod 7;
#X obj 232 89 r numnotes;
#X obj 60 264 *~;
#X msg 232 131 \$1 2;
#X obj 232 152 line~;
#X obj 232 110 > 4;
#X obj 60 69 + 6;
#X floatatom 94 139 5 0 0 0 - - - 0;
#X obj 160 28 r notespread;
#X obj 160 49 t b f;
#X obj 187 68 * 12;
#X obj 187 89 + 36;
#X obj 60 183 mtof;
#X msg 60 204 \$1 1;
#X obj 60 225 line~;
#N canvas 156 156 1083 844 waves 0;
#X obj 301 82 *~ 2;
#X obj 301 106 -~ 1;
#X obj 222 191 abs~;
#X obj 222 215 *~ -2;
#X obj 222 239 +~ 1;
#X obj 130 253 sin~;
#X obj 130 229 +~ 0.75;
#X obj 301 33 phasor~ 800;
#X obj 313 201 expr~ $v1 > 0.5;
#X obj 313 225 *~ 2;
#X obj 313 249 -~ 1;
#X obj 387 32 pow 2;
#X obj 387 56 * 19.8;
#X obj 387 80 + 0.2;
#X obj 387 8 inlet modulation;
#X obj 508 8 inlet shape;
#X obj 620 243 - 0.5;
#X obj 663 329 - 0.75;
#X obj 576 148 - 0.25;
#X obj 510 111 expr if ($f1<0.25 \, if ($f1>0 \, 1-($f1*4) \, if ($f1>-0.25
\, 1 + ($f1* 4) \, 0)) \, 0);
#X obj 576 170 expr if ($f1<0.25 \, if ($f1>0 \, 1-($f1*4) \, if ($f1>-0.25
\, 1 + ($f1* 4) \, 0)) \, 0);
#X obj 620 265 expr if ($f1<0.25 \, if ($f1>0 \, 1-($f1*4) \, if ($f1>-0.25
\, 1 + ($f1* 4) \, 0)) \, 0);
#X obj 186 384 *~;
#X obj 216 384 *~;
#X obj 246 384 *~;
#X obj 276 384 *~;
#X msg 510 149 \$1 2;
#X obj 510 173 line~;
#X msg 576 208 \$1 2;
#X obj 576 232 line~;
#X msg 620 302 \$1 2;
#X obj 620 326 line~;
#X msg 663 387 \$1 2;
#X obj 663 411 line~;
#X obj 225 455 outlet~;
#X obj 301 9 inlet~;
#X obj 301 57 pow~;
#X msg 387 101 \$1 2;
#X obj 387 122 line~;
#X obj 663 351 expr if ($f1<0.25 \, if ($f1>0 \, 1 \, if ($f1>-0.25
\, 1 + ($f1* 4) \, 0)) \, 1);
#X connect 0 0 1 0;
#X connect 1 0 2 0;
#X connect 1 0 25 0;
#X connect 2 0 3 0;
#X connect 3 0 4 0;
#X connect 4 0 23 0;
#X connect 5 0 22 0;
#X connect 6 0 5 0;
#X connect 7 0 36 0;
#X connect 8 0 9 0;
#X connect 9 0 10 0;
#X connect 10 0 24 0;
#X connect 11 0 12 0;
#X connect 12 0 13 0;
#X connect 13 0 37 0;
#X connect 14 0 11 0;
#X connect 15 0 19 0;
#X connect 15 0 17 0;
#X connect 15 0 16 0;
#X connect 15 0 18 0;
#X connect 16 0 21 0;
#X connect 17 0 39 0;
#X connect 18 0 20 0;
#X connect 19 0 26 0;
#X connect 20 0 28 0;
#X connect 21 0 30 0;
#X connect 22 0 34 0;
#X connect 23 0 34 0;
#X connect 24 0 34 0;
#X connect 25 0 34 0;
#X connect 26 0 27 0;
#X connect 27 0 22 1;
#X connect 28 0 29 0;
#X connect 29 0 23 1;
#X connect 30 0 31 0;
#X connect 31 0 24 1;
#X connect 32 0 33 0;
#X connect 33 0 25 1;
#X connect 35 0 7 0;
#X connect 36 0 0 0;
#X connect 36 0 8 0;
#X connect 36 0 6 0;
#X connect 37 0 38 0;
#X connect 38 0 36 1;
#X connect 39 0 32 0;
#X restore 60 245 pd waves;
#X obj 108 180 r window-s;
#X obj 131 200 r blend-s;
#X connect 0 0 4 0;
#X connect 1 0 3 0;
#X connect 1 0 12 0;
#X connect 3 0 17 0;
#X connect 4 0 11 0;
#X connect 4 1 1 1;
#X connect 4 2 1 2;
#X connect 5 0 1 0;
#X connect 6 0 10 0;
#X connect 7 0 2 0;
#X connect 8 0 9 0;
#X connect 9 0 7 1;
#X connect 10 0 8 0;
#X connect 11 0 5 0;
#X connect 13 0 14 0;
#X connect 14 0 3 0;
#X connect 14 1 15 0;
#X connect 15 0 16 0;
#X connect 16 0 3 1;
#X connect 17 0 18 0;
#X connect 18 0 19 0;
#X connect 19 0 20 0;
#X connect 20 0 7 0;
#X connect 21 0 20 1;
#X connect 22 0 20 2;
#X restore 480 630 pd seventh;
#N canvas 963 377 450 300 ninth 0;
#X obj 60 26 inlet;
#N canvas 0 50 450 300 transpo 0;
#X obj 49 26 inlet;
#X obj 186 28 inlet;
#X obj 321 29 inlet;
#X obj 48 61 tabread \$0-transp;
#X obj 186 101 t b f;
#X obj 48 171 outlet;
#X floatatom 129 182 5 0 0 0 - - - 0;
#X obj 48 150 expr if($f1<$f2 \, $f1+12+(12*$f3) \, $f1 + (12*$f3))
;
#X connect 0 0 3 0;
#X connect 1 0 4 0;
#X connect 2 0 7 2;
#X connect 3 0 7 0;
#X connect 4 0 7 0;
#X connect 4 1 7 1;
#X connect 7 0 5 0;
#X connect 7 0 6 0;
#X restore 60 116 pd transpo;
#X obj 60 284 throw~ sound;
#X obj 60 162 + 36;
#X obj 60 47 unpack f f f;
#X obj 60 90 mod 7;
#X obj 60 69 + 8;
#X obj 202 89 r numnotes;
#X obj 60 264 *~;
#X msg 202 131 \$1 2;
#X obj 202 152 line~;
#X obj 202 110 > 5;
#X floatatom 98 145 5 0 0 0 - - - 0;
#X obj 160 28 r notespread;
#X obj 160 49 t b f;
#X obj 60 183 mtof;
#X msg 60 204 \$1 1;
#X obj 60 225 line~;
#N canvas 156 156 1083 844 waves 0;
#X obj 301 82 *~ 2;
#X obj 301 106 -~ 1;
#X obj 222 191 abs~;
#X obj 222 215 *~ -2;
#X obj 222 239 +~ 1;
#X obj 130 253 sin~;
#X obj 130 229 +~ 0.75;
#X obj 301 33 phasor~ 800;
#X obj 313 201 expr~ $v1 > 0.5;
#X obj 313 225 *~ 2;
#X obj 313 249 -~ 1;
#X obj 387 32 pow 2;
#X obj 387 56 * 19.8;
#X obj 387 80 + 0.2;
#X obj 387 8 inlet modulation;
#X obj 508 8 inlet shape;
#X obj 620 243 - 0.5;
#X obj 663 329 - 0.75;
#X obj 576 148 - 0.25;
#X obj 510 111 expr if ($f1<0.25 \, if ($f1>0 \, 1-($f1*4) \, if ($f1>-0.25
\, 1 + ($f1* 4) \, 0)) \, 0);
#X obj 576 170 expr if ($f1<0.25 \, if ($f1>0 \, 1-($f1*4) \, if ($f1>-0.25
\, 1 + ($f1* 4) \, 0)) \, 0);
#X obj 620 265 expr if ($f1<0.25 \, if ($f1>0 \, 1-($f1*4) \, if ($f1>-0.25
\, 1 + ($f1* 4) \, 0)) \, 0);
#X obj 186 384 *~;
#X obj 216 384 *~;
#X obj 246 384 *~;
#X obj 276 384 *~;
#X msg 510 149 \$1 2;
#X obj 510 173 line~;
#X msg 576 208 \$1 2;
#X obj 576 232 line~;
#X msg 620 302 \$1 2;
#X obj 620 326 line~;
#X msg 663 387 \$1 2;
#X obj 663 411 line~;
#X obj 225 455 outlet~;
#X obj 301 9 inlet~;
#X obj 301 57 pow~;
#X msg 387 101 \$1 2;
#X obj 387 122 line~;
#X obj 663 351 expr if ($f1<0.25 \, if ($f1>0 \, 1 \, if ($f1>-0.25
\, 1 + ($f1* 4) \, 0)) \, 1);
#X connect 0 0 1 0;
#X connect 1 0 2 0;
#X connect 1 0 25 0;
#X connect 2 0 3 0;
#X connect 3 0 4 0;
#X connect 4 0 23 0;
#X connect 5 0 22 0;
#X connect 6 0 5 0;
#X connect 7 0 36 0;
#X connect 8 0 9 0;
#X connect 9 0 10 0;
#X connect 10 0 24 0;
#X connect 11 0 12 0;
#X connect 12 0 13 0;
#X connect 13 0 37 0;
#X connect 14 0 11 0;
#X connect 15 0 19 0;
#X connect 15 0 17 0;
#X connect 15 0 16 0;
#X connect 15 0 18 0;
#X connect 16 0 21 0;
#X connect 17 0 39 0;
#X connect 18 0 20 0;
#X connect 19 0 26 0;
#X connect 20 0 28 0;
#X connect 21 0 30 0;
#X connect 22 0 34 0;
#X connect 23 0 34 0;
#X connect 24 0 34 0;
#X connect 25 0 34 0;
#X connect 26 0 27 0;
#X connect 27 0 22 1;
#X connect 28 0 29 0;
#X connect 29 0 23 1;
#X connect 30 0 31 0;
#X connect 31 0 24 1;
#X connect 32 0 33 0;
#X connect 33 0 25 1;
#X connect 35 0 7 0;
#X connect 36 0 0 0;
#X connect 36 0 8 0;
#X connect 36 0 6 0;
#X connect 37 0 38 0;
#X connect 38 0 36 1;
#X connect 39 0 32 0;
#X restore 60 245 pd waves;
#X obj 108 180 r window-s;
#X obj 131 200 r blend-s;
#X connect 0 0 4 0;
#X connect 1 0 3 0;
#X connect 1 0 12 0;
#X connect 3 0 15 0;
#X connect 4 0 6 0;
#X connect 4 1 1 1;
#X connect 4 2 1 2;
#X connect 5 0 1 0;
#X connect 6 0 5 0;
#X connect 7 0 11 0;
#X connect 8 0 2 0;
#X connect 9 0 10 0;
#X connect 10 0 8 1;
#X connect 11 0 9 0;
#X connect 13 0 14 0;
#X connect 15 0 16 0;
#X connect 16 0 17 0;
#X connect 17 0 18 0;
#X connect 18 0 8 0;
#X connect 19 0 18 1;
#X connect 20 0 18 2;
#X restore 500 651 pd ninth;
#X obj 122 596 * 1;
#X obj 122 617 + 0.5;
#X obj 312 648 * 5;
#X obj 312 669 + 1.5;
#X text 1074 161 melodic minor;
#X msg 1039 283 set symbol V;
#X msg 1047 304 set symbol v;
#X msg 1058 325 set symbol IV;
#X msg 1066 345 set symbol iv;
#X msg 1078 366 set symbol iii;
#X msg 1086 387 set symbol III;
#X msg 1097 406 set symbol ii;
#X msg 1105 427 set symbol iio;
#X msg 1116 448 set symbol I;
#X msg 1124 469 set symbol i;
#X msg 1019 245 set symbol vi;
#X msg 1027 264 set symbol VI;
#X msg 994 207 set symbol viio;
#X msg 1002 226 set symbol VII;
#X msg 978 162 0 2 3 5 7 8 11;
#X text 45 495 jazz [freeze];
#X obj 1054 582 r freeze-s;
#X obj 1054 603 change;
#X obj 1054 624 s jazz;
#X obj 652 465 * 6.5;
#X obj 593 689 r density-s;
#X obj 593 708 * 0.2;
#X msg 593 729 \$1 3;
#X obj 593 750 line~;
#X obj 631 795 *~;
#X obj 494 28 loadbang;
#X msg 494 49 \; source-r 0 \; freeze-r 0 \;;
#X obj 324 484 mtof;
#X floatatom 324 505 5 0 0 0 - - - 0;
#X obj 641 668 line~;
#X msg 641 649 \$1 2;
#X floatatom 550 751 5 0 0 0 - - - 0;
#X obj 641 629 * 8;
#X obj 632 730 vcf~ 3;
#X connect 14 0 76 0;
#X connect 15 0 66 0;
#X connect 17 0 67 0;
#X connect 19 0 24 0;
#X connect 21 0 22 0;
#X connect 22 0 19 0;
#X connect 22 0 83 0;
#X connect 22 0 123 0;
#X connect 23 0 20 0;
#X connect 23 0 121 0;
#X connect 24 0 18 0;
#X connect 27 0 93 0;
#X connect 27 0 161 0;
#X connect 27 0 163 0;
#X connect 27 0 165 0;
#X connect 27 0 167 0;
#X connect 27 0 169 0;
#X connect 27 0 171 0;
#X connect 27 0 173 0;
#X connect 27 1 175 0;
#X connect 27 1 162 0;
#X connect 27 1 164 0;
#X connect 27 1 166 0;
#X connect 27 1 168 0;
#X connect 27 1 170 0;
#X connect 27 1 172 0;
#X connect 27 1 174 0;
#X connect 28 0 93 0;
#X connect 29 0 94 0;
#X connect 31 0 34 0;
#X connect 32 0 30 0;
#X connect 32 0 77 0;
#X connect 34 0 33 0;
#X connect 37 0 39 0;
#X connect 37 1 38 1;
#X connect 37 1 45 1;
#X connect 37 1 48 1;
#X connect 37 1 42 1;
#X connect 37 1 57 1;
#X connect 37 1 54 1;
#X connect 37 1 51 1;
#X connect 38 0 40 0;
#X connect 39 0 60 0;
#X connect 40 0 41 0;
#X connect 40 0 61 0;
#X connect 42 0 43 0;
#X connect 43 0 44 0;
#X connect 43 0 61 6;
#X connect 45 0 46 0;
#X connect 46 0 47 0;
#X connect 46 0 61 2;
#X connect 48 0 49 0;
#X connect 49 0 50 0;
#X connect 49 0 61 4;
#X connect 51 0 52 0;
#X connect 52 0 53 0;
#X connect 52 0 61 1;
#X connect 54 0 55 0;
#X connect 55 0 56 0;
#X connect 55 0 61 3;
#X connect 57 0 58 0;
#X connect 58 0 59 0;
#X connect 58 0 61 5;
#X connect 60 0 38 0;
#X connect 60 1 51 0;
#X connect 60 2 45 0;
#X connect 60 3 54 0;
#X connect 60 4 48 0;
#X connect 60 5 57 0;
#X connect 60 6 42 0;
#X connect 61 0 64 0;
#X connect 65 0 68 0;
#X connect 65 1 69 0;
#X connect 65 2 70 0;
#X connect 65 3 71 0;
#X connect 65 4 72 0;
#X connect 65 5 73 0;
#X connect 65 6 74 0;
#X connect 66 0 132 0;
#X connect 66 1 65 0;
#X connect 66 1 139 0;
#X connect 67 0 75 0;
#X connect 68 0 67 1;
#X connect 69 0 67 1;
#X connect 70 0 67 1;
#X connect 71 0 67 1;
#X connect 72 0 67 1;
#X connect 73 0 67 1;
#X connect 74 0 67 1;
#X connect 75 0 16 0;
#X connect 76 0 180 0;
#X connect 77 0 78 0;
#X connect 78 0 79 0;
#X connect 79 0 88 0;
#X connect 79 0 140 0;
#X connect 80 0 81 0;
#X connect 80 0 142 0;
#X connect 81 0 31 0;
#X connect 81 0 128 0;
#X connect 81 0 130 0;
#X connect 81 0 135 0;
#X connect 81 0 147 0;
#X connect 82 0 85 0;
#X connect 82 1 85 1;
#X connect 84 0 86 0;
#X connect 85 0 80 0;
#X connect 86 0 87 0;
#X connect 87 0 82 0;
#X connect 87 0 122 0;
#X connect 88 0 85 0;
#X connect 88 1 89 0;
#X connect 89 0 125 0;
#X connect 93 0 25 0;
#X connect 94 0 21 0;
#X connect 94 0 124 0;
#X connect 94 1 27 0;
#X connect 106 0 108 0;
#X connect 107 0 150 0;
#X connect 107 0 109 0;
#X connect 108 0 156 0;
#X connect 109 0 111 0;
#X connect 111 0 110 0;
#X connect 112 0 113 0;
#X connect 113 0 114 0;
#X connect 115 0 194 0;
#X connect 116 0 117 0;
#X connect 117 0 108 0;
#X connect 118 0 119 0;
#X connect 119 0 120 0;
#X connect 119 0 180 0;
#X connect 121 0 21 0;
#X connect 121 1 124 1;
#X connect 123 0 180 0;
#X connect 123 1 124 0;
#X connect 123 2 37 0;
#X connect 124 0 84 0;
#X connect 125 0 126 0;
#X connect 125 0 129 0;
#X connect 126 0 31 1;
#X connect 126 0 132 2;
#X connect 126 0 145 0;
#X connect 127 0 118 0;
#X connect 128 0 188 0;
#X connect 129 0 128 1;
#X connect 132 0 151 0;
#X connect 132 0 155 0;
#X connect 132 0 154 0;
#X connect 132 0 153 0;
#X connect 132 0 152 0;
#X connect 133 0 134 0;
#X connect 134 0 158 0;
#X connect 135 0 132 0;
#X connect 135 1 132 1;
#X connect 136 0 137 0;
#X connect 137 0 138 0;
#X connect 139 0 17 0;
#X connect 156 0 157 0;
#X connect 157 0 107 0;
#X connect 158 0 159 0;
#X connect 159 0 136 0;
#X connect 161 0 72 0;
#X connect 162 0 72 0;
#X connect 163 0 71 0;
#X connect 164 0 71 0;
#X connect 165 0 70 0;
#X connect 166 0 70 0;
#X connect 167 0 69 0;
#X connect 168 0 69 0;
#X connect 169 0 68 0;
#X connect 170 0 68 0;
#X connect 171 0 73 0;
#X connect 172 0 73 0;
#X connect 173 0 74 0;
#X connect 174 0 74 0;
#X connect 175 0 25 0;
#X connect 177 0 178 0;
#X connect 178 0 179 0;
#X connect 180 0 15 0;
#X connect 181 0 182 0;
#X connect 182 0 183 0;
#X connect 182 0 192 0;
#X connect 183 0 184 0;
#X connect 184 0 185 1;
#X connect 185 0 0 0;
#X connect 185 0 0 1;
#X connect 186 0 187 0;
#X connect 188 0 189 0;
#X connect 188 0 193 0;
#X connect 190 0 194 1;
#X connect 191 0 190 0;
#X connect 193 0 191 0;
#X connect 194 0 185 0;
