#N canvas 34 18 1918 998 10;
#N canvas 641 370 1256 747 nebulae 0;
#X obj 34 216 netreceive 3000;
#X obj 118 271 route start size density overlap blend window pitch
speed record file source reset freeze;
#X obj 532 268 route start_alt size_alt density_alt overlap_alt blend_alt
window_alt pitch_alt record_alt file_alt source_alt freeze_alt;
#X obj 248 513 s window;
#X obj 527 452 s start_alt;
#X obj 545 427 s size_alt;
#X obj 560 404 s density_alt;
#X obj 578 379 s overlap_alt;
#X obj 661 458 s blend_alt;
#X obj 687 433 s window_alt;
#X obj 704 412 s pitch_alt;
#X obj 891 459 s freeze_alt;
#X obj 768 459 s record_alt;
#X obj 786 434 s file_alt;
#X obj 804 412 s source_alt;
#X obj 819 93 loadbang;
#X obj 819 115 delay 300;
#X obj 819 137 s initbang;
#X obj 1272 362 r initbang;
#X msg 1272 384 \; pd dsp 1;
#X text 2 191 Receive Controls via TCP;
#X text 261 231 primary controls;
#X text 560 228 secondary controls (accessible when source is held)
;
#X text 841 68 Initialization -- Turn DSP on;
#X obj 93 52 adc~;
#X obj 421 82 dac~;
#X text 127 81 Audio Bypass -- Input to Output;
#X obj 422 33 inlet~;
#X obj 443 61 inlet~;
#X obj 93 140 outlet~;
#X obj 115 117 outlet~;
#X msg 83 556 set \$1;
#X obj 83 577 s start-r;
#X msg 118 505 set \$1;
#X msg 140 455 set \$1;
#X msg 177 399 set \$1;
#X msg 204 332 set \$1;
#X msg 233 532 set \$1;
#X msg 282 395 set \$1;
#X msg 285 332 set \$1;
#X obj 118 526 s size-r;
#X obj 140 476 s density-r;
#X obj 177 420 s overlap-r;
#X obj 204 353 s blend-r;
#X obj 233 553 s window-r;
#X obj 282 416 s pitch-r;
#X obj 285 353 s speed-r;
#X msg 335 458 set \$1;
#X obj 335 479 s record-r;
#X msg 361 392 set \$1;
#X obj 361 413 s file-r;
#X msg 385 331 set \$1;
#X obj 385 352 s source-r;
#X msg 412 501 set \$1;
#X obj 412 522 s reset-r;
#X msg 442 413 set \$1;
#X obj 442 434 s freeze-r;
#X obj 119 603 s start-s;
#X obj 145 553 s size-s;
#X obj 170 498 s density-s;
#X obj 196 441 s overlap-s;
#X obj 222 376 s blend-s;
#X obj 300 375 s speed-s;
#X obj 274 438 s pitch-s;
#X obj 352 433 s file-s;
#X obj 326 500 s record-s;
#X obj 378 371 s source-s;
#X obj 430 455 s freeze-s;
#X obj 404 542 s reset-s;
#X connect 0 0 1 0;
#X connect 1 0 31 0;
#X connect 1 0 57 0;
#X connect 1 1 33 0;
#X connect 1 1 58 0;
#X connect 1 2 34 0;
#X connect 1 2 59 0;
#X connect 1 3 35 0;
#X connect 1 3 60 0;
#X connect 1 4 36 0;
#X connect 1 4 61 0;
#X connect 1 5 3 0;
#X connect 1 5 37 0;
#X connect 1 6 38 0;
#X connect 1 6 63 0;
#X connect 1 7 39 0;
#X connect 1 7 62 0;
#X connect 1 8 47 0;
#X connect 1 8 65 0;
#X connect 1 9 49 0;
#X connect 1 9 64 0;
#X connect 1 10 51 0;
#X connect 1 10 66 0;
#X connect 1 11 53 0;
#X connect 1 11 68 0;
#X connect 1 12 55 0;
#X connect 1 12 67 0;
#X connect 1 13 2 0;
#X connect 2 0 4 0;
#X connect 2 1 5 0;
#X connect 2 2 6 0;
#X connect 2 3 7 0;
#X connect 2 4 8 0;
#X connect 2 5 9 0;
#X connect 2 6 10 0;
#X connect 2 7 12 0;
#X connect 2 8 13 0;
#X connect 2 9 14 0;
#X connect 2 10 11 0;
#X connect 15 0 16 0;
#X connect 16 0 17 0;
#X connect 18 0 19 0;
#X connect 27 0 25 0;
#X connect 28 0 25 1;
#X connect 31 0 32 0;
#X connect 33 0 40 0;
#X connect 34 0 41 0;
#X connect 35 0 42 0;
#X connect 36 0 43 0;
#X connect 37 0 44 0;
#X connect 38 0 45 0;
#X connect 39 0 46 0;
#X connect 47 0 48 0;
#X connect 49 0 50 0;
#X connect 51 0 52 0;
#X connect 53 0 54 0;
#X connect 55 0 56 0;
#X restore 647 95 pd nebulae;
#X obj 47 26 cnv 15 300 300 empty empty empty 20 12 0 14 #e0e0e0 #404040
0;
#X obj 70 56 hsl 50 40 0 1 0 0 start-s start-r start -2 -8 0 10 #000000
#fcfcfc #000000 0 1;
#X obj 70 116 hsl 50 40 0 1 0 0 density-s density-r density -2 -8 0
10 #000000 #fcfcfc #000000 0 1;
#X obj 90 176 hsl 50 40 0 1 0 0 blend-s blend-r blend -2 -8 0 10 #000000
#fcfcfc #000000 0 1;
#X obj 275 56 hsl 50 40 0 1 0 0 size-s size-r size -2 -8 0 10 #000000
#fcfcfc #000000 0 1;
#X obj 275 116 hsl 50 40 0 1 0 0 overlap-s overlap-r overlap -2 -8
0 10 #000000 #fcfcfc #000000 0 1;
#X obj 255 176 hsl 50 40 0 1 0 0 window-s window-r window -2 -8 0 10
#000000 #fcfcfc #000000 0 1;
#X obj 158 56 hsl 80 50 0 1 0 0 speed-s speed-r speed -2 -8 0 10 #000000
#fcfcfc #000000 0 1;
#X obj 158 126 hsl 80 50 0 1 0 0 pitch-s pitch-r pitch -2 -8 0 10 #000000
#fcfcfc #000000 0 1;
#X obj 80 274 tgl 30 0 record-s record-r record 0 -8 0 10 #000000 #fcfcfc
#000000 0 1;
#X obj 130 274 tgl 30 0 next-s next-r next 0 -8 0 10 #000000 #fcfcfc
#000000 0 1;
#X obj 180 274 tgl 30 0 source-s source-r source 0 -8 0 10 #000000
#fcfcfc #000000 0 1;
#X obj 230 274 tgl 30 0 reset-s reset-r reset 0 -8 0 10 #000000 #fcfcfc
#000000 0 1;
#X obj 280 274 tgl 30 0 freeze-s freeze-r freeze 0 -8 0 10 #000000
#fcfcfc #000000 0 1;
#X obj 698 302 vradio 16 1 0 5 empty empty empty 0 -8 0 10 #fcfcfc
#000000 #000000 0;
#X text 720 300 sequential;
#X text 720 317 random;
#X text 719 335 foreward/reverse;
#X text 721 350 weighted/common;
#X text 720 366 weighted/recent;
#X msg 563 370 bang;
#X obj 499 897 dac~;
#X msg 433 567 \$1 5;
#X obj 433 591 line~;
#X obj 1244 471 bng 15 250 50 0 empty empty empty 17 7 0 10 #fcfcfc
#000000 #000000;
#X obj 852 303 vradio 16 1 0 5 empty empty empty 0 -8 0 10 #fcfcfc
#000000 #000000 0;
#X text 874 301 sequential;
#X text 874 318 random;
#X text 873 336 foreward/reverse;
#X text 875 351 weighted/common;
#X text 874 367 weighted/recent;
#X floatatom 1181 390 5 0 0 0 - - - 0;
#X text 1222 391 number to track;
#X msg 1181 413 n \$1;
#X msg 698 387 method \$1;
#X msg 852 387 method \$1;
#X obj 644 355 / 3;
#X obj 644 379 int;
#X obj 644 403 * 3;
#X obj 644 427 moses 60;
#X obj 689 449 change;
#X obj 1009 301 vradio 16 1 0 5 empty empty empty 0 -8 0 10 #fcfcfc
#000000 #000000 0;
#X text 1031 299 sequential;
#X text 1031 316 random;
#X text 1030 334 foreward/reverse;
#X text 1032 349 weighted/common;
#X text 1031 365 weighted/recent;
#X msg 1009 385 method \$1;
#X obj 580 548 t f f;
#X obj 702 548 t f f;
#X obj 818 548 t f f;
#X obj 434 542 r blend-s;
#X obj 1154 324 * 30;
#X obj 1154 345 int;
#X obj 1154 366 change;
#X obj 869 442 r reset-s;
#X obj 770 152 r window-s;
#X obj 770 173 * 4;
#X obj 770 194 + 0.5;
#X obj 770 214 int;
#X obj 770 235 change;
#X floatatom 770 256 5 0 0 0 - - - 0;
#X obj 878 173 * 4;
#X obj 878 194 + 0.5;
#X obj 878 214 int;
#X obj 878 235 change;
#X floatatom 878 256 5 0 0 0 - - - 0;
#X obj 1046 171 * 4;
#X obj 1046 192 + 0.5;
#X obj 1046 212 int;
#X obj 1046 233 change;
#X floatatom 1046 254 5 0 0 0 - - - 0;
#X obj 878 152 r overlap-s;
#X obj 1046 150 r size-s;
#N canvas 33 170 1187 866 rhythm_mem 0;
#X obj 145 214 timer;
#X obj 145 238 min 4000;
#X msg 216 151 const 0;
#X obj 145 188 t b b b;
#X msg 180 266 1;
#X obj 180 290 +;
#X obj 214 290 mod 7;
#X obj 214 314 - 1;
#X obj 214 338 mod 7;
#X obj 594 91 inlet;
#X obj 594 159 f;
#X obj 594 183 select 0 1 2 3 4;
#X msg 495 261 1;
#X obj 495 285 +;
#X obj 529 285 mod 7;
#X obj 529 309 - 1;
#X obj 529 333 mod 7;
#X obj 559 238 random 7;
#X obj 634 225 random 2;
#X obj 634 249 * 2;
#X obj 634 273 - 1;
#X obj 876 278 random 1000;
#X obj 876 302 / 1000;
#X obj 876 444 int;
#X obj 876 468 +;
#X obj 876 350 t b f;
#X obj 876 398 *;
#X obj 876 374 f -1;
#X obj 876 326 pow 5.5;
#X obj 876 420 * 7;
#X obj 876 492 mod 7;
#X obj 628 621 outlet duration;
#X obj 154 15 inlet;
#X obj 103 240 bng 15 250 50 0 empty empty empty 17 7 0 10 #fcfcfc
#000000 #000000;
#X floatatom 109 274 5 0 0 0 - - - 0;
#X obj 369 425 poly 7 1;
#X msg 369 398 \$1 1;
#X obj 449 452 * 2;
#X obj 449 475 - 1;
#X obj 432 600 +;
#X obj 423 544 t f f;
#X obj 432 624 max 0;
#X obj 389 480 int;
#X obj 389 456 / 2;
#X obj 389 504 * 2;
#X floatatom 584 612 5 0 0 0 - - - 0;
#X text 326 279 stop;
#X text 635 91 trigger note;
#X msg 487 35 bang;
#X obj 487 59 t b b;
#X obj 487 83 f 0;
#X obj 522 115 spigot 1;
#X msg 553 77 1;
#X msg 361 278 stop;
#X obj 838 656 delay;
#X floatatom 760 604 5 0 0 0 - - - 0;
#X obj 630 127 bng 15 250 50 0 empty empty empty 17 7 0 10 #fcfcfc
#000000 #000000;
#X obj 670 412 bng 15 250 50 0 empty empty empty 17 7 0 10 #fcfcfc
#000000 #000000;
#X obj 145 330 t b f;
#X obj 294 256 moses 15000;
#X obj 154 39 route bang n r method;
#X obj 216 175 s 1-attacks;
#X obj 432 577 tabread 1-durationcount;
#X obj 432 647 tabwrite 1-durationcount;
#X obj 628 564 tabread 1-attacks;
#X obj 665 439 array get 1-durationcount;
#X obj 77 436 table 1-attacks 500;
#X obj 78 468 table 1-durationcount 3000;
#X obj 130 376 tabwrite 1-attacks;
#X obj 226 198 s 1-durationcount;
#N canvas 0 50 921 650 list-wrandom 0;
#X obj 102 44 inlet;
#X obj 202 176 change -1;
#X msg 202 201 resize \$1;
#X obj 124 226 f;
#X obj 124 251 until;
#X obj 102 373 f;
#X obj 124 316 f 0;
#X obj 150 316 + 1;
#X msg 140 290 0;
#X obj 102 166 t b b b a;
#X obj 102 442 outlet;
#X obj 172 201 + 1;
#X obj 175 377 <=;
#X obj 155 407 select 0;
#X obj 102 112 random 10000;
#X obj 102 136 * 0.0001;
#X obj 319 44 inlet;
#X msg 451 112 0;
#X obj 319 69 t a b a;
#X obj 319 219 f 0;
#X obj 347 219 + 1;
#X msg 452 219 normalize 1;
#X obj 535 158 outlet;
#X obj 535 105 list length;
#X obj 379 219 +;
#X obj 410 219 f;
#X obj 319 251 pack 0 0;
#X obj 319 171 t b a;
#X obj 319 146 list-drip;
#X obj 202 151 r 11-len;
#X obj 544 131 s 11-len;
#X obj 202 229 s 11-weights;
#X obj 319 306 s 11-weights;
#X obj 175 347 tabread 11-weights;
#X obj 472 418 table 11-weights;
#X connect 0 0 14 0;
#X connect 1 0 2 0;
#X connect 1 0 11 0;
#X connect 2 0 31 0;
#X connect 3 0 4 0;
#X connect 4 0 6 0;
#X connect 5 0 10 0;
#X connect 6 0 5 1;
#X connect 6 0 7 0;
#X connect 6 0 33 0;
#X connect 7 0 6 1;
#X connect 8 0 6 1;
#X connect 9 0 5 0;
#X connect 9 1 3 0;
#X connect 9 2 8 0;
#X connect 9 3 12 1;
#X connect 11 0 3 1;
#X connect 12 0 13 0;
#X connect 13 0 4 1;
#X connect 14 0 15 0;
#X connect 15 0 9 0;
#X connect 16 0 18 0;
#X connect 17 0 19 1;
#X connect 17 0 24 1;
#X connect 18 0 28 0;
#X connect 18 1 17 0;
#X connect 18 2 23 0;
#X connect 19 0 20 0;
#X connect 19 0 26 0;
#X connect 20 0 19 1;
#X connect 21 0 32 0;
#X connect 23 0 22 0;
#X connect 23 0 30 0;
#X connect 24 0 25 0;
#X connect 24 0 26 1;
#X connect 25 0 24 1;
#X connect 26 0 32 0;
#X connect 27 0 19 0;
#X connect 27 1 24 0;
#X connect 28 0 27 0;
#X connect 28 1 21 0;
#X connect 29 0 1 0;
#X connect 33 0 12 0;
#X restore 656 477 pd list-wrandom;
#X connect 0 0 1 0;
#X connect 0 0 59 0;
#X connect 1 0 34 0;
#X connect 1 0 36 0;
#X connect 1 0 48 0;
#X connect 1 0 58 0;
#X connect 2 0 61 0;
#X connect 2 0 69 0;
#X connect 3 0 0 0;
#X connect 3 0 33 0;
#X connect 3 1 0 1;
#X connect 3 2 4 0;
#X connect 4 0 5 0;
#X connect 5 0 6 0;
#X connect 6 0 5 1;
#X connect 6 0 7 0;
#X connect 7 0 8 0;
#X connect 8 0 24 1;
#X connect 8 0 68 1;
#X connect 9 0 10 0;
#X connect 10 0 11 0;
#X connect 11 0 12 0;
#X connect 11 1 17 0;
#X connect 11 2 18 0;
#X connect 11 3 70 0;
#X connect 11 4 21 0;
#X connect 12 0 13 0;
#X connect 13 0 14 0;
#X connect 14 0 13 1;
#X connect 14 0 15 0;
#X connect 15 0 16 0;
#X connect 16 0 64 0;
#X connect 17 0 64 0;
#X connect 18 0 19 0;
#X connect 19 0 20 0;
#X connect 20 0 13 0;
#X connect 21 0 22 0;
#X connect 22 0 28 0;
#X connect 23 0 24 0;
#X connect 24 0 30 0;
#X connect 25 0 27 0;
#X connect 25 1 26 1;
#X connect 26 0 29 0;
#X connect 27 0 26 0;
#X connect 28 0 25 0;
#X connect 29 0 23 0;
#X connect 30 0 64 0;
#X connect 32 0 60 0;
#X connect 35 1 43 0;
#X connect 35 2 37 0;
#X connect 36 0 35 0;
#X connect 37 0 38 0;
#X connect 38 0 39 1;
#X connect 39 0 41 0;
#X connect 40 0 62 0;
#X connect 40 1 45 0;
#X connect 40 1 63 1;
#X connect 41 0 63 0;
#X connect 42 0 44 0;
#X connect 43 0 42 0;
#X connect 44 0 40 0;
#X connect 48 0 49 0;
#X connect 49 0 50 0;
#X connect 49 1 51 0;
#X connect 50 0 51 1;
#X connect 51 0 10 0;
#X connect 52 0 51 1;
#X connect 53 0 54 0;
#X connect 54 0 10 0;
#X connect 56 0 10 0;
#X connect 57 0 65 0;
#X connect 58 0 65 0;
#X connect 58 1 68 0;
#X connect 59 1 53 0;
#X connect 60 0 3 0;
#X connect 60 1 17 1;
#X connect 60 1 29 1;
#X connect 60 1 30 1;
#X connect 60 1 14 1;
#X connect 60 1 16 1;
#X connect 60 1 35 1;
#X connect 60 1 8 1;
#X connect 60 1 6 1;
#X connect 60 2 2 0;
#X connect 60 2 53 0;
#X connect 60 2 52 0;
#X connect 60 3 10 1;
#X connect 62 0 39 0;
#X connect 64 0 31 0;
#X connect 64 0 54 0;
#X connect 64 0 55 0;
#X connect 65 0 70 1;
#X connect 70 0 31 0;
#X connect 70 0 54 0;
#X restore 580 498 pd rhythm_mem;
#N canvas 0 50 1187 866 rhythm_mem 0;
#X obj 145 214 timer;
#X obj 145 238 min 4000;
#X msg 216 151 const 0;
#X obj 145 188 t b b b;
#X msg 180 266 1;
#X obj 180 290 +;
#X obj 214 290 mod 7;
#X obj 214 314 - 1;
#X obj 214 338 mod 7;
#X obj 594 91 inlet;
#X obj 594 159 f;
#X obj 594 183 select 0 1 2 3 4;
#X msg 495 261 1;
#X obj 495 285 +;
#X obj 529 285 mod 7;
#X obj 529 309 - 1;
#X obj 529 333 mod 7;
#X obj 559 238 random 7;
#X obj 634 225 random 2;
#X obj 634 249 * 2;
#X obj 634 273 - 1;
#X obj 876 278 random 1000;
#X obj 876 302 / 1000;
#X obj 876 444 int;
#X obj 876 468 +;
#X obj 876 350 t b f;
#X obj 876 398 *;
#X obj 876 374 f -1;
#X obj 876 326 pow 5.5;
#X obj 876 420 * 7;
#X obj 876 492 mod 7;
#X obj 628 621 outlet duration;
#X obj 154 15 inlet;
#X obj 103 240 bng 15 250 50 0 empty empty empty 17 7 0 10 #fcfcfc
#000000 #000000;
#X floatatom 109 274 5 0 0 0 - - - 0;
#X obj 369 425 poly 7 1;
#X msg 369 398 \$1 1;
#X obj 449 452 * 2;
#X obj 449 475 - 1;
#X obj 432 600 +;
#X obj 423 544 t f f;
#X obj 432 624 max 0;
#X obj 389 480 int;
#X obj 389 456 / 2;
#X obj 389 504 * 2;
#X floatatom 584 612 5 0 0 0 - - - 0;
#X text 326 279 stop;
#X text 635 91 trigger note;
#X msg 487 35 bang;
#X obj 487 59 t b b;
#X obj 487 83 f 0;
#X obj 522 115 spigot 1;
#X msg 553 77 1;
#X msg 361 278 stop;
#X obj 838 656 delay;
#X floatatom 760 604 5 0 0 0 - - - 0;
#X obj 630 127 bng 15 250 50 0 empty empty empty 17 7 0 10 #fcfcfc
#000000 #000000;
#X obj 670 412 bng 15 250 50 0 empty empty empty 17 7 0 10 #fcfcfc
#000000 #000000;
#X obj 145 330 t b f;
#X obj 294 256 moses 15000;
#X obj 154 39 route bang n r method;
#N canvas 0 50 921 650 list-wrandom 0;
#X obj 102 44 inlet;
#X obj 202 176 change -1;
#X msg 202 201 resize \$1;
#X obj 124 226 f;
#X obj 124 251 until;
#X obj 102 373 f;
#X obj 124 316 f 0;
#X obj 150 316 + 1;
#X msg 140 290 0;
#X obj 102 166 t b b b a;
#X obj 102 442 outlet;
#X obj 172 201 + 1;
#X obj 175 377 <=;
#X obj 155 407 select 0;
#X obj 102 112 random 10000;
#X obj 102 136 * 0.0001;
#X obj 319 44 inlet;
#X msg 451 112 0;
#X obj 319 69 t a b a;
#X obj 319 219 f 0;
#X obj 347 219 + 1;
#X msg 452 219 normalize 1;
#X obj 535 158 outlet;
#X obj 535 105 list length;
#X obj 379 219 +;
#X obj 410 219 f;
#X obj 319 251 pack 0 0;
#X obj 319 171 t b a;
#X obj 319 146 list-drip;
#X obj 544 131 s 21-len;
#X obj 202 151 r 21-len;
#X obj 202 229 s 21-weights;
#X obj 319 306 s 21-weights;
#X obj 175 347 tabread 21-weights;
#X obj 472 418 table 21-weights;
#X connect 0 0 14 0;
#X connect 1 0 2 0;
#X connect 1 0 11 0;
#X connect 2 0 31 0;
#X connect 3 0 4 0;
#X connect 4 0 6 0;
#X connect 5 0 10 0;
#X connect 6 0 5 1;
#X connect 6 0 7 0;
#X connect 6 0 33 0;
#X connect 7 0 6 1;
#X connect 8 0 6 1;
#X connect 9 0 5 0;
#X connect 9 1 3 0;
#X connect 9 2 8 0;
#X connect 9 3 12 1;
#X connect 11 0 3 1;
#X connect 12 0 13 0;
#X connect 13 0 4 1;
#X connect 14 0 15 0;
#X connect 15 0 9 0;
#X connect 16 0 18 0;
#X connect 17 0 19 1;
#X connect 17 0 24 1;
#X connect 18 0 28 0;
#X connect 18 1 17 0;
#X connect 18 2 23 0;
#X connect 19 0 20 0;
#X connect 19 0 26 0;
#X connect 20 0 19 1;
#X connect 21 0 32 0;
#X connect 23 0 22 0;
#X connect 23 0 29 0;
#X connect 24 0 25 0;
#X connect 24 0 26 1;
#X connect 25 0 24 1;
#X connect 26 0 32 0;
#X connect 27 0 19 0;
#X connect 27 1 24 0;
#X connect 28 0 27 0;
#X connect 28 1 21 0;
#X connect 30 0 1 0;
#X connect 33 0 12 0;
#X restore 656 477 pd list-wrandom;
#X obj 216 175 s 2-attacks;
#X obj 226 198 s 2-durationcount;
#X obj 130 376 tabwrite 2-attacks;
#X obj 77 436 table 2-attacks 500;
#X obj 78 468 table 2-durationcount 3000;
#X obj 432 577 tabread 2-durationcount;
#X obj 432 647 tabwrite 2-durationcount;
#X obj 628 564 tabread 2-attacks;
#X obj 665 439 array get 2-durationcount;
#X connect 0 0 1 0;
#X connect 0 0 59 0;
#X connect 1 0 34 0;
#X connect 1 0 36 0;
#X connect 1 0 48 0;
#X connect 1 0 58 0;
#X connect 2 0 62 0;
#X connect 2 0 63 0;
#X connect 3 0 0 0;
#X connect 3 0 33 0;
#X connect 3 1 0 1;
#X connect 3 2 4 0;
#X connect 4 0 5 0;
#X connect 5 0 6 0;
#X connect 6 0 5 1;
#X connect 6 0 7 0;
#X connect 7 0 8 0;
#X connect 8 0 24 1;
#X connect 8 0 64 1;
#X connect 9 0 10 0;
#X connect 10 0 11 0;
#X connect 11 0 12 0;
#X connect 11 1 17 0;
#X connect 11 2 18 0;
#X connect 11 3 61 0;
#X connect 11 4 21 0;
#X connect 12 0 13 0;
#X connect 13 0 14 0;
#X connect 14 0 13 1;
#X connect 14 0 15 0;
#X connect 15 0 16 0;
#X connect 16 0 69 0;
#X connect 17 0 69 0;
#X connect 18 0 19 0;
#X connect 19 0 20 0;
#X connect 20 0 13 0;
#X connect 21 0 22 0;
#X connect 22 0 28 0;
#X connect 23 0 24 0;
#X connect 24 0 30 0;
#X connect 25 0 27 0;
#X connect 25 1 26 1;
#X connect 26 0 29 0;
#X connect 27 0 26 0;
#X connect 28 0 25 0;
#X connect 29 0 23 0;
#X connect 30 0 69 0;
#X connect 32 0 60 0;
#X connect 35 1 43 0;
#X connect 35 2 37 0;
#X connect 36 0 35 0;
#X connect 37 0 38 0;
#X connect 38 0 39 1;
#X connect 39 0 41 0;
#X connect 40 0 67 0;
#X connect 40 1 45 0;
#X connect 40 1 68 1;
#X connect 41 0 68 0;
#X connect 42 0 44 0;
#X connect 43 0 42 0;
#X connect 44 0 40 0;
#X connect 48 0 49 0;
#X connect 49 0 50 0;
#X connect 49 1 51 0;
#X connect 50 0 51 1;
#X connect 51 0 10 0;
#X connect 52 0 51 1;
#X connect 53 0 54 0;
#X connect 54 0 10 0;
#X connect 56 0 10 0;
#X connect 57 0 70 0;
#X connect 58 0 70 0;
#X connect 58 1 64 0;
#X connect 59 1 53 0;
#X connect 60 0 3 0;
#X connect 60 1 17 1;
#X connect 60 1 29 1;
#X connect 60 1 30 1;
#X connect 60 1 14 1;
#X connect 60 1 16 1;
#X connect 60 1 35 1;
#X connect 60 1 8 1;
#X connect 60 1 6 1;
#X connect 60 2 2 0;
#X connect 60 2 53 0;
#X connect 60 2 52 0;
#X connect 60 3 10 1;
#X connect 61 0 31 0;
#X connect 61 0 54 0;
#X connect 67 0 39 0;
#X connect 69 0 31 0;
#X connect 69 0 54 0;
#X connect 69 0 55 0;
#X connect 70 0 61 1;
#X restore 695 501 pd rhythm_mem;
#N canvas 0 50 1187 866 rhythm_mem 0;
#X obj 145 214 timer;
#X obj 145 238 min 4000;
#X msg 216 151 const 0;
#X obj 145 188 t b b b;
#X msg 180 266 1;
#X obj 180 290 +;
#X obj 214 290 mod 7;
#X obj 214 314 - 1;
#X obj 214 338 mod 7;
#X obj 594 91 inlet;
#X obj 594 159 f;
#X obj 594 183 select 0 1 2 3 4;
#X msg 495 261 1;
#X obj 495 285 +;
#X obj 529 285 mod 7;
#X obj 529 309 - 1;
#X obj 529 333 mod 7;
#X obj 559 238 random 7;
#X obj 634 225 random 2;
#X obj 634 249 * 2;
#X obj 634 273 - 1;
#X obj 876 278 random 1000;
#X obj 876 302 / 1000;
#X obj 876 444 int;
#X obj 876 468 +;
#X obj 876 350 t b f;
#X obj 876 398 *;
#X obj 876 374 f -1;
#X obj 876 326 pow 5.5;
#X obj 876 420 * 7;
#X obj 876 492 mod 7;
#X obj 628 621 outlet duration;
#X obj 154 15 inlet;
#X obj 103 240 bng 15 250 50 0 empty empty empty 17 7 0 10 #fcfcfc
#000000 #000000;
#X floatatom 109 274 5 0 0 0 - - - 0;
#X obj 369 425 poly 7 1;
#X msg 369 398 \$1 1;
#X obj 449 452 * 2;
#X obj 449 475 - 1;
#X obj 432 600 +;
#X obj 423 544 t f f;
#X obj 432 624 max 0;
#X obj 389 480 int;
#X obj 389 456 / 2;
#X obj 389 504 * 2;
#X floatatom 584 612 5 0 0 0 - - - 0;
#X text 326 279 stop;
#X text 635 91 trigger note;
#X msg 487 35 bang;
#X obj 487 59 t b b;
#X obj 487 83 f 0;
#X obj 522 115 spigot 1;
#X msg 553 77 1;
#X msg 361 278 stop;
#X obj 838 656 delay;
#X floatatom 760 604 5 0 0 0 - - - 0;
#X obj 630 127 bng 15 250 50 0 empty empty empty 17 7 0 10 #fcfcfc
#000000 #000000;
#X obj 670 412 bng 15 250 50 0 empty empty empty 17 7 0 10 #fcfcfc
#000000 #000000;
#X obj 145 330 t b f;
#X obj 294 256 moses 15000;
#X obj 154 39 route bang n r method;
#N canvas 0 50 921 650 list-wrandom 0;
#X obj 102 44 inlet;
#X obj 202 176 change -1;
#X msg 202 201 resize \$1;
#X obj 124 226 f;
#X obj 124 251 until;
#X obj 102 373 f;
#X obj 124 316 f 0;
#X obj 150 316 + 1;
#X msg 140 290 0;
#X obj 102 166 t b b b a;
#X obj 102 442 outlet;
#X obj 172 201 + 1;
#X obj 175 377 <=;
#X obj 155 407 select 0;
#X obj 102 112 random 10000;
#X obj 102 136 * 0.0001;
#X obj 319 44 inlet;
#X msg 451 112 0;
#X obj 319 69 t a b a;
#X obj 319 219 f 0;
#X obj 347 219 + 1;
#X msg 452 219 normalize 1;
#X obj 535 158 outlet;
#X obj 535 105 list length;
#X obj 379 219 +;
#X obj 410 219 f;
#X obj 319 251 pack 0 0;
#X obj 319 171 t b a;
#X obj 319 146 list-drip;
#X obj 319 306 s 31-weights;
#X obj 175 347 tabread 31-weights;
#X obj 472 418 table 31-weights;
#X obj 202 229 s 31-weights;
#X obj 202 151 r 31-len;
#X obj 544 131 s 31-len;
#X connect 0 0 14 0;
#X connect 1 0 2 0;
#X connect 1 0 11 0;
#X connect 2 0 32 0;
#X connect 3 0 4 0;
#X connect 4 0 6 0;
#X connect 5 0 10 0;
#X connect 6 0 5 1;
#X connect 6 0 7 0;
#X connect 6 0 30 0;
#X connect 7 0 6 1;
#X connect 8 0 6 1;
#X connect 9 0 5 0;
#X connect 9 1 3 0;
#X connect 9 2 8 0;
#X connect 9 3 12 1;
#X connect 11 0 3 1;
#X connect 12 0 13 0;
#X connect 13 0 4 1;
#X connect 14 0 15 0;
#X connect 15 0 9 0;
#X connect 16 0 18 0;
#X connect 17 0 19 1;
#X connect 17 0 24 1;
#X connect 18 0 28 0;
#X connect 18 1 17 0;
#X connect 18 2 23 0;
#X connect 19 0 20 0;
#X connect 19 0 26 0;
#X connect 20 0 19 1;
#X connect 21 0 29 0;
#X connect 23 0 22 0;
#X connect 23 0 34 0;
#X connect 24 0 25 0;
#X connect 24 0 26 1;
#X connect 25 0 24 1;
#X connect 26 0 29 0;
#X connect 27 0 19 0;
#X connect 27 1 24 0;
#X connect 28 0 27 0;
#X connect 28 1 21 0;
#X connect 30 0 12 0;
#X connect 33 0 1 0;
#X restore 656 477 pd list-wrandom;
#X obj 216 175 s 3-attacks;
#X obj 226 198 s 3-durationcount;
#X obj 130 376 tabwrite 3-attacks;
#X obj 77 436 table 3-attacks 500;
#X obj 78 468 table 3-durationcount 3000;
#X obj 432 577 tabread 3-durationcount;
#X obj 432 647 tabwrite 3-durationcount;
#X obj 628 564 tabread 3-attacks;
#X obj 665 439 array get 3-durationcount;
#X connect 0 0 1 0;
#X connect 0 0 59 0;
#X connect 1 0 34 0;
#X connect 1 0 36 0;
#X connect 1 0 48 0;
#X connect 1 0 58 0;
#X connect 2 0 62 0;
#X connect 2 0 63 0;
#X connect 3 0 0 0;
#X connect 3 0 33 0;
#X connect 3 1 0 1;
#X connect 3 2 4 0;
#X connect 4 0 5 0;
#X connect 5 0 6 0;
#X connect 6 0 5 1;
#X connect 6 0 7 0;
#X connect 7 0 8 0;
#X connect 8 0 24 1;
#X connect 8 0 64 1;
#X connect 9 0 10 0;
#X connect 10 0 11 0;
#X connect 11 0 12 0;
#X connect 11 1 17 0;
#X connect 11 2 18 0;
#X connect 11 3 61 0;
#X connect 11 4 21 0;
#X connect 12 0 13 0;
#X connect 13 0 14 0;
#X connect 14 0 13 1;
#X connect 14 0 15 0;
#X connect 15 0 16 0;
#X connect 16 0 69 0;
#X connect 17 0 69 0;
#X connect 18 0 19 0;
#X connect 19 0 20 0;
#X connect 20 0 13 0;
#X connect 21 0 22 0;
#X connect 22 0 28 0;
#X connect 23 0 24 0;
#X connect 24 0 30 0;
#X connect 25 0 27 0;
#X connect 25 1 26 1;
#X connect 26 0 29 0;
#X connect 27 0 26 0;
#X connect 28 0 25 0;
#X connect 29 0 23 0;
#X connect 30 0 69 0;
#X connect 32 0 60 0;
#X connect 35 1 43 0;
#X connect 35 2 37 0;
#X connect 36 0 35 0;
#X connect 37 0 38 0;
#X connect 38 0 39 1;
#X connect 39 0 41 0;
#X connect 40 0 67 0;
#X connect 40 1 45 0;
#X connect 40 1 68 1;
#X connect 41 0 68 0;
#X connect 42 0 44 0;
#X connect 43 0 42 0;
#X connect 44 0 40 0;
#X connect 48 0 49 0;
#X connect 49 0 50 0;
#X connect 49 1 51 0;
#X connect 50 0 51 1;
#X connect 51 0 10 0;
#X connect 52 0 51 1;
#X connect 53 0 54 0;
#X connect 54 0 10 0;
#X connect 56 0 10 0;
#X connect 57 0 70 0;
#X connect 58 0 70 0;
#X connect 58 1 64 0;
#X connect 59 1 53 0;
#X connect 60 0 3 0;
#X connect 60 1 17 1;
#X connect 60 1 29 1;
#X connect 60 1 30 1;
#X connect 60 1 14 1;
#X connect 60 1 16 1;
#X connect 60 1 35 1;
#X connect 60 1 8 1;
#X connect 60 1 6 1;
#X connect 60 2 2 0;
#X connect 60 2 53 0;
#X connect 60 2 52 0;
#X connect 60 3 10 1;
#X connect 61 0 31 0;
#X connect 61 0 54 0;
#X connect 67 0 39 0;
#X connect 69 0 31 0;
#X connect 69 0 54 0;
#X connect 69 0 55 0;
#X connect 70 0 61 1;
#X restore 852 503 pd rhythm_mem;
#N canvas 310 97 1411 904 pitch_mem 0;
#X obj 234 302 int;
#X msg 283 364 1;
#X obj 283 388 +;
#X obj 317 388 mod 7;
#X obj 317 412 - 1;
#X obj 317 436 mod 7;
#X obj 594 159 f;
#X obj 594 183 select 0 1 2 3 4;
#X msg 495 261 1;
#X obj 495 285 +;
#X obj 529 285 mod 7;
#X obj 529 309 - 1;
#X obj 529 333 mod 7;
#X obj 559 238 random 7;
#X obj 634 225 random 2;
#X obj 634 249 * 2;
#X obj 634 273 - 1;
#X obj 369 425 poly 7 1;
#X msg 369 398 \$1 1;
#X obj 449 452 * 2;
#X obj 449 475 - 1;
#X obj 432 600 +;
#X obj 423 544 t f f;
#X obj 432 624 max 0;
#X text 860 578 current count;
#X text 862 603 probability of something earlier;
#X obj 876 278 random 1000;
#X obj 876 302 / 1000;
#X obj 876 444 int;
#X obj 876 468 +;
#X obj 876 350 t b f;
#X obj 876 398 *;
#X obj 876 374 f -1;
#X obj 75 31 inlet;
#X msg 309 275 const 0;
#X obj 876 326 pow 5.5;
#X obj 876 420 * 7;
#X obj 876 492 mod 7;
#X obj 75 115 t b f;
#X obj 635 678 outlet;
#X obj 424 32 inlet;
#X floatatom 659 593 5 0 0 0 - - - 0;
#X obj 710 412 bng 15 250 50 0 empty empty empty 17 7 0 10 #fcfcfc
#000000 #000000;
#X obj 635 473 list-wrandom;
#X floatatom 716 500 5 0 0 0 - - - 0;
#X floatatom 635 497 5 0 0 0 - - - 0;
#X obj 234 324 t b f b;
#X obj 635 626 pack;
#X text 674 626 pitch|duration;
#X text 117 29 retrieve pitch|num to track|reset|method;
#X text 472 30 pitch;
#X obj 75 60 route float n r method;
#X obj 424 56 change;
#X floatatom 205 353 5 0 0 0 - - - 0;
#X floatatom 191 316 5 0 0 0 - - - 0;
#X obj 234 278 - 0.5;
#X obj 309 299 s 3001-pitches;
#X obj 330 323 s 3001-pitchcount;
#X obj 234 462 tabwrite 3001-pitches;
#X obj 27 541 table 3001-pitches 32;
#X obj 28 574 table 3001-pitchcount 127;
#X obj 432 577 tabread 3001-pitchcount;
#X obj 432 647 tabwrite 3001-pitchcount;
#X obj 609 557 tabread 3001-pitches;
#X obj 705 439 array get 3001-pitchcount;
#X connect 0 0 46 0;
#X connect 0 0 53 0;
#X connect 1 0 2 0;
#X connect 2 0 3 0;
#X connect 3 0 2 1;
#X connect 3 0 4 0;
#X connect 4 0 5 0;
#X connect 5 0 29 1;
#X connect 5 0 58 1;
#X connect 6 0 7 0;
#X connect 7 0 8 0;
#X connect 7 1 13 0;
#X connect 7 2 14 0;
#X connect 7 3 43 0;
#X connect 7 4 26 0;
#X connect 8 0 9 0;
#X connect 9 0 10 0;
#X connect 10 0 9 1;
#X connect 10 0 11 0;
#X connect 11 0 12 0;
#X connect 12 0 63 0;
#X connect 13 0 63 0;
#X connect 14 0 15 0;
#X connect 15 0 16 0;
#X connect 16 0 9 0;
#X connect 17 1 22 0;
#X connect 17 2 19 0;
#X connect 18 0 17 0;
#X connect 19 0 20 0;
#X connect 20 0 21 1;
#X connect 21 0 23 0;
#X connect 22 0 61 0;
#X connect 22 1 62 1;
#X connect 23 0 62 0;
#X connect 26 0 27 0;
#X connect 27 0 35 0;
#X connect 28 0 29 0;
#X connect 29 0 37 0;
#X connect 30 0 32 0;
#X connect 30 1 31 1;
#X connect 31 0 36 0;
#X connect 32 0 31 0;
#X connect 33 0 51 0;
#X connect 34 0 56 0;
#X connect 34 0 57 0;
#X connect 35 0 30 0;
#X connect 36 0 28 0;
#X connect 37 0 63 0;
#X connect 38 0 6 0;
#X connect 38 1 47 1;
#X connect 40 0 52 0;
#X connect 42 0 64 0;
#X connect 43 0 45 0;
#X connect 43 0 41 0;
#X connect 43 0 47 0;
#X connect 43 1 44 0;
#X connect 46 0 64 0;
#X connect 46 1 18 0;
#X connect 46 1 58 0;
#X connect 46 2 1 0;
#X connect 47 0 39 0;
#X connect 51 0 38 0;
#X connect 51 1 13 1;
#X connect 51 1 17 1;
#X connect 51 1 3 1;
#X connect 51 1 5 1;
#X connect 51 1 36 1;
#X connect 51 1 37 1;
#X connect 51 1 10 1;
#X connect 51 1 12 1;
#X connect 51 2 34 0;
#X connect 51 3 6 1;
#X connect 52 0 55 0;
#X connect 55 0 0 0;
#X connect 55 0 54 0;
#X connect 61 0 21 0;
#X connect 63 0 41 0;
#X connect 63 0 47 0;
#X connect 64 0 43 1;
#X restore 600 586 pd pitch_mem;
#N canvas 251 145 1411 904 pitch_mem 0;
#X obj 234 302 int;
#X msg 283 364 1;
#X obj 283 388 +;
#X obj 317 388 mod 7;
#X obj 317 412 - 1;
#X obj 317 436 mod 7;
#X obj 594 159 f;
#X obj 594 183 select 0 1 2 3 4;
#X msg 495 261 1;
#X obj 495 285 +;
#X obj 529 285 mod 7;
#X obj 529 309 - 1;
#X obj 529 333 mod 7;
#X obj 559 238 random 7;
#X obj 634 225 random 2;
#X obj 634 249 * 2;
#X obj 634 273 - 1;
#X obj 369 425 poly 7 1;
#X msg 369 398 \$1 1;
#X obj 449 452 * 2;
#X obj 449 475 - 1;
#X obj 432 600 +;
#X obj 423 544 t f f;
#X obj 432 624 max 0;
#X text 860 578 current count;
#X text 862 603 probability of something earlier;
#X obj 876 278 random 1000;
#X obj 876 302 / 1000;
#X obj 876 444 int;
#X obj 876 468 +;
#X obj 876 350 t b f;
#X obj 876 398 *;
#X obj 876 374 f -1;
#X obj 75 31 inlet;
#X msg 309 275 const 0;
#X obj 876 326 pow 5.5;
#X obj 876 420 * 7;
#X obj 876 492 mod 7;
#X obj 75 115 t b f;
#X obj 635 678 outlet;
#X obj 424 32 inlet;
#X floatatom 659 593 5 0 0 0 - - - 0;
#X obj 710 412 bng 15 250 50 0 empty empty empty 17 7 0 10 #fcfcfc
#000000 #000000;
#X obj 635 473 list-wrandom;
#X floatatom 716 500 5 0 0 0 - - - 0;
#X floatatom 635 497 5 0 0 0 - - - 0;
#X obj 234 324 t b f b;
#X obj 635 626 pack;
#X text 674 626 pitch|duration;
#X text 117 29 retrieve pitch|num to track|reset|method;
#X text 472 30 pitch;
#X obj 75 60 route float n r method;
#X obj 424 56 change;
#X floatatom 205 353 5 0 0 0 - - - 0;
#X floatatom 191 316 5 0 0 0 - - - 0;
#X obj 234 278 - 0.5;
#X obj 309 299 s 3002-pitches;
#X obj 330 323 s 3002-pitchcount;
#X obj 234 462 tabwrite 3002-pitches;
#X obj 27 541 table 3002-pitches 32;
#X obj 28 574 table 3002-pitchcount 127;
#X obj 432 577 tabread 3002-pitchcount;
#X obj 432 647 tabwrite 3002-pitchcount;
#X obj 609 557 tabread 3002-pitches;
#X obj 705 439 array get 3002-pitchcount;
#X connect 0 0 46 0;
#X connect 0 0 53 0;
#X connect 1 0 2 0;
#X connect 2 0 3 0;
#X connect 3 0 2 1;
#X connect 3 0 4 0;
#X connect 4 0 5 0;
#X connect 5 0 29 1;
#X connect 5 0 58 1;
#X connect 6 0 7 0;
#X connect 7 0 8 0;
#X connect 7 1 13 0;
#X connect 7 2 14 0;
#X connect 7 3 43 0;
#X connect 7 4 26 0;
#X connect 8 0 9 0;
#X connect 9 0 10 0;
#X connect 10 0 9 1;
#X connect 10 0 11 0;
#X connect 11 0 12 0;
#X connect 12 0 63 0;
#X connect 13 0 63 0;
#X connect 14 0 15 0;
#X connect 15 0 16 0;
#X connect 16 0 9 0;
#X connect 17 1 22 0;
#X connect 17 2 19 0;
#X connect 18 0 17 0;
#X connect 19 0 20 0;
#X connect 20 0 21 1;
#X connect 21 0 23 0;
#X connect 22 0 61 0;
#X connect 22 1 62 1;
#X connect 23 0 62 0;
#X connect 26 0 27 0;
#X connect 27 0 35 0;
#X connect 28 0 29 0;
#X connect 29 0 37 0;
#X connect 30 0 32 0;
#X connect 30 1 31 1;
#X connect 31 0 36 0;
#X connect 32 0 31 0;
#X connect 33 0 51 0;
#X connect 34 0 56 0;
#X connect 34 0 57 0;
#X connect 35 0 30 0;
#X connect 36 0 28 0;
#X connect 37 0 63 0;
#X connect 38 0 6 0;
#X connect 38 1 47 1;
#X connect 40 0 52 0;
#X connect 42 0 64 0;
#X connect 43 0 45 0;
#X connect 43 0 41 0;
#X connect 43 0 47 0;
#X connect 43 1 44 0;
#X connect 46 0 64 0;
#X connect 46 1 18 0;
#X connect 46 1 58 0;
#X connect 46 2 1 0;
#X connect 47 0 39 0;
#X connect 51 0 38 0;
#X connect 51 1 13 1;
#X connect 51 1 17 1;
#X connect 51 1 3 1;
#X connect 51 1 5 1;
#X connect 51 1 36 1;
#X connect 51 1 37 1;
#X connect 51 1 10 1;
#X connect 51 1 12 1;
#X connect 51 2 34 0;
#X connect 51 3 6 1;
#X connect 52 0 55 0;
#X connect 55 0 0 0;
#X connect 55 0 54 0;
#X connect 61 0 21 0;
#X connect 63 0 41 0;
#X connect 63 0 47 0;
#X connect 64 0 43 1;
#X restore 729 584 pd pitch_mem;
#N canvas 251 145 1411 904 pitch_mem 0;
#X obj 234 302 int;
#X msg 283 364 1;
#X obj 283 388 +;
#X obj 317 388 mod 7;
#X obj 317 412 - 1;
#X obj 317 436 mod 7;
#X obj 594 159 f;
#X obj 594 183 select 0 1 2 3 4;
#X msg 495 261 1;
#X obj 495 285 +;
#X obj 529 285 mod 7;
#X obj 529 309 - 1;
#X obj 529 333 mod 7;
#X obj 559 238 random 7;
#X obj 634 225 random 2;
#X obj 634 249 * 2;
#X obj 634 273 - 1;
#X obj 369 425 poly 7 1;
#X msg 369 398 \$1 1;
#X obj 449 452 * 2;
#X obj 449 475 - 1;
#X obj 432 600 +;
#X obj 423 544 t f f;
#X obj 432 624 max 0;
#X text 860 578 current count;
#X text 862 603 probability of something earlier;
#X obj 876 278 random 1000;
#X obj 876 302 / 1000;
#X obj 876 444 int;
#X obj 876 468 +;
#X obj 876 350 t b f;
#X obj 876 398 *;
#X obj 876 374 f -1;
#X obj 75 31 inlet;
#X msg 309 275 const 0;
#X obj 876 326 pow 5.5;
#X obj 876 420 * 7;
#X obj 876 492 mod 7;
#X obj 75 115 t b f;
#X obj 635 678 outlet;
#X obj 424 32 inlet;
#X floatatom 659 593 5 0 0 0 - - - 0;
#X obj 710 412 bng 15 250 50 0 empty empty empty 17 7 0 10 #fcfcfc
#000000 #000000;
#X obj 635 473 list-wrandom;
#X floatatom 716 500 5 0 0 0 - - - 0;
#X floatatom 635 497 5 0 0 0 - - - 0;
#X obj 234 324 t b f b;
#X obj 635 626 pack;
#X text 674 626 pitch|duration;
#X text 117 29 retrieve pitch|num to track|reset|method;
#X text 472 30 pitch;
#X obj 75 60 route float n r method;
#X obj 424 56 change;
#X floatatom 205 353 5 0 0 0 - - - 0;
#X floatatom 191 316 5 0 0 0 - - - 0;
#X obj 234 278 - 0.5;
#X obj 309 299 s 3003-pitches;
#X obj 330 323 s 3003-pitchcount;
#X obj 234 462 tabwrite 3003-pitches;
#X obj 432 577 tabread 3003-pitchcount;
#X obj 432 647 tabwrite 3003-pitchcount;
#X obj 609 557 tabread 3003-pitches;
#X obj 705 439 array get 3003-pitchcount;
#X obj 27 541 table 3003-pitches 32;
#X obj 28 574 table 3003-pitchcount 127;
#X connect 0 0 46 0;
#X connect 0 0 53 0;
#X connect 1 0 2 0;
#X connect 2 0 3 0;
#X connect 3 0 2 1;
#X connect 3 0 4 0;
#X connect 4 0 5 0;
#X connect 5 0 29 1;
#X connect 5 0 58 1;
#X connect 6 0 7 0;
#X connect 7 0 8 0;
#X connect 7 1 13 0;
#X connect 7 2 14 0;
#X connect 7 3 43 0;
#X connect 7 4 26 0;
#X connect 8 0 9 0;
#X connect 9 0 10 0;
#X connect 10 0 9 1;
#X connect 10 0 11 0;
#X connect 11 0 12 0;
#X connect 12 0 61 0;
#X connect 13 0 61 0;
#X connect 14 0 15 0;
#X connect 15 0 16 0;
#X connect 16 0 9 0;
#X connect 17 1 22 0;
#X connect 17 2 19 0;
#X connect 18 0 17 0;
#X connect 19 0 20 0;
#X connect 20 0 21 1;
#X connect 21 0 23 0;
#X connect 22 0 59 0;
#X connect 22 1 60 1;
#X connect 23 0 60 0;
#X connect 26 0 27 0;
#X connect 27 0 35 0;
#X connect 28 0 29 0;
#X connect 29 0 37 0;
#X connect 30 0 32 0;
#X connect 30 1 31 1;
#X connect 31 0 36 0;
#X connect 32 0 31 0;
#X connect 33 0 51 0;
#X connect 34 0 56 0;
#X connect 34 0 57 0;
#X connect 35 0 30 0;
#X connect 36 0 28 0;
#X connect 37 0 61 0;
#X connect 38 0 6 0;
#X connect 38 1 47 1;
#X connect 40 0 52 0;
#X connect 42 0 62 0;
#X connect 43 0 45 0;
#X connect 43 0 41 0;
#X connect 43 0 47 0;
#X connect 43 1 44 0;
#X connect 46 0 62 0;
#X connect 46 1 18 0;
#X connect 46 1 58 0;
#X connect 46 2 1 0;
#X connect 47 0 39 0;
#X connect 51 0 38 0;
#X connect 51 1 13 1;
#X connect 51 1 17 1;
#X connect 51 1 3 1;
#X connect 51 1 5 1;
#X connect 51 1 36 1;
#X connect 51 1 37 1;
#X connect 51 1 10 1;
#X connect 51 1 12 1;
#X connect 51 2 34 0;
#X connect 51 3 6 1;
#X connect 52 0 55 0;
#X connect 55 0 0 0;
#X connect 55 0 54 0;
#X connect 59 0 21 0;
#X connect 61 0 41 0;
#X connect 61 0 47 0;
#X connect 62 0 43 1;
#X restore 855 583 pd pitch_mem;
#N canvas 456 295 1411 904 pitch_mem 0;
#X obj 234 302 int;
#X msg 283 364 1;
#X obj 283 388 +;
#X obj 317 388 mod 7;
#X obj 317 412 - 1;
#X obj 317 436 mod 7;
#X obj 594 159 f;
#X obj 594 183 select 0 1 2 3 4;
#X msg 495 261 1;
#X obj 495 285 +;
#X obj 529 285 mod 7;
#X obj 529 309 - 1;
#X obj 529 333 mod 7;
#X obj 559 238 random 7;
#X obj 634 225 random 2;
#X obj 634 249 * 2;
#X obj 634 273 - 1;
#X obj 369 425 poly 7 1;
#X msg 369 398 \$1 1;
#X obj 449 452 * 2;
#X obj 449 475 - 1;
#X obj 432 600 +;
#X obj 423 544 t f f;
#X obj 432 624 max 0;
#X text 952 572 current count;
#X text 954 597 probability of something earlier;
#X obj 876 278 random 1000;
#X obj 876 302 / 1000;
#X obj 876 444 int;
#X obj 876 468 +;
#X obj 876 350 t b f;
#X obj 876 398 *;
#X obj 876 374 f -1;
#X obj 75 31 inlet;
#X msg 309 275 const 0;
#X obj 876 326 pow 5.5;
#X obj 876 420 * 7;
#X obj 876 492 mod 7;
#X obj 75 115 t b f;
#X obj 635 678 outlet;
#X obj 424 32 inlet;
#X floatatom 659 593 5 0 0 0 - - - 0;
#X obj 710 412 bng 15 250 50 0 empty empty empty 17 7 0 10 #fcfcfc
#000000 #000000;
#X obj 635 473 list-wrandom;
#X floatatom 716 500 5 0 0 0 - - - 0;
#X floatatom 635 497 5 0 0 0 - - - 0;
#X obj 234 324 t b f b;
#X obj 635 646 pack;
#X text 674 646 pitch|duration;
#X text 117 29 retrieve pitch|num to track|reset|method;
#X text 472 30 pitch;
#X obj 75 60 route float n r method;
#X obj 424 56 change;
#X floatatom 205 353 5 0 0 0 - - - 0;
#X floatatom 191 316 5 0 0 0 - - - 0;
#X obj 234 278 - 0.5;
#X obj 309 299 s 400-pitches;
#X obj 330 323 s 400-pitchcount;
#X obj 705 439 array get 400-pitchcount;
#X obj 609 557 tabread 400-pitches;
#X obj 432 577 tabread 400-pitchcount;
#X obj 432 647 tabwrite 400-pitchcount;
#X obj 234 462 tabwrite 400-pitches;
#X obj 27 541 table 400-pitches 32;
#X obj 28 574 table 400-pitchcount 127;
#X obj 791 550 r speed-s;
#X floatatom 820 580 5 0 0 0 - - - 0;
#X obj 791 625 t b f;
#X obj 791 604 + 0.2;
#X floatatom 821 650 5 0 0 0 - - - 0;
#X obj 791 583 * 4;
#X obj 655 619 *;
#X floatatom 700 670 5 0 0 0 - - - 0;
#X connect 0 0 46 0;
#X connect 0 0 53 0;
#X connect 1 0 2 0;
#X connect 2 0 3 0;
#X connect 3 0 2 1;
#X connect 3 0 4 0;
#X connect 4 0 5 0;
#X connect 5 0 29 1;
#X connect 5 0 62 1;
#X connect 6 0 7 0;
#X connect 7 0 8 0;
#X connect 7 1 13 0;
#X connect 7 2 14 0;
#X connect 7 3 43 0;
#X connect 7 4 26 0;
#X connect 8 0 9 0;
#X connect 9 0 10 0;
#X connect 10 0 9 1;
#X connect 10 0 11 0;
#X connect 11 0 12 0;
#X connect 12 0 59 0;
#X connect 13 0 59 0;
#X connect 14 0 15 0;
#X connect 15 0 16 0;
#X connect 16 0 9 0;
#X connect 17 1 22 0;
#X connect 17 2 19 0;
#X connect 18 0 17 0;
#X connect 19 0 20 0;
#X connect 20 0 21 1;
#X connect 21 0 23 0;
#X connect 22 0 60 0;
#X connect 22 1 61 1;
#X connect 23 0 61 0;
#X connect 26 0 27 0;
#X connect 27 0 35 0;
#X connect 28 0 29 0;
#X connect 29 0 37 0;
#X connect 30 0 32 0;
#X connect 30 1 31 1;
#X connect 31 0 36 0;
#X connect 32 0 31 0;
#X connect 33 0 51 0;
#X connect 34 0 56 0;
#X connect 34 0 57 0;
#X connect 35 0 30 0;
#X connect 36 0 28 0;
#X connect 37 0 59 0;
#X connect 38 0 6 0;
#X connect 38 1 71 0;
#X connect 40 0 52 0;
#X connect 42 0 58 0;
#X connect 43 0 45 0;
#X connect 43 0 41 0;
#X connect 43 0 47 0;
#X connect 43 1 44 0;
#X connect 46 0 58 0;
#X connect 46 1 18 0;
#X connect 46 1 62 0;
#X connect 46 2 1 0;
#X connect 47 0 39 0;
#X connect 51 0 38 0;
#X connect 51 1 13 1;
#X connect 51 1 17 1;
#X connect 51 1 3 1;
#X connect 51 1 5 1;
#X connect 51 1 36 1;
#X connect 51 1 37 1;
#X connect 51 1 10 1;
#X connect 51 1 12 1;
#X connect 51 2 34 0;
#X connect 51 3 6 1;
#X connect 52 0 55 0;
#X connect 55 0 0 0;
#X connect 55 0 54 0;
#X connect 58 0 43 1;
#X connect 59 0 41 0;
#X connect 59 0 47 0;
#X connect 60 0 21 0;
#X connect 65 0 66 0;
#X connect 65 0 70 0;
#X connect 67 0 71 0;
#X connect 67 1 69 0;
#X connect 67 1 71 1;
#X connect 68 0 67 0;
#X connect 70 0 68 0;
#X connect 71 0 47 1;
#X connect 71 0 72 0;
#X restore 550 639 pd pitch_mem;
#N canvas 473 129 1411 904 pitch_mem 0;
#X obj 234 302 int;
#X msg 283 364 1;
#X obj 283 388 +;
#X obj 317 388 mod 7;
#X obj 317 412 - 1;
#X obj 317 436 mod 7;
#X obj 594 159 f;
#X obj 594 183 select 0 1 2 3 4;
#X msg 495 261 1;
#X obj 495 285 +;
#X obj 529 285 mod 7;
#X obj 529 309 - 1;
#X obj 529 333 mod 7;
#X obj 559 238 random 7;
#X obj 634 225 random 2;
#X obj 634 249 * 2;
#X obj 634 273 - 1;
#X obj 369 425 poly 7 1;
#X msg 369 398 \$1 1;
#X obj 449 452 * 2;
#X obj 449 475 - 1;
#X obj 432 600 +;
#X obj 423 544 t f f;
#X obj 432 624 max 0;
#X text 860 578 current count;
#X text 862 603 probability of something earlier;
#X obj 876 278 random 1000;
#X obj 876 302 / 1000;
#X obj 876 444 int;
#X obj 876 468 +;
#X obj 876 350 t b f;
#X obj 876 398 *;
#X obj 876 374 f -1;
#X obj 75 31 inlet;
#X msg 309 275 const 0;
#X obj 876 326 pow 5.5;
#X obj 876 420 * 7;
#X obj 876 492 mod 7;
#X obj 75 115 t b f;
#X obj 635 678 outlet;
#X obj 424 32 inlet;
#X floatatom 659 593 5 0 0 0 - - - 0;
#X obj 710 412 bng 15 250 50 0 empty empty empty 17 7 0 10 #fcfcfc
#000000 #000000;
#X obj 635 473 list-wrandom;
#X floatatom 716 500 5 0 0 0 - - - 0;
#X floatatom 635 497 5 0 0 0 - - - 0;
#X obj 234 324 t b f b;
#X obj 635 655 pack;
#X text 674 626 pitch|duration;
#X text 117 29 retrieve pitch|num to track|reset|method;
#X text 472 30 pitch;
#X obj 75 60 route float n r method;
#X obj 424 56 change;
#X floatatom 205 353 5 0 0 0 - - - 0;
#X floatatom 191 316 5 0 0 0 - - - 0;
#X obj 234 278 - 0.5;
#X obj 234 462 tabwrite 4001-pitches;
#X obj 309 299 s 4001-pitches;
#X obj 330 323 s 4001-pitchcount;
#X obj 27 541 table 4001-pitches 32;
#X obj 28 574 table 4001-pitchcount 127;
#X obj 432 647 tabwrite 4001-pitchcount;
#X obj 432 577 tabread 4001-pitchcount;
#X obj 609 557 tabread 4001-pitches;
#X obj 705 439 array get 4001-pitchcount;
#X obj 791 550 r speed-s;
#X floatatom 820 580 5 0 0 0 - - - 0;
#X obj 791 625 t b f;
#X obj 791 604 + 0.2;
#X floatatom 821 650 5 0 0 0 - - - 0;
#X obj 791 583 * 4;
#X obj 650 617 *;
#X connect 0 0 46 0;
#X connect 0 0 53 0;
#X connect 1 0 2 0;
#X connect 2 0 3 0;
#X connect 3 0 2 1;
#X connect 3 0 4 0;
#X connect 4 0 5 0;
#X connect 5 0 29 1;
#X connect 5 0 56 1;
#X connect 6 0 7 0;
#X connect 7 0 8 0;
#X connect 7 1 13 0;
#X connect 7 2 14 0;
#X connect 7 3 43 0;
#X connect 7 4 26 0;
#X connect 8 0 9 0;
#X connect 9 0 10 0;
#X connect 10 0 9 1;
#X connect 10 0 11 0;
#X connect 11 0 12 0;
#X connect 12 0 63 0;
#X connect 13 0 63 0;
#X connect 14 0 15 0;
#X connect 15 0 16 0;
#X connect 16 0 9 0;
#X connect 17 1 22 0;
#X connect 17 2 19 0;
#X connect 18 0 17 0;
#X connect 19 0 20 0;
#X connect 20 0 21 1;
#X connect 21 0 23 0;
#X connect 22 0 62 0;
#X connect 22 1 61 1;
#X connect 23 0 61 0;
#X connect 26 0 27 0;
#X connect 27 0 35 0;
#X connect 28 0 29 0;
#X connect 29 0 37 0;
#X connect 30 0 32 0;
#X connect 30 1 31 1;
#X connect 31 0 36 0;
#X connect 32 0 31 0;
#X connect 33 0 51 0;
#X connect 34 0 57 0;
#X connect 34 0 58 0;
#X connect 35 0 30 0;
#X connect 36 0 28 0;
#X connect 37 0 63 0;
#X connect 38 0 6 0;
#X connect 38 1 71 0;
#X connect 40 0 52 0;
#X connect 42 0 64 0;
#X connect 43 0 45 0;
#X connect 43 0 41 0;
#X connect 43 0 47 0;
#X connect 43 1 44 0;
#X connect 46 0 64 0;
#X connect 46 1 18 0;
#X connect 46 1 56 0;
#X connect 46 2 1 0;
#X connect 47 0 39 0;
#X connect 51 0 38 0;
#X connect 51 1 13 1;
#X connect 51 1 17 1;
#X connect 51 1 3 1;
#X connect 51 1 5 1;
#X connect 51 1 36 1;
#X connect 51 1 37 1;
#X connect 51 1 10 1;
#X connect 51 1 12 1;
#X connect 51 2 34 0;
#X connect 51 3 6 1;
#X connect 52 0 55 0;
#X connect 55 0 0 0;
#X connect 55 0 54 0;
#X connect 62 0 21 0;
#X connect 63 0 41 0;
#X connect 63 0 47 0;
#X connect 64 0 43 1;
#X connect 65 0 66 0;
#X connect 65 0 70 0;
#X connect 67 0 71 0;
#X connect 67 1 69 0;
#X connect 67 1 71 1;
#X connect 68 0 67 0;
#X connect 70 0 68 0;
#X connect 71 0 47 1;
#X restore 682 629 pd pitch_mem;
#N canvas 473 129 1411 904 pitch_mem 0;
#X obj 234 302 int;
#X msg 283 364 1;
#X obj 283 388 +;
#X obj 317 388 mod 7;
#X obj 317 412 - 1;
#X obj 317 436 mod 7;
#X obj 594 159 f;
#X obj 594 183 select 0 1 2 3 4;
#X msg 495 261 1;
#X obj 495 285 +;
#X obj 529 285 mod 7;
#X obj 529 309 - 1;
#X obj 529 333 mod 7;
#X obj 559 238 random 7;
#X obj 634 225 random 2;
#X obj 634 249 * 2;
#X obj 634 273 - 1;
#X obj 369 425 poly 7 1;
#X msg 369 398 \$1 1;
#X obj 449 452 * 2;
#X obj 449 475 - 1;
#X obj 432 600 +;
#X obj 423 544 t f f;
#X obj 432 624 max 0;
#X text 860 578 current count;
#X text 862 603 probability of something earlier;
#X obj 876 278 random 1000;
#X obj 876 302 / 1000;
#X obj 876 444 int;
#X obj 876 468 +;
#X obj 876 350 t b f;
#X obj 876 398 *;
#X obj 876 374 f -1;
#X obj 75 31 inlet;
#X msg 309 275 const 0;
#X obj 876 326 pow 5.5;
#X obj 876 420 * 7;
#X obj 876 492 mod 7;
#X obj 75 115 t b f;
#X obj 635 678 outlet;
#X obj 424 32 inlet;
#X floatatom 659 593 5 0 0 0 - - - 0;
#X obj 710 412 bng 15 250 50 0 empty empty empty 17 7 0 10 #fcfcfc
#000000 #000000;
#X obj 635 473 list-wrandom;
#X floatatom 716 500 5 0 0 0 - - - 0;
#X floatatom 635 497 5 0 0 0 - - - 0;
#X obj 234 324 t b f b;
#X obj 635 646 pack;
#X text 674 646 pitch|duration;
#X text 117 29 retrieve pitch|num to track|reset|method;
#X text 472 30 pitch;
#X obj 75 60 route float n r method;
#X obj 424 56 change;
#X floatatom 205 353 5 0 0 0 - - - 0;
#X floatatom 191 316 5 0 0 0 - - - 0;
#X obj 234 278 - 0.5;
#X obj 309 299 s 4002-pitches;
#X obj 330 323 s 4002-pitchcount;
#X obj 234 462 tabwrite 4002-pitches;
#X obj 27 541 table 4002-pitches 32;
#X obj 28 574 table 4002-pitchcount 127;
#X obj 432 577 tabread 4002-pitchcount;
#X obj 432 647 tabwrite 4002-pitchcount;
#X obj 609 557 tabread 4002-pitches;
#X obj 705 439 array get 4002-pitchcount;
#X obj 791 550 r speed-s;
#X floatatom 820 580 5 0 0 0 - - - 0;
#X obj 791 625 t b f;
#X obj 791 604 + 0.2;
#X floatatom 821 650 5 0 0 0 - - - 0;
#X obj 791 583 * 4;
#X obj 655 619 *;
#X connect 0 0 46 0;
#X connect 0 0 53 0;
#X connect 1 0 2 0;
#X connect 2 0 3 0;
#X connect 3 0 2 1;
#X connect 3 0 4 0;
#X connect 4 0 5 0;
#X connect 5 0 29 1;
#X connect 5 0 58 1;
#X connect 6 0 7 0;
#X connect 7 0 8 0;
#X connect 7 1 13 0;
#X connect 7 2 14 0;
#X connect 7 3 43 0;
#X connect 7 4 26 0;
#X connect 8 0 9 0;
#X connect 9 0 10 0;
#X connect 10 0 9 1;
#X connect 10 0 11 0;
#X connect 11 0 12 0;
#X connect 12 0 63 0;
#X connect 13 0 63 0;
#X connect 14 0 15 0;
#X connect 15 0 16 0;
#X connect 16 0 9 0;
#X connect 17 1 22 0;
#X connect 17 2 19 0;
#X connect 18 0 17 0;
#X connect 19 0 20 0;
#X connect 20 0 21 1;
#X connect 21 0 23 0;
#X connect 22 0 61 0;
#X connect 22 1 62 1;
#X connect 23 0 62 0;
#X connect 26 0 27 0;
#X connect 27 0 35 0;
#X connect 28 0 29 0;
#X connect 29 0 37 0;
#X connect 30 0 32 0;
#X connect 30 1 31 1;
#X connect 31 0 36 0;
#X connect 32 0 31 0;
#X connect 33 0 51 0;
#X connect 34 0 56 0;
#X connect 34 0 57 0;
#X connect 35 0 30 0;
#X connect 36 0 28 0;
#X connect 37 0 63 0;
#X connect 38 0 6 0;
#X connect 38 1 71 0;
#X connect 40 0 52 0;
#X connect 42 0 64 0;
#X connect 43 0 45 0;
#X connect 43 0 41 0;
#X connect 43 0 47 0;
#X connect 43 1 44 0;
#X connect 46 0 64 0;
#X connect 46 1 18 0;
#X connect 46 1 58 0;
#X connect 46 2 1 0;
#X connect 47 0 39 0;
#X connect 51 0 38 0;
#X connect 51 1 13 1;
#X connect 51 1 17 1;
#X connect 51 1 3 1;
#X connect 51 1 5 1;
#X connect 51 1 36 1;
#X connect 51 1 37 1;
#X connect 51 1 10 1;
#X connect 51 1 12 1;
#X connect 51 2 34 0;
#X connect 51 3 6 1;
#X connect 52 0 55 0;
#X connect 55 0 0 0;
#X connect 55 0 54 0;
#X connect 61 0 21 0;
#X connect 63 0 41 0;
#X connect 63 0 47 0;
#X connect 64 0 43 1;
#X connect 65 0 66 0;
#X connect 65 0 70 0;
#X connect 67 0 71 0;
#X connect 67 1 69 0;
#X connect 67 1 71 1;
#X connect 68 0 67 0;
#X connect 70 0 68 0;
#X connect 71 0 47 1;
#X restore 789 633 pd pitch_mem;
#X obj 382 80 bng 15 250 50 0 empty empty empty 17 7 0 10 #fcfcfc #000000
#000000;
#X obj 382 100 openpanel;
#X obj 382 196 readsf~;
#X msg 382 144 open C:/Users/compo/Music/Samples/loops/tromboneballoon.3.wav
;
#X msg 382 122 set open \$1;
#X obj 486 79 bng 15 250 50 0 empty empty empty 17 7 0 10 #fcfcfc #000000
#000000;
#X obj 486 99 t b b;
#X msg 486 121 1;
#X floatatom 542 544 5 0 0 0 - - - 0;
#N canvas 1220 612 606 496 soni_brass~ 0;
#X obj 103 -3 inlet;
#X obj 103 163 mtof;
#X obj 102 347 osc~;
#X obj 102 401 outlet~;
#X obj 208 235 line~;
#X obj 103 375 *~;
#X floatatom 103 54 5 0 0 0 - - - 0;
#X obj 103 20 unpack;
#X floatatom 142 54 5 0 0 0 - - - 0;
#X obj 191 53 * 0.618;
#X obj 208 211 pack;
#X obj 254 118 * 0.482;
#X obj 103 239 *~;
#X obj 103 313 +~;
#X obj 103 210 osc~;
#X obj 103 278 *~;
#X obj 144 213 sig~;
#X obj 278 346 line~;
#X obj 328 151 del;
#X obj 328 175 pack 0 f;
#X obj 278 266 * 0.03;
#X obj 278 299 pack f f;
#X obj 331 204 / 127;
#X obj 331 228 - 1;
#X obj 331 252 abs;
#X msg 278 323 0 \, \$2 \$1;
#X obj 331 276 * 3;
#X obj 280 24 inlet;
#X floatatom 169 246 5 0 0 0 - - - 0;
#X floatatom 158 159 5 0 0 0 - - - 0;
#X obj 113 79 makenote;
#X obj 280 49 unpack;
#X floatatom 281 76 5 0 0 0 - - - 0;
#X obj 208 147 / 100;
#X obj 208 191 pow 1.4;
#X obj 103 187 * 0.8;
#X obj 25 63 random 100;
#X obj 25 111 + 0.66;
#X obj 113 103 t f b;
#X floatatom 25 135 5 0 0 0 - - - 0;
#X obj 25 87 / 220;
#X obj 389 61 + 0.07;
#X floatatom 277 151 5 0 0 0 - - - 0;
#X floatatom 214 293 5 0 0 0 - - - 0;
#X obj 389 19 r start-s;
#X floatatom 389 82 5 0 0 0 - - - 0;
#X obj 389 40 * 0.582;
#X floatatom 191 74 5 0 0 0 - - - 0;
#X connect 0 0 7 0;
#X connect 1 0 16 0;
#X connect 1 0 35 0;
#X connect 2 0 5 0;
#X connect 4 0 5 1;
#X connect 5 0 3 0;
#X connect 7 0 6 0;
#X connect 7 0 22 0;
#X connect 7 0 30 0;
#X connect 7 1 8 0;
#X connect 7 1 9 0;
#X connect 7 1 11 0;
#X connect 9 0 18 0;
#X connect 9 0 30 2;
#X connect 9 0 47 0;
#X connect 10 0 4 0;
#X connect 11 0 10 1;
#X connect 11 0 19 1;
#X connect 11 0 42 0;
#X connect 12 0 15 0;
#X connect 13 0 2 0;
#X connect 14 0 12 0;
#X connect 15 0 13 0;
#X connect 16 0 12 1;
#X connect 16 0 13 1;
#X connect 17 0 15 1;
#X connect 18 0 19 0;
#X connect 19 0 17 0;
#X connect 20 0 21 0;
#X connect 20 0 43 0;
#X connect 21 0 25 0;
#X connect 22 0 23 0;
#X connect 23 0 24 0;
#X connect 24 0 26 0;
#X connect 25 0 17 0;
#X connect 26 0 21 1;
#X connect 27 0 31 0;
#X connect 30 0 38 0;
#X connect 30 1 29 0;
#X connect 30 1 33 0;
#X connect 31 0 30 1;
#X connect 31 0 32 0;
#X connect 33 0 28 0;
#X connect 33 0 20 0;
#X connect 33 0 34 0;
#X connect 34 0 10 0;
#X connect 35 0 14 0;
#X connect 36 0 40 0;
#X connect 37 0 35 1;
#X connect 37 0 39 0;
#X connect 38 0 1 0;
#X connect 38 1 36 0;
#X connect 40 0 37 0;
#X connect 41 0 11 1;
#X connect 41 0 45 0;
#X connect 44 0 46 0;
#X connect 46 0 41 0;
#X restore 537 664 pd soni_brass~;
#N canvas 1027 625 606 496 soni_brass~ 0;
#X obj 103 -3 inlet;
#X obj 103 163 mtof;
#X obj 102 347 osc~;
#X obj 102 401 outlet~;
#X obj 208 235 line~;
#X obj 103 375 *~;
#X floatatom 103 54 5 0 0 0 - - - 0;
#X obj 103 20 unpack;
#X floatatom 142 54 5 0 0 0 - - - 0;
#X obj 191 53 * 0.618;
#X obj 208 211 pack;
#X obj 254 118 * 0.482;
#X obj 103 239 *~;
#X obj 103 313 +~;
#X obj 103 210 osc~;
#X obj 103 278 *~;
#X obj 144 213 sig~;
#X obj 278 346 line~;
#X obj 328 151 del;
#X obj 328 175 pack 0 f;
#X obj 269 269 * 0.03;
#X obj 278 299 pack f f;
#X obj 331 204 / 127;
#X obj 331 228 - 1;
#X obj 331 252 abs;
#X msg 278 323 0 \, \$2 \$1;
#X obj 331 276 * 3;
#X obj 280 24 inlet;
#X floatatom 169 246 5 0 0 0 - - - 0;
#X floatatom 158 159 5 0 0 0 - - - 0;
#X obj 113 79 makenote;
#X obj 280 49 unpack;
#X floatatom 281 76 5 0 0 0 - - - 0;
#X obj 208 147 / 100;
#X obj 208 171 pow 1.4;
#X obj 103 187 * 0.8;
#X obj 25 63 random 100;
#X obj 25 111 + 0.66;
#X obj 113 103 t f b;
#X floatatom 25 135 5 0 0 0 - - - 0;
#X obj 25 87 / 220;
#X obj 389 61 + 0.07;
#X obj 389 19 r start-s;
#X obj 389 40 * 0.582;
#X connect 0 0 7 0;
#X connect 1 0 16 0;
#X connect 1 0 35 0;
#X connect 2 0 5 0;
#X connect 4 0 5 1;
#X connect 5 0 3 0;
#X connect 7 0 6 0;
#X connect 7 0 22 0;
#X connect 7 0 30 0;
#X connect 7 1 8 0;
#X connect 7 1 9 0;
#X connect 7 1 11 0;
#X connect 9 0 18 0;
#X connect 9 0 30 2;
#X connect 10 0 4 0;
#X connect 11 0 10 1;
#X connect 11 0 19 1;
#X connect 12 0 15 0;
#X connect 13 0 2 0;
#X connect 14 0 12 0;
#X connect 15 0 13 0;
#X connect 16 0 12 1;
#X connect 16 0 13 1;
#X connect 17 0 15 1;
#X connect 18 0 19 0;
#X connect 19 0 17 0;
#X connect 20 0 21 0;
#X connect 21 0 25 0;
#X connect 22 0 23 0;
#X connect 23 0 24 0;
#X connect 24 0 26 0;
#X connect 25 0 17 0;
#X connect 26 0 21 1;
#X connect 27 0 31 0;
#X connect 30 0 38 0;
#X connect 30 1 29 0;
#X connect 30 1 33 0;
#X connect 31 0 30 1;
#X connect 31 0 32 0;
#X connect 33 0 28 0;
#X connect 33 0 20 0;
#X connect 33 0 34 0;
#X connect 34 0 10 0;
#X connect 35 0 14 0;
#X connect 36 0 40 0;
#X connect 37 0 35 1;
#X connect 37 0 39 0;
#X connect 38 0 1 0;
#X connect 38 1 36 0;
#X connect 40 0 37 0;
#X connect 41 0 11 1;
#X connect 42 0 43 0;
#X connect 43 0 41 0;
#X restore 647 664 pd soni_brass~;
#N canvas 732 634 606 496 soni_brass~ 0;
#X obj 103 -3 inlet;
#X obj 103 163 mtof;
#X obj 102 347 osc~;
#X obj 102 401 outlet~;
#X obj 208 235 line~;
#X obj 103 375 *~;
#X floatatom 103 54 5 0 0 0 - - - 0;
#X obj 103 20 unpack;
#X floatatom 142 54 5 0 0 0 - - - 0;
#X obj 191 53 * 0.618;
#X obj 208 211 pack;
#X obj 254 118 * 0.482;
#X obj 103 239 *~;
#X obj 103 313 +~;
#X obj 103 210 osc~;
#X obj 103 278 *~;
#X obj 144 213 sig~;
#X obj 278 346 line~;
#X obj 328 151 del;
#X obj 328 175 pack 0 f;
#X obj 269 269 * 0.03;
#X obj 278 299 pack f f;
#X obj 331 204 / 127;
#X obj 331 228 - 1;
#X obj 331 252 abs;
#X msg 278 323 0 \, \$2 \$1;
#X obj 331 276 * 3;
#X obj 280 24 inlet;
#X floatatom 169 246 5 0 0 0 - - - 0;
#X floatatom 158 159 5 0 0 0 - - - 0;
#X obj 113 79 makenote;
#X obj 280 49 unpack;
#X floatatom 281 76 5 0 0 0 - - - 0;
#X obj 208 147 / 100;
#X obj 208 171 pow 1.4;
#X obj 103 187 * 0.8;
#X obj 25 63 random 100;
#X obj 25 111 + 0.66;
#X obj 113 103 t f b;
#X floatatom 25 135 5 0 0 0 - - - 0;
#X obj 25 87 / 220;
#X obj 389 61 + 0.07;
#X obj 389 19 r start-s;
#X obj 389 40 * 0.582;
#X connect 0 0 7 0;
#X connect 1 0 16 0;
#X connect 1 0 35 0;
#X connect 2 0 5 0;
#X connect 4 0 5 1;
#X connect 5 0 3 0;
#X connect 7 0 6 0;
#X connect 7 0 22 0;
#X connect 7 0 30 0;
#X connect 7 1 8 0;
#X connect 7 1 9 0;
#X connect 7 1 11 0;
#X connect 9 0 18 0;
#X connect 9 0 30 2;
#X connect 10 0 4 0;
#X connect 11 0 10 1;
#X connect 11 0 19 1;
#X connect 12 0 15 0;
#X connect 13 0 2 0;
#X connect 14 0 12 0;
#X connect 15 0 13 0;
#X connect 16 0 12 1;
#X connect 16 0 13 1;
#X connect 17 0 15 1;
#X connect 18 0 19 0;
#X connect 19 0 17 0;
#X connect 20 0 21 0;
#X connect 21 0 25 0;
#X connect 22 0 23 0;
#X connect 23 0 24 0;
#X connect 24 0 26 0;
#X connect 25 0 17 0;
#X connect 26 0 21 1;
#X connect 27 0 31 0;
#X connect 30 0 38 0;
#X connect 30 1 29 0;
#X connect 30 1 33 0;
#X connect 31 0 30 1;
#X connect 31 0 32 0;
#X connect 33 0 28 0;
#X connect 33 0 20 0;
#X connect 33 0 34 0;
#X connect 34 0 10 0;
#X connect 35 0 14 0;
#X connect 36 0 40 0;
#X connect 37 0 35 1;
#X connect 37 0 39 0;
#X connect 38 0 1 0;
#X connect 38 1 36 0;
#X connect 40 0 37 0;
#X connect 41 0 11 1;
#X connect 42 0 43 0;
#X connect 43 0 41 0;
#X restore 790 665 pd soni_brass~;
#X obj 1154 303 r density-s;
#X obj 1244 431 r reset-s;
#X msg 719 265 set \$1;
#X msg 832 268 set \$1;
#X msg 1000 268 set \$1;
#X obj 499 823 *~;
#X floatatom 398 566 5 0 0 0 - - - 0;
#X obj 433 612 *~ 0.3333;
#X obj 525 823 *~;
#X obj 537 689 *~ 1;
#X obj 648 687 *~ 0.618;
#X obj 791 690 *~ 1;
#X obj 462 327 sigmund~ notes env;
#X obj 1244 452 sel 1;
#X obj 837 693 r source-s;
#X obj 583 818 *~;
#X obj 838 736 line~;
#X obj 583 798 sig~;
#X obj 494 861 *~;
#X obj 849 757 -~ 1;
#X obj 849 783 abs~;
#X obj 533 862 *~;
#X obj 639 818 *~;
#X obj 639 798 sig~;
#X msg 838 715 \$1 6;
#X obj 583 768 min 1;
#X obj 583 727 unpack;
#X obj 583 747 / 120;
#X obj 638 770 min 1;
#X obj 638 729 unpack;
#X obj 638 749 / 120;
#X floatatom 442 370 5 0 0 0 - - - 0;
#X obj 466 429 bng 15 250 50 0 empty empty empty 17 7 0 10 #fcfcfc
#000000 #000000;
#X floatatom 618 466 5 0 0 0 - - - 0;
#X text 72 397 [density] number of notes to track;
#X text 72 458 [source] toggle brass sound to CV v/o;
#X obj 1238 51 loadbang;
#X msg 1238 72 \; source-r 0 \; reset-r 0 \;;
#X obj 398 818 *~;
#X obj 396 642 *~ -1;
#X obj 396 663 +~ 1;
#X text 72 409 [blend] dry/wet;
#X text 72 433 [overlap] voice2 (seq \, rand \, for/rev \, common \,
recent);
#X text 72 421 [size] voice1 (seq \, rand \, for/rev \, common \, recent)
;
#X text 72 445 [window] voice3 (seq \, rand \, for/rev \, common \,
recent);
#X text 72 375 [start] envelope shape;
#X text 72 386 [speed] duration multiplier;
#X connect 0 0 108 0;
#X connect 0 0 134 0;
#X connect 15 0 35 0;
#X connect 21 0 75 0;
#X connect 21 0 76 0;
#X connect 21 0 77 0;
#X connect 21 0 128 0;
#X connect 23 0 24 0;
#X connect 24 0 103 0;
#X connect 24 0 135 0;
#X connect 25 0 75 1;
#X connect 25 0 76 1;
#X connect 25 0 77 1;
#X connect 26 0 36 0;
#X connect 32 0 34 0;
#X connect 34 0 75 0;
#X connect 34 0 76 0;
#X connect 34 0 77 0;
#X connect 34 0 81 0;
#X connect 34 0 82 0;
#X connect 34 0 83 0;
#X connect 35 0 81 0;
#X connect 35 0 82 0;
#X connect 35 0 83 0;
#X connect 36 0 75 0;
#X connect 36 0 76 0;
#X connect 36 0 77 0;
#X connect 37 0 38 0;
#X connect 38 0 39 0;
#X connect 39 0 40 0;
#X connect 40 1 41 0;
#X connect 40 1 129 0;
#X connect 41 0 78 1;
#X connect 41 0 79 1;
#X connect 41 0 80 1;
#X connect 42 0 48 0;
#X connect 48 0 78 0;
#X connect 48 0 79 0;
#X connect 49 0 81 0;
#X connect 49 1 78 0;
#X connect 50 0 82 0;
#X connect 50 1 79 0;
#X connect 51 0 83 0;
#X connect 51 1 80 0;
#X connect 52 0 23 0;
#X connect 52 0 102 0;
#X connect 53 0 54 0;
#X connect 54 0 55 0;
#X connect 55 0 34 0;
#X connect 56 0 75 1;
#X connect 56 0 76 1;
#X connect 56 0 77 1;
#X connect 57 0 58 0;
#X connect 58 0 59 0;
#X connect 59 0 60 0;
#X connect 60 0 61 0;
#X connect 61 0 62 0;
#X connect 61 0 35 0;
#X connect 61 0 98 0;
#X connect 63 0 64 0;
#X connect 64 0 65 0;
#X connect 65 0 66 0;
#X connect 66 0 67 0;
#X connect 66 0 36 0;
#X connect 66 0 99 0;
#X connect 68 0 69 0;
#X connect 69 0 70 0;
#X connect 70 0 71 0;
#X connect 71 0 72 0;
#X connect 71 0 48 0;
#X connect 71 0 100 0;
#X connect 73 0 63 0;
#X connect 74 0 68 0;
#X connect 75 0 49 0;
#X connect 75 0 92 0;
#X connect 76 0 50 0;
#X connect 77 0 51 0;
#X connect 78 0 93 1;
#X connect 79 0 82 1;
#X connect 79 0 94 1;
#X connect 80 0 95 1;
#X connect 81 0 83 1;
#X connect 81 0 93 0;
#X connect 81 0 122 0;
#X connect 82 0 81 1;
#X connect 82 0 94 0;
#X connect 82 0 125 0;
#X connect 83 0 82 1;
#X connect 83 0 95 0;
#X connect 84 0 85 0;
#X connect 85 0 88 0;
#X connect 86 0 108 0;
#X connect 86 0 134 0;
#X connect 86 1 90 0;
#X connect 87 0 86 0;
#X connect 88 0 87 0;
#X connect 89 0 90 0;
#X connect 90 0 91 0;
#X connect 90 1 87 0;
#X connect 91 0 86 0;
#X connect 93 0 105 0;
#X connect 94 0 106 0;
#X connect 95 0 107 0;
#X connect 96 0 53 0;
#X connect 97 0 109 0;
#X connect 98 0 15 0;
#X connect 99 0 26 0;
#X connect 100 0 42 0;
#X connect 101 0 114 0;
#X connect 103 0 101 1;
#X connect 103 0 104 1;
#X connect 104 0 117 0;
#X connect 105 0 101 0;
#X connect 106 0 101 0;
#X connect 106 0 104 0;
#X connect 107 0 104 0;
#X connect 108 0 21 0;
#X connect 108 0 81 1;
#X connect 108 0 82 1;
#X connect 108 0 83 1;
#X connect 108 0 127 0;
#X connect 108 1 37 0;
#X connect 109 0 25 0;
#X connect 110 0 120 0;
#X connect 111 0 22 0;
#X connect 112 0 111 1;
#X connect 112 0 115 0;
#X connect 112 0 118 1;
#X connect 113 0 111 0;
#X connect 114 0 22 0;
#X connect 115 0 116 0;
#X connect 116 0 114 1;
#X connect 116 0 117 1;
#X connect 117 0 22 1;
#X connect 118 0 22 1;
#X connect 119 0 118 0;
#X connect 120 0 112 0;
#X connect 121 0 113 0;
#X connect 122 0 123 0;
#X connect 123 0 121 0;
#X connect 124 0 119 0;
#X connect 125 0 126 0;
#X connect 126 0 124 0;
#X connect 132 0 133 0;
#X connect 134 0 114 0;
#X connect 134 0 117 0;
#X connect 135 0 136 0;
#X connect 136 0 134 1;
