#N canvas 34 18 1918 998 10;
#N canvas 512 241 1256 747 nebulae 0;
#X obj 34 216 netreceive 3000;
#X obj 118 271 route start size density overlap blend window pitch
speed record file source reset freeze;
#X obj 532 268 route start_alt size_alt density_alt overlap_alt blend_alt
window_alt pitch_alt record_alt file_alt source_alt freeze_alt;
#X obj 527 452 s start_alt;
#X obj 545 427 s size_alt;
#X obj 560 404 s density_alt;
#X obj 578 379 s overlap_alt;
#X obj 661 458 s blend_alt;
#X obj 687 433 s window_alt;
#X obj 704 412 s pitch_alt;
#X obj 891 459 s freeze_alt;
#X obj 768 459 s record_alt;
#X obj 786 434 s file_alt;
#X obj 804 412 s source_alt;
#X obj 819 93 loadbang;
#X obj 819 115 delay 300;
#X obj 819 137 s initbang;
#X obj 1272 362 r initbang;
#X msg 1272 384 \; pd dsp 1;
#X text 2 191 Receive Controls via TCP;
#X text 261 231 primary controls;
#X text 560 228 secondary controls (accessible when source is held)
;
#X text 841 68 Initialization -- Turn DSP on;
#X obj 93 52 adc~;
#X obj 421 82 dac~;
#X text 127 81 Audio Bypass -- Input to Output;
#X obj 422 33 inlet~;
#X obj 443 61 inlet~;
#X obj 93 140 outlet~;
#X obj 115 117 outlet~;
#X msg 83 556 set \$1;
#X obj 83 577 s start-r;
#X msg 118 505 set \$1;
#X msg 140 455 set \$1;
#X msg 177 399 set \$1;
#X msg 204 332 set \$1;
#X msg 233 532 set \$1;
#X msg 282 395 set \$1;
#X msg 285 332 set \$1;
#X obj 118 526 s size-r;
#X obj 140 476 s density-r;
#X obj 177 420 s overlap-r;
#X obj 204 353 s blend-r;
#X obj 233 553 s window-r;
#X obj 282 416 s pitch-r;
#X obj 285 353 s speed-r;
#X msg 335 458 set \$1;
#X obj 335 479 s record-r;
#X msg 361 392 set \$1;
#X obj 361 413 s file-r;
#X msg 385 331 set \$1;
#X obj 385 352 s source-r;
#X msg 412 501 set \$1;
#X obj 412 522 s reset-r;
#X msg 442 413 set \$1;
#X obj 442 434 s freeze-r;
#X obj 119 603 s start-s;
#X obj 145 553 s size-s;
#X obj 170 498 s density-s;
#X obj 196 441 s overlap-s;
#X obj 222 376 s blend-s;
#X obj 300 375 s speed-s;
#X obj 274 438 s pitch-s;
#X obj 352 433 s file-s;
#X obj 326 500 s record-s;
#X obj 378 371 s source-s;
#X obj 430 455 s freeze-s;
#X obj 404 542 s reset-s;
#X obj 248 513 s window-s;
#X connect 0 0 1 0;
#X connect 1 0 30 0;
#X connect 1 0 56 0;
#X connect 1 1 32 0;
#X connect 1 1 57 0;
#X connect 1 2 33 0;
#X connect 1 2 58 0;
#X connect 1 3 34 0;
#X connect 1 3 59 0;
#X connect 1 4 35 0;
#X connect 1 4 60 0;
#X connect 1 5 36 0;
#X connect 1 5 68 0;
#X connect 1 6 37 0;
#X connect 1 6 62 0;
#X connect 1 7 38 0;
#X connect 1 7 61 0;
#X connect 1 8 46 0;
#X connect 1 8 64 0;
#X connect 1 9 48 0;
#X connect 1 9 63 0;
#X connect 1 10 50 0;
#X connect 1 10 65 0;
#X connect 1 11 52 0;
#X connect 1 11 67 0;
#X connect 1 12 54 0;
#X connect 1 12 66 0;
#X connect 1 13 2 0;
#X connect 2 0 3 0;
#X connect 2 1 4 0;
#X connect 2 2 5 0;
#X connect 2 3 6 0;
#X connect 2 4 7 0;
#X connect 2 5 8 0;
#X connect 2 6 9 0;
#X connect 2 7 11 0;
#X connect 2 8 12 0;
#X connect 2 9 13 0;
#X connect 2 10 10 0;
#X connect 14 0 15 0;
#X connect 15 0 16 0;
#X connect 17 0 18 0;
#X connect 23 0 28 0;
#X connect 23 1 29 0;
#X connect 26 0 24 0;
#X connect 27 0 24 1;
#X connect 30 0 31 0;
#X connect 32 0 39 0;
#X connect 33 0 40 0;
#X connect 34 0 41 0;
#X connect 35 0 42 0;
#X connect 36 0 43 0;
#X connect 37 0 44 0;
#X connect 38 0 45 0;
#X connect 46 0 47 0;
#X connect 48 0 49 0;
#X connect 50 0 51 0;
#X connect 52 0 53 0;
#X connect 54 0 55 0;
#X restore 664 156 pd nebulae;
#X obj 47 26 cnv 15 300 300 empty empty empty 20 12 0 14 #e0e0e0 #404040
0;
#X obj 70 56 hsl 50 40 0 1 0 0 start-s start-r start -2 -8 0 10 #000000
#fcfcfc #000000 0 1;
#X obj 70 116 hsl 50 40 0 1 0 0 density-s density-r density -2 -8 0
10 #000000 #fcfcfc #000000 0 1;
#X obj 90 176 hsl 50 40 0 1 0 0 blend-s blend-r blend -2 -8 0 10 #000000
#fcfcfc #000000 0 1;
#X obj 275 56 hsl 50 40 0 1 0 0 size-s size-r size -2 -8 0 10 #000000
#fcfcfc #000000 0 1;
#X obj 275 116 hsl 50 40 0 1 0 0 overlap-s overlap-r overlap -2 -8
0 10 #000000 #fcfcfc #000000 0 1;
#X obj 255 176 hsl 50 40 0 1 0 0 window-s window-r window -2 -8 0 10
#000000 #fcfcfc #000000 0 1;
#X obj 158 56 hsl 80 50 0 1 0 0 speed-s speed-r speed -2 -8 0 10 #000000
#fcfcfc #000000 0 1;
#X obj 158 126 hsl 80 50 0 1 0 0 pitch-s pitch-r pitch -2 -8 0 10 #000000
#fcfcfc #000000 0 1;
#X obj 80 274 tgl 30 0 record-s record-r record 0 -8 0 10 #000000 #fcfcfc
#000000 0 1;
#X obj 130 274 tgl 30 0 next-s next-r next 0 -8 0 10 #000000 #fcfcfc
#000000 0 1;
#X obj 180 274 tgl 30 0 source-s source-r source 0 -8 0 10 #000000
#fcfcfc #000000 0 1;
#X obj 230 274 tgl 30 0 reset-s reset-r reset 0 -8 0 10 #000000 #fcfcfc
#000000 0 1;
#X obj 280 274 tgl 30 0 freeze-s freeze-r freeze 0 -8 0 10 #000000
#fcfcfc #000000 0 1;
